<ttFont>
          <CharString index="0">
            rmoveto
            73.3000030518 8.97999572754 96.3000030518 41.9799957275 63.3000030518 41.9799957275 -13.3800048828 46.2400054932 -23.3800048828 33.2400054932 -48.3800048828 20.2400054932 -44.25 -37.8800048828 -82.25 -81.8899993896 -28.25 -65.8899993896 rrcurveto
            return
          </CharString>
          <CharString index="1">
            -72 callsubr
            -183.419998169 -23 callsubr
            140.300003052 -93 callgsubr
            -139 -28 callgsubr
            34.9799957275 -91 callgsubr
            -332.570007324 hlineto
            -19 callgsubr
            12.6499938965 hlineto
            34.9400024414 28.3600006104 -27.9499969482 -34.75 0.75 hvcurveto
            -554.509994507 -103 callgsubr
            return
          </CharString>
          <CharString index="2">
            -104 callsubr
            262.600006104 hmoveto
            -107 callgsubr
            return
          </CharString>
          <CharString index="3">
            rmoveto
            -107 callgsubr
            return
          </CharString>
          <CharString index="4">
            rmoveto
            -9.00999450684 hlineto
            -4 -33.7200012207 -41.3000030518 -90.3600006104 -11.75 -25.0599975586 -233.339996338 -510.839996338 rcurveline
            -38.0599975586 -21.6199951172 -33.4100036621 -15.9700012207 -28 hhcurveto
            -9 -10 223.279998779 9.91000366211 -8.78999328613 hlineto
            -36 callgsubr
            -30.1799926758 22.7599945068 40.0200042725 17.6000061035 hvcurveto
            40.1600036621 93.3200073242 rlineto
            213.490005493 hlineto
            39.0099945068 -93.3200073242 rlineto
            -40.0200042725 16 -28.9299926758 -22.75 -36 callgsubr
            hhcurveto
            -8.78999328613 -9.91000366211 379.059997559 10 -8.36000061035 hlineto
            -28.7799987793 -32.6300048828 16.2799987793 38.8800048828 -22.2599945068 hvcurveto
            -470.179992676 150.839996338 rmoveto
            87.1900024414 200.009994507 83.6000061035 -200.009994507 rlineto
            endchar
          </CharString>
          <CharString index="5">
            rmoveto
            -8 callgsubr
            vlineto
            28.4199981689 23.1499938965 -20.1000061035 -28.0399932861 1.25 hvcurveto
            -394.479995728 vlineto
            -131.940002441 -0.309997558594 -67.8399963379 -77.9600067139 -114.729995728 hhcurveto
            -114.61000061 -67.7200012207 82.75 140.039993286 hvcurveto
            381.710006714 vlineto
            27.9799957275 1.2200012207 23.1199951172 20.0399932861 28.3800048828 -15 callsubr
            -343.11000061 -8 callgsubr
            hlineto
            28.8899993896 23.4400024414 -20.7599945068 -28.7599945068 0.539993286133 hvcurveto
            -384.899993896 vlineto
            -168.009994507 112.300003052 -101.589996338 245.059997559 191.690002441 107.850006104 102.13999939 169.210006714 vhcurveto
            385.449996948 vlineto
            27.5599975586 1.74000549316 22.9499969482 19.6699981689 28.1100006104 -15 callsubr
            hlineto
            endchar
          </CharString>
          <CharString index="6">
            rmoveto
            -0.330001831055 -137.399993896 -84 -73 -107.429992676 0.5 -115.570007324 -0.5 -78 83 0.0899963378906 140.289993286 rrcurveto
            382.259994507 vlineto
            1.05000305176 24.7200012207 20.7200012207 22.7299957275 30.9600067139 0.0200042724609 rrcurveto
            -43 callsubr
            -343.11000061 -10 16 hlineto
            29.1799926758 0.0200042724609 23.4400024414 -20.7599945068 0.539993286133 -28.7599945068 rrcurveto
            -384.899993896 vlineto
            -163.600006104 -3.16000366211 132 -106 223 hhcurveto
            212 110 96 175.339996338 2.9700012207 hvcurveto
            372.63999939 vlineto
            0.0399932861328 160.020004272 59.8000030518 105.240005493 122.119995117 16.1600036621 rrcurveto
            10 vlineto
            -165.220001221 18.7299957275 -103.380004883 -150.130004883 -160.020004272 vvcurveto
            return
          </CharString>
          <CharString index="7">
            rmoveto
            -158.240005493 -45 -121.729995728 150 -58.0500030518 60.4400024414 -17.5800018311 18.1799926758 rcurveline
            571.63999939 vlineto
            33.1900024414 1.05999755859 27.1900024414 26.5899963379 33.4600067139 hhcurveto
            18.4600067139 -18 callsubr
            10 rlineto
            -366.070007324 -60 callgsubr
            -358.5 vlineto
            -411.059997559 425.070007324 -87.7700042725 90.75 -164.740005493 114.440002441 -143 -100.910003662 rlinecurve
            5 -9.67999267578 121 46.8600006104 128.61000061 -118.61000061 76.7400054932 -81.4199981689 rlinecurve
            -566.880004883 -78 callsubr
            352.619995117 vlineto
            439.330001831 -454.210006714 93.2299957275 -96 147.210006714 -103 155.86000061 95 rlinecurve
            return
          </CharString>
          <CharString index="8">
            rmoveto
            -257.990005493 -157.449996948 -135.199996948 -228.800003052 -228.789993286 157.449996948 -135.199996948 257.990005493 257.990005493 157.449996948 135.199996948 228.789993286 228.800003052 -157.449996948 135.199996948 -257.990005493 hvcurveto
            -678.080001831 vmoveto
            -122.419998169 -72.3399963379 116.649993896 197.410003662 197.419998169 72.3399963379 116.660003662 122.419998169 122.419998169 72.3399963379 -116.660003662 -197.419998169 -197.410003662 -72.3399963379 -116.649993896 -122.419998169 hvcurveto
            endchar
          </CharString>
          <CharString index="9">
            hlineto
            78.7700042725 -2.88000488281 46.3099975586 -47.9600067139 -0.190002441406 -78.6699981689 rrcurveto
            -61 callsubr
            vlineto
            10.1000061035 -0.149993896484 rlineto
            return
          </CharString>
          <CharString index="10">
            -1 callsubr
            22.4700012207 -43 23 4 48 rrcurveto
            49 4 50 35 82 hhcurveto
            99 60 -50 -72.9700012207 0.410003662109 -26 callgsubr
            -77.8099975586 hlineto
            5.78999328613 -58.0299987793 -74.7599945068 4.4700012207 -36.0099945068 hhcurveto
            -134 -85 -63 -116 -14 hvcurveto
            -12 -95 43 -78 91.5700073242 -42.3899993896 163.050003052 -75.3200073242 rcurveline
            76.3800048828 -35.2799987793 30 -33 -0.100006103516 -41.5200042725 rrcurveto
            -51.4799957275 0.100006103516 -45 -47 -96 hhcurveto
            -140 -84 99 105.050003052 6.69999694824 hvcurveto
            -8.78999328613 hlineto
            -33.2299957275 -42.8399963379 -20.7799987793 -97.6999969482 22.4499969482 -48.8699951172 return
          </CharString>
          <CharString index="11">
            rmoveto
            -194.429992676 -45 -125.339996338 171 -0.820007324219 154.440002441 rrcurveto
            161.710006714 vlineto
            29.1000061035 -0.580001831055 18.1900024414 16.3099975586 32.3300018311 hhcurveto
            15.0700073242 10 -335.869995117 -10 15.7700042725 hlineto
            32.2799987793 0.0500030517578 18.8399963379 -16.4100036621 -0.229995727539 -29.1999969482 rrcurveto
            -136.339996338 vlineto
            -63.9900054932 0.199996948242 -53.3300018311 -42.6600036621 -80.1900024414 hhcurveto
            -136.199996948 -90.8000030518 123.199996948 184.800003052 192 94.8000030518 128 142.199996948 116.11000061 107.88999939 -55 -131.740005493 34.3800048828 hvcurveto
            8.32000732422 hlineto
            9.82000732422 191.240005493 rlineto
            24.8200073242 -58.75 -128.660003662 20.7100067139 -109.990005493 hhcurveto
            -261.130004883 -175 -144 -220 -218 173 -146 251 66.6399993896 62.1799926758 10 16.5399932861 53.9600067139 hvcurveto
            69.4100036621 -170.539993286 198.059997559 -118 232.869995117 103 rrcurveto
            return
          </CharString>
          <CharString index="12">
            -57 callsubr
            -35 -28.3999938965 28.0500030518 34.8300018311 -0.649993896484 hvcurveto
            return
          </CharString>
          <CharString index="13">
            rmoveto
            186.850006104 -15.5700073242 113.899993896 -265.570007324 30 -145.570007324 rrcurveto
            -249.570007324 vlineto
            -34.7899932861 -0.710006713867 -28.9600067139 -27.9199981689 -33.9499969482 hhcurveto
            -13.1100006104 -32 callsubr
            -12.3099975586 hlineto
            -37 -27 30 32.8600006104 -0.389999389648 4 callsubr
            19.9900054932 145.75 139.490005493 275.75 129.75 5.75 rrcurveto
            10 vlineto
            -140.580001831 10.5899963379 -130.580001831 -159.410003662 -50.5800018311 -149.410003662 -72.4100036621 199.410003662 -186.410003662 119.419998169 -244.410003662 -20.5899963379 rrcurveto
            endchar
          </CharString>
          <CharString index="14">
            rmoveto
            -70 callgsubr
            576.600006104 hlineto
            34.8300018311 0.690002441406 28.3999938965 28.0500030518 35 hhcurveto
            -24 callgsubr
            35 -35 callsubr
            -28.0500030518 -34.8300018311 0.660003662109 hvcurveto
            -68 callgsubr
            584.559997559 hlineto
            return
          </CharString>
          <CharString index="15">
            -67 callgsubr
            -0.660003662109 -70 callsubr
            45.1600036621 82.4199981689 vvcurveto
            516.669998169 vlineto
            33.1900024414 1.05999755859 27.1900024414 26.5899963379 33.4600067139 hhcurveto
            18.4600067139 -18 callsubr
            10 rlineto
            return
          </CharString>
          <CharString index="16">
            rmoveto
            -12.0200042725 hlineto
            -168.979995728 175.520004272 7.21000671387 8 168.339996338 -64.4299926758 157.539993286 64.3300018311 7.21000671387 -8 rlineto
            return
          </CharString>
          <CharString index="17">
            591.850006104 718.190002441 rmoveto
            -33 callgsubr
            -9.92999267578 -37 callgsubr
            34.9199981689 28.3500061035 -27.9299926758 -34.7299957275 0.770004272461 hvcurveto
            -554.570007324 -103 callgsubr
            358.800003052 -86 callgsubr
            247.350006104 110.259994507 vlineto
            -102 callgsubr
            return
          </CharString>
          <CharString index="18">
            rmoveto
            85.4600067139 -17 70.3600006104 101 -38.3800048828 84 -17.7700042725 39 -51.1699981689 14 -31.9799957275 -24 -27.7200012207 -20 -4.32000732422 -49 25.6399993896 -29 37.6699981689 -42 -24.8699951172 -37 -25.6499938965 -11 rrcurveto
            endchar
          </CharString>
          <CharString index="19">
            -65 callgsubr
            365.990005493 hlineto
            -0.149993896484 10 rlineto
            -18 callgsubr
            -33.7299957275 -27.3699951172 27.0399932861 33.5700073242 -0.639999389648 hvcurveto
            return
          </CharString>
          <CharString index="20">
            rmoveto
            -46.7400054932 26.4700012207 -46 19 4 48 rrcurveto
            49 4 50 35 82 hhcurveto
            99 60 -50 -72.9700012207 0.440002441406 -26 callgsubr
            -77.8300018311 hlineto
            5.78999328613 -58.0299987793 -74.7599945068 4.4700012207 -36.0099945068 hhcurveto
            -138 -82 -67 -112 -13 hvcurveto
            -11 -94 43 -68 90.5899963379 -53.3899993896 163.050003052 -95.3200073242 rcurveline
            -95.2899932861 168.36000061 -60 -177 -183 hhcurveto
            -179 -132.619995117 168 175.559997559 97.2299957275 hvcurveto
            -9 7 return
          </CharString>
          <CharString index="21">
            -85 callgsubr
            endchar
          </CharString>
          <CharString index="22">
            311.919998169 627.820007324 rmoveto
            34.5399932861 0.979995727539 28.2700042725 27.7200012207 34.7899932861 hhcurveto
            -8 callsubr
            34.6900024414 -25 callsubr
            -54 callsubr
            -28 callsubr
            -20 callgsubr
            rrcurveto
            -56 callsubr
            -12.6300048828 hlineto
            -35.0299987793 -0.0200042724609 -28.3999938965 28.0500030518 -0.649993896484 34.8300018311 rrcurveto
            return
          </CharString>
          <CharString index="23">
            -44 callsubr
            40.2899932861 40.2899932861 -26 callsubr
            -40.2899932861 40.2899932861 -25 callgsubr
            -40.2899932861 -40.2899932861 -25 callgsubr
            40.2899932861 -40.2899932861 -44 callsubr
            hvcurveto
            return
          </CharString>
          <CharString index="24">
            rmoveto
            -35 callgsubr
            12.0399932861 vlineto
            34.8099975586 -0.190002441406 -35 callsubr
            -27.7799987793 -49 callgsubr
            -12.7299957275 -10 359.380004883 -74 callgsubr
            10 rlineto
            -12.3399963379 hlineto
            -35.3099975586 -0.0200042724609 -28.3999938965 28.0500030518 -0.649993896484 34.8300018311 rrcurveto
            575.13999939 44.3699951172 vlineto
            66 74 -39 -93 4 hvcurveto
            1 -19 -2 -13 -1 -9 rrcurveto
            -92 -13 -73 -31 -51 hhcurveto
            -16.1000061035 -0.199996948242 rlineto
            -9.46000671387 vlineto
            19.1000061035 -6.33999633789 17 -28 16 -33 22 -44 48 -117 54 -88 215 -351 323 78 108.820007324 77 rrcurveto
            10 vlineto
            -213.820007324 13 -121 92 -114 163 -71 102 -46 93 -94.1199951172 20.3899993896 rrcurveto
            107.119995117 -11.3899993896 100 74 124 vvcurveto
            164 -175 26 -120.279998779 vhcurveto
            return
          </CharString>
          <CharString index="25">
            rmoveto
            -18.3300018311 -7.72999572754 -56.4100036621 -9.80999755859 -42.9199981689 -0.630004882812 rrcurveto
            -510.949996948 hlineto
            -163.080001831 -76 -149.229995728 -107.570007324 123 hvcurveto
            10.7100067139 5 rlineto
            115.910003662 -73.7100067139 68.7299957275 85.9100036621 110.350006104 hhcurveto
            186.729995728 -579.660003662 hlineto
            -1.53999328613 -34.1600036621 -27.6999969482 -27.1999969482 -34.7599945068 -0.0200042724609 rrcurveto
            -12.6499938965 -74 callgsubr
            -10 rlineto
            358.919998169 -74 callgsubr
            10 rlineto
            -12.6699981689 hlineto
            -34.7100067139 -0.0200042724609 -28.2299957275 27.6199951172 -1.07000732422 34.4600067139 rrcurveto
            -46 callgsubr
            return
          </CharString>
          <CharString index="26">
            -0.160003662109 return
          </CharString>
          <CharString index="27">
            rmoveto
            34 78.8500061035 54 70.2599945068 144.86000061 14.9700012207 rrcurveto
            -571.279998779 vlineto
            -34.7700042725 -0.729995727539 -28.3699951172 -27.9799957275 -34.9600067139 hhcurveto
            -12.6499938965 -74 callgsubr
            -10 rlineto
            378.539993286 hlineto
            250.460006714 149 130 219.839996338 -0.320007324219 hvcurveto
            0.320007324219 220.160003662 -149 130 -250.460006714 -0.0299987792969 rrcurveto
            -231.130004883 hlineto
            -162.339996338 -0.389999389648 -123.070007324 -67.1499938965 -28 -148.5 rrcurveto
            447.979995728 164.380004883 rmoveto
            76.5500030518 1.63999938965 124.460006714 0.0599975585938 75 -112 -0.320007324219 -188.089996338 rlinecurve
            0.320007324219 -188.910003662 -75 -111 -124.460006714 0.440002441406 rrcurveto
            -76.5500030518 hlineto
            endchar
          </CharString>
          <CharString index="28">
            rmoveto
            -239.100006104 8.78999328613 -133.520004272 -126.820007324 -184.149993896 hhcurveto
            -177.130004883 6.07000732422 -91 127 189 vvcurveto
            188 90 118 163 97 97 -42 -144.740005493 40.3800048828 vhcurveto
            8.32000732422 hlineto
            9.82000732422 191.240005493 rlineto
            23.5299987793 -55.5299987793 -89 22 -113 hhcurveto
            -288 -180 -143 -225 -213 161 -147 307.130004883 217.779998779 157.089996338 148.240005493 267.649993896 -37.6600036621 hvcurveto
            endchar
          </CharString>
          <CharString index="29">
            -14 callgsubr
            -0.649993896484 -88 callsubr
            return
          </CharString>
          <CharString index="30">
            -12 callsubr
            -34.7299957275 -28.2299957275 27.6199951172 34.4600067139 -1.07000732422 hvcurveto
            -69 callsubr
            return
          </CharString>
          <CharString index="31">
            9 callsubr
            -9.91000366211 -37 callgsubr
            33.0800018311 30.6199951172 -25.0599975586 -32.1600036621 hvcurveto
            -560.13999939 vlineto
            -34.7700042725 -0.729995727539 -28.3699951172 -27.9799957275 -34.9600067139 hhcurveto
            -12.6499938965 -74 callgsubr
            -10 rlineto
            378.539993286 hlineto
            250.88999939 148.25 129.869995117 219.779998779 220.169998169 -148.25 130.100006104 -250.88999939 hvcurveto
            -96.5500030518 -50.0399932861 rmoveto
            76.5500030518 hlineto
            125.179992676 73.9700012207 -111.520004272 -188.720001221 -188.11000061 -73.9700012207 -111.160003662 -125.179992676 hvcurveto
            -76.5500030518 hlineto
            endchar
          </CharString>
          <CharString index="32">
            -22 callgsubr
            44.5 -55 callgsubr
            -18.6000061035 -61 callsubr
            -57.5700073242 -9.96000671387 -43.1000061035 -0.410003662109 rrcurveto
            -307.580001831 hlineto
            -23 -23 2 3 -22 hvcurveto
            5 -37 -30 4 -46 hhcurveto
            -266 -158 -135 -227 -231 163 -135 249 61 29 8 4 50 hvcurveto
            2 26.5800018311 15.9199981689 0 10.6399993896 hhcurveto
            449.429992676 13 callsubr
            -546.440002441 -127.339996338 rmoveto
            -29.1999969482 -0.399993896484 -45 -39 -75 hhcurveto
            -128 -87 116 198 1 hvcurveto
            207 1 92 107 122 hhcurveto
            76 43 -41 -27.4499969482 0.399993896484 hvcurveto
            endchar
          </CharString>
          <CharString index="33">
            74 -85 callsubr
            791.270004272 -238.86000061 rmoveto
            -136.509994507 11 -86.1999969482 63 -146.429992676 205.190002441 -229.320007324 321.279998779 rcurveline
            171.429992676 207.220001221 25.7700042725 29.3999938965 40 19.7899932861 44.1199951172 0.100006103516 rlinecurve
            4.38000488281 9.02000427246 -241.100006104 -8.83999633789 9.66000366211 hlineto
            27.4100036621 12.6300048828 -24.8200073242 -22.2700042725 -15.8500061035 hvcurveto
            -239.100006104 -325.899993896 219.809997559 -304.979995728 156.880004883 -217.199996948 158.789993286 -101 225.630004883 128 rlinecurve
            return
          </CharString>
          <CharString index="34">
            rmoveto
            -42.9199981689 0.630004882812 -56.4100036621 9.80999755859 -18.3300018311 7.72999572754 rrcurveto
            -205.740005493 vlineto
            10.1000061035 0.149993896484 rlineto
            7.82000732422 vlineto
            -0.190002441406 79.8000030518 47.6499938965 48.1999969482 80.8399963379 1.61000061035 rrcurveto
            98.3600006104 return
          </CharString>
          <CharString index="35">
            -78 callgsubr
            -66.7700042725 -95.9600067139 hhcurveto
            return
          </CharString>
          <CharString index="36">
            0.160003662109 return
          </CharString>
          <CharString index="37">
            -88 callsubr
            341.309997559 vlineto
            479.38999939 -425.899993896 rlineto
            9.08000183105 hlineto
            0 -13.1199951172 return
          </CharString>
          <CharString index="38">
            578.960006714 -72 callgsubr
            return
          </CharString>
          <CharString index="39">
            220 814.440002441 713.699996948 rmoveto
            -9.13999938965 hlineto
            -308.529998779 -458.949996948 -335.369995117 459.25 rlineto
            -9.2799987793 hlineto
            -87.7899932861 -641.350006104 rlineto
            -39.5299987793 -5.25999450684 -32 -23.1199951172 -36.0800018311 hhcurveto
            -16 -10 219.589996338 9.44000244141 -15.5800018311 hlineto
            -21.5399932861 0.0500030517578 -20.1100006104 21.1399993896 2.66000366211 21.5099945068 35.0399932861 283.029998779 rcurveline
            259.770004272 -359.169998169 rlineto
            9.42999267578 hlineto
            -1.94000244141 53.3899993896 43.2599945068 62.7200012207 0 vvcurveto
            170 252.289993286 38.3600006104 -292.259994507 2.82000732422 -21.5 -20.2700042725 -21.1499938965 -21.5399932861 -0.0500030517578 rlinecurve
            -15.5800018311 -9.44000244141 354.210006714 10 -15.9199981689 hlineto
            -35.75 -30 23.1199951172 39.5299987793 -7.13000488281 hvcurveto
            endchar
          </CharString>
          <CharString index="40">
            302.740005493 486.529998779 -97 callsubr
            rrcurveto
            -35.6399993896 7 callgsubr
            86 -29 116 hhcurveto
            189 115 77 143 10 hvcurveto
            -40 callsubr
            return
          </CharString>
          <CharString index="41">
            rmoveto
            36.2700042725 65.6799926758 26.2700042725 45.6799926758 26.2700042725 85.6799926758 -25.9299926758 84.3200073242 -25.9299926758 44.3200073242 -35.9299926758 64.3200073242 8 5 rcurveline
            74.9299926758 -95.9900054932 84.9299926758 -55.9900054932 74.9299926758 -45.9900054932 -74.9299926758 -48.0099945068 -84.9299926758 -68.0099945068 -74.9299926758 -88.0099945068 rrcurveto
            return
          </CharString>
          <CharString index="42">
            104 689.330001831 247.399993896 -101 callsubr
            return
          </CharString>
          <CharString index="43">
            rmoveto
            -84 callsubr
            return
          </CharString>
          <CharString index="44">
            -10.1600036621 -84.8500061035 -24.7299957275 -50.1699981689 -31.6900024414 -0.0599975585938 -25.5099945068 -25 callsubr
            -7.94999694824 50.5500030518 12.0599975586 85.4600067139 rrcurveto
            86.1100006104 12.0299987793 23.5200042725 50.8899993896 27.7799987793 hhcurveto
            25.8600006104 9.14999389648 -51.2599945068 -86.7400054932 return
          </CharString>
          <CharString index="45">
            vlineto
            76.7599945068 45 -52 -81 3 hvcurveto
            1 -17 -2 -23 -5 -20 -28 -115 -93 -2 1.0299987793 -1.13000488281 0.119995117188 -9.44999694824 rcurveline
            153.779998779 -111.419998169 197.369995117 106 -10.2400054932 185.410003662 rrcurveto
            102.440002441 -5.66000366211 -7 callsubr
            88.1600036621 -199.070007324 hhcurveto
            endchar
          </CharString>
          <CharString index="46">
            -7.82000732422 return
          </CharString>
          <CharString index="47">
            rmoveto
            -77 callgsubr
            return
          </CharString>
          <CharString index="48">
            rmoveto
            20.4600067139 100 rlineto
            -6 hlineto
            -17.2899932861 -7.19999694824 -11.3399963379 -10.4299926758 -22.1000061035 hhcurveto
            -26.1000061035 244 -5.61999511719 hlineto
            -332.630004883 -310.289993286 rlineto
            -6 194.240005493 -54.9900054932 vlineto
            -17.9499969482 -0.669998168945 -14.7700042725 -13.1699981689 -17.6699981689 hhcurveto
            -6.53999328613 -6 223.479995728 6 -6.53999328613 hlineto
            -17.8099975586 -15.0599975586 14.1699981689 17.8000030518 -0.240005493164 hvcurveto
            54.1499938965 vlineto
            -219.419998169 72.2899932861 rmoveto
            75.4199981689 66.4799957275 rlineto
            -66.4799957275 vlineto
            endchar
          </CharString>
          <CharString index="49">
            0.899993896484 rrcurveto
            180.25 hlineto
            -332.059997559 -641.529998779 -0.179992675781 return
          </CharString>
          <CharString index="50">
            -12.6499938965 hlineto
            return
          </CharString>
          <CharString index="51">
            -554.740005493 -103 callgsubr
            358.789993286 -74 callgsubr
            10 rlineto
            return
          </CharString>
          <CharString index="52">
            -45.0800018311 -0.210006713867 -62.3800048828 rrcurveto
            -4.72999572754 vlineto
            9.77000427246 -0.119995117188 rlineto
            278.259994507 0 callgsubr
            -62.8000030518 -45.0500030518 -45.2700042725 -63.5500030518 -1.19999694824 rrcurveto
            -109 -28 callgsubr
            144.979995728 -98 callsubr
            return
          </CharString>
          <CharString index="53">
            28.3099975586 -27.8300018311 return
          </CharString>
          <CharString index="54">
            -14 callsubr
            -574.270004272 vlineto
            0.00999450683594 -95.9199981689 -19.5 -104 -97.4600067139 -44 rrcurveto
            -9 vlineto
            162.559997559 -21 159.61000061 101 170.100006104 vvcurveto
            577.330001831 -46 callsubr
            return
          </CharString>
          <CharString index="55">
            16.3000030518 return
          </CharString>
          <CharString index="56">
            231.539993286 return
          </CharString>
          <CharString index="57">
            -19.6399993896 -139 214.63999939 -34 9.05000305176 136 return
          </CharString>
          <CharString index="58">
            vlineto
            -100 -1.69000244141 -91 -129.169998169 -51 vhcurveto
            -10 vlineto
            245.410003662 -76 90.5500030518 176 152 vvcurveto
            255 267.970001221 -252.13999939 vlineto
            -34.8300018311 -1.07000732422 -28.3999938965 -28.0500030518 -35 hhcurveto
            -12.6499938965 -74 callgsubr
            -10 rlineto
            358.820007324 -12 callsubr
            -36.6600036621 0.0200042724609 -27 30 -0.399993896484 32.8600006104 rrcurveto
            return
          </CharString>
          <CharString index="59">
            hlineto
            21.5800018311 162.710006714 rlineto
            return
          </CharString>
          <CharString index="60">
            -143.5 343.330001831 rlineto
            40.0200042725 -14 26.9299926758 22.75 25.8200073242 hhcurveto
            8.78999328613 9.91000366211 -379.169998169 -10 8 hlineto
            29 32.8800048828 -16.2899932861 -38.8899993896 22.2799987793 hvcurveto
            316.809997559 -658.830001831 rlineto
            9.00999450684 hlineto
            4 33.7200012207 41.3000030518 90.3600006104 11.75 25.0599975586 return
          </CharString>
          <CharString index="61">
            vlineto
            34.7299957275 0.770004272461 28.3500061035 27.9299926758 34.9199981689 -20 callsubr
            return
          </CharString>
          <CharString index="62">
            rmoveto
            32.8600006104 32.3200073242 17.5800018311 19.9100036621 33.4199981689 -2.91000366211 46 -4 60 -48 58 -8 74 -10 46 53 26.8200073242 26.8000030518 -45.5299987793 43.3800048828 rcurveline
            -27.2899932861 -22.1799926758 -31.5299987793 -27.9700012207 -34.4700012207 1.9700012207 -35 2 -69 52 -61 6 -83 9 -50 -71 -5.66999816895 -8.96000671387 rrcurveto
            return
          </CharString>
          <CharString index="63">
            49.7100067139 return
          </CharString>
          <CharString index="64">
            -52 callsubr
            10 return
          </CharString>
          <CharString index="65">
            hlineto
            -38 callsubr
            -51 callsubr
            rlineto
            return
          </CharString>
          <CharString index="66">
            vlineto
            1.75999450684 36.0800018311 28.6999969482 25.3600006104 33.5399932861 -25 callsubr
            rrcurveto
            -8 callsubr
            34.5500030518 -25 callsubr
            28.2200012207 -27.6000061035 1.08999633789 -34.4499969482 rrcurveto
            return
          </CharString>
          <CharString index="67">
            7 97 -48 63 -74.3899993896 34.2200012207 rrcurveto
            return
          </CharString>
          <CharString index="68">
            rmoveto
            73.3099975586 8.97999572754 96.3699951172 41.9799957275 63.3699951172 41.9799957275 -13.3000030518 46.2400054932 -23.3200073242 33.2400054932 -48.3500061035 20.2400054932 -44.3200073242 -37.8800048828 -82.3899993896 -81.8899993896 -28.3699951172 -65.8899993896 rrcurveto
            return
          </CharString>
          <CharString index="69">
            38.2899932861 return
          </CharString>
          <CharString index="70">
            vlineto
            -34.8300018311 -0.690002441406 -28.3999938965 -28.0500030518 -35 hhcurveto
            -12.6499938965 -74 callgsubr
            -10 rlineto
            358.899993896 -74 callgsubr
            10 rlineto
            -12.7400054932 hlineto
            -34.9199981689 -0.0200042724609 -28.3999938965 28.0500030518 -0.649993896484 34.8300018311 rrcurveto
            return
          </CharString>
          <CharString index="71">
            -84 callsubr
            endchar
          </CharString>
          <CharString index="72">
            28.3999938965 return
          </CharString>
          <CharString index="73">
            rmoveto
            28.7700042725 23.3200073242 23.3200073242 28.7700042725 28.7700042725 -23.3200073242 23.3200073242 -28.7700042725 -28.7700042725 -23.3200073242 -23.3200073242 -28.7700042725 -28.7700042725 23.3200073242 -23.3200073242 28.7700042725 hvcurveto
            return
          </CharString>
          <CharString index="74">
            -42 callsubr
            endchar
          </CharString>
          <CharString index="75">
            -74 callgsubr
            -10 rlineto
            358.75 -74 callgsubr
            10 rlineto
            return
          </CharString>
          <CharString index="76">
            hlineto
            -71 callsubr
            return
          </CharString>
          <CharString index="77">
            -48 callgsubr
            -123.419998169 return
          </CharString>
          <CharString index="78">
            -30.1399993896 hhcurveto
            -10.8999938965 hlineto
            -0.139999389648 -10 rlineto
            336.550003052 hlineto
            return
          </CharString>
          <CharString index="79">
            0.869995117188 return
          </CharString>
          <CharString index="80">
            -81 callsubr
            10 rlineto
            -57 callsubr
            return
          </CharString>
          <CharString index="81">
            -44 callsubr
            -44 callsubr
            return
          </CharString>
          <CharString index="82">
            0.0800018310547 return
          </CharString>
          <CharString index="83">
            401.720001221 65 -401.720001221 hlineto
            return
          </CharString>
          <CharString index="84">
            269.630004883 return
          </CharString>
          <CharString index="85">
            10 -21 callsubr
            return
          </CharString>
          <CharString index="86">
            rmoveto
            -95 callsubr
            return
          </CharString>
          <CharString index="87">
            hhcurveto
            -75 callgsubr
            return
          </CharString>
          <CharString index="88">
            rlineto
            -28.3899993896 17.2200012207 -23.8800048828 -33.1900024414 -27.2700042725 hhcurveto
            -12.6000061035 hlineto
            10 callgsubr
            -10 rlineto
            403.899993896 hlineto
            return
          </CharString>
          <CharString index="89">
            hlineto
            0.149993896484 return
          </CharString>
          <CharString index="90">
            -10.8999938965 hlineto
            -29.9199981689 -24.3300018311 return
          </CharString>
          <CharString index="91">
            rmoveto
            -401.720001221 -187 rlineto
            -59 vlineto
            401.720001221 -187 rlineto
            71 vlineto
            -308.669998169 145.720001221 308.669998169 145.279998779 rlineto
            return
          </CharString>
          <CharString index="92">
            hhcurveto
            -43 callsubr
            return
          </CharString>
          <CharString index="93">
            700.059997559 9 callsubr
            -10 -37 callgsubr
            35 -35 callsubr
            -28.0500030518 -34.8300018311 0.660003662109 hvcurveto
            return
          </CharString>
          <CharString index="94">
            hlineto
            0.139999389648 -10 rlineto
            10.8999938965 hlineto
            30.1699981689 24.4799957275 -24.1799926758 -30.0299987793 0.559997558594 hvcurveto
            return
          </CharString>
          <CharString index="95">
            hlineto
            -27 callsubr
            return
          </CharString>
          <CharString index="96">
            -368 30 291.899993896 rmoveto
            10 -40.8999938965 rlineto
            300 hlineto
            10 40.8999938965 -10 40.1000061035 rlineto
            -300 hlineto
            endchar
          </CharString>
          <CharString index="97">
            rmoveto
            131.699996948 -25 108.429992676 155 -59.1399993896 return
          </CharString>
          <CharString index="98">
            -13.6300048828 hlineto
            -42 -39 27.4499969482 30.8699951172 -20.8200073242 hvcurveto
            -205.729995728 314.529998779 return
          </CharString>
          <CharString index="99">
            -3 callgsubr
            12.8200073242 hlineto
            return
          </CharString>
          <CharString index="100">
            -71.4700012207 return
          </CharString>
          <CharString index="101">
            -40.4900054932 62.4799957275 64.8600006104 -40.1799926758 125.75 -42.4400024414 return
          </CharString>
          <CharString index="102">
            vlineto
            28.8000030518 1.36999511719 23.3300018311 23.7700042725 28.9400024414 hhcurveto
            return
          </CharString>
          <CharString index="103">
            vlineto
            0.00999450683594 -156 -22.6300048828 -24 -64.9799957275 -53 5.30999755859 -8 rcurveline
            return
          </CharString>
          <CharString index="104">
            hlineto
            -38.2400054932 -216.880004883 rlineto
            62 hlineto
            38.2400054932 216.880004883 rlineto
            return
          </CharString>
          <CharString index="105">
            35.8200073242 203.119995117 rlineto
            -62 hlineto
            -35.8200073242 -203.119995117 rlineto
            return
          </CharString>
          <CharString index="106">
            rmoveto
            -51 callgsubr
            return
          </CharString>
          <CharString index="107">
            rmoveto
            1 callsubr
            return
          </CharString>
          <CharString index="108">
            -21 callgsubr
            -3 34 return
          </CharString>
          <CharString index="109">
            -17.6300048828 -22.4400024414 -22.4400024414 -17.6300048828 return
          </CharString>
          <CharString index="110">
            65.3699951172 40.0800018311 -40.1199951172 -62.3200073242 return
          </CharString>
          <CharString index="111">
            hvcurveto
            -7 callgsubr
            vlineto
            return
          </CharString>
          <CharString index="112">
            -40 callsubr
            endchar
          </CharString>
          <CharString index="113">
            71.4700012207 return
          </CharString>
          <CharString index="114">
            -247.660003662 -150.460006714 -50 150.460006714 return
          </CharString>
          <CharString index="115">
            26.1000061035 23.9199981689 31.7299957275 return
          </CharString>
          <CharString index="116">
            rmoveto
            -71 callsubr
            return
          </CharString>
          <CharString index="117">
            -31 callsubr
            10 rlineto
            return
          </CharString>
          <CharString index="118">
            -50.5299987793 return
          </CharString>
          <CharString index="119">
            50.5299987793 return
          </CharString>
          <CharString index="120">
            hlineto
            38.2799987793 -51 callsubr
            rlineto
            return
          </CharString>
          <CharString index="121">
            hlineto
            5 callgsubr
            return
          </CharString>
          <CharString index="122">
            -27.1799926758 return
          </CharString>
          <CharString index="123">
            -483 700 -20 hstem
            100 65 vstem
            100 return
          </CharString>
        <CharString name=".notdef">
          -498 endchar
        </CharString>
        <CharString name="A">
          -46 976.100006104 -161 -105 callgsubr
        </CharString>
        <CharString name="AE">
          193 931.419998169 -48 callgsubr
          -183.300003052 266.630004883 143.899993896 -42 callgsubr
          -142.350006104 282.259994507 35.6300048828 hlineto
          80.1300048828 -2.05999755859 47.1799926758 -48.1199951172 -0.190002441406 -79.4100036621 rrcurveto
          -61 callsubr
          vlineto
          10.1100006104 -0.149993896484 rlineto
          206.270004272 vlineto
          -7.99000549316 -18.9499969482 -59.6699981689 -10.2100067139 -43.3600006104 hhcurveto
          1.66999816895 -0.149993896484 rlineto
          -287.679992676 -11.8899993896 4.60000610352 hlineto
          21.5599975586 12.4900054932 -19.8699951172 -19.8699951172 -9.07000732422 hvcurveto
          -388.009994507 -569.619995117 -106 -155.589996338 -85 -10 -95 6 rlinecurve
          -1 -10 123 -50 145 12 112.220001221 183.5 rlinecurve
          160.179992676 262.720001221 rlineto
          136.169998169 -258.86000061 -1.02000427246 hlineto
          -26.8000030518 -0.5 -5 callgsubr
          626.710006714 -42 callsubr
          -710.539993286 135.669998169 rmoveto
          106.399993896 174.520004272 rlineto
          -174.520004272 vlineto
          endchar
        </CharString>
        <CharString name="Aacute">
          -46 311.809997559 781 -107 callsubr
          671.289993286 -949 -105 callgsubr
        </CharString>
        <CharString name="Abreve">
          -46 455.61000061 947.649993896 -44 callgsubr
          -12.7100067139 -58 callgsubr
          507.779998779 -1108.63999939 -105 callgsubr
        </CharString>
        <CharString name="Acircumflex">
          -46 321.570007324 951.759994507 -89 callgsubr
          823.410003662 -937.339996338 -105 callgsubr
        </CharString>
        <CharString name="Adieresis">
          -46 193.970001221 775.490005493 -105 callsubr
          519.529998779 -936.490005493 -105 callgsubr
        </CharString>
        <CharString name="Agrave">
          -46 355.720001221 790.910003662 -98 callgsubr
          627.380004883 -944.910003662 -105 callgsubr
        </CharString>
        <CharString name="Amacron">
          -46 186.630004883 815.36000061 rmoveto
          290 85 -290 hlineto
          789.470001221 -1061.36000061 -105 callgsubr
        </CharString>
        <CharString name="Aogonek">
          -66 976.100006104 -161 rmoveto
          -181.86000061 -49 -99.8800048828 204 -71.2299957275 161.210006714 -153.380004883 346.320007324 rcurveline
          -110.009994507 248.38999939 -155.289993286 56.4900054932 -188.11000061 -112.580001831 1.88000488281 -10.1000061035 rcurveline
          113.440002441 41.5700073242 72.0800018311 -110.539993286 49.3500061035 -110.520004272 -201.070007324 -440.199996948 rcurveline
          -38.0700073242 -21.6199951172 -33.4100036621 -15.9700012207 -28 hhcurveto
          -9 -10 223.279998779 9.91000366211 -8.78999328613 hlineto
          -36 callgsubr
          -30.1799926758 22.7599945068 40.0200042725 17.6000061035 hvcurveto
          40.1600036621 93.3200073242 rlineto
          214.070007324 hlineto
          27.0800018311 -66.4400024414 13.3699951172 -32.7700042725 15.0299987793 -30.1600036621 16.4199981689 -27.5800018311 rlinecurve
          -54.2200012207 2.25 -66.8300018311 -23.3000030518 -10.1000061035 -72 -50 callsubr
          -6 6 rcurveline
          -21 callgsubr
          -2.71000671387 31 10.3399963379 29 42.2400054932 14.2599945068 131.679992676 -214.259994507 216.279998779 -53 163.070007324 95 rrcurveto
          -779.929992676 387 rmoveto
          89.25 204.729995728 19.6600036621 -50.2299957275 62.9799957275 -154.5 rlineto
          endchar
        </CharString>
        <CharString name="Aring">
          -46 328.660003662 961.630004883 -82 callgsubr
          648.539993286 -1092.86000061 -105 callgsubr
        </CharString>
        <CharString name="Atilde">
          -46 536.199996948 939.279998779 -96 callgsubr
          452.25 -1100.27999878 -105 callgsubr
        </CharString>
        <CharString name="B">
          7 48.8800048828 700 9 callsubr
          -9.86999511719 rlineto
          2 callgsubr
          hlineto
          33.7899932861 28.8500061035 -26.4900054932 -35.1999969482 1.21000671387 hvcurveto
          -525.580001831 vlineto
          -69.6499938965 52.0800018311 -53.1999969482 87.7899932861 138.559997559 vvcurveto
          -9.86999511719 -0.979995727539 -30 -318.240005493 210.869995117 -65 169 -11 rlinecurve
          223 -15 193 75 -3 163 -2 114 -97 64 -92.8000030518 -4.14999389648 46.8000030518 18.1499938965 40 57 -1 66 rrcurveto
          121 -2 -139 55 -151.550003052 hhcurveto
          -26.4799957275 -50.7700042725 rmoveto
          77.2899932861 -6.47999572754 23.1399993896 -44.6600036621 3.61000061035 -82.0899963379 1 -26 3 -109 -74.3300018311 0.300003051758 12 callgsubr
          -9.33999633789 rcurveline
          74.1000061035 0.0399932861328 77 -40 5 -110 4.94999694824 -114.729995728 -76.2400054932 -67.7700042725 -118.740005493 -1.4700012207 rrcurveto
          endchar
        </CharString>
        <CharString name="C">
          82 807.009994507 401.850006104 -79 callsubr
        </CharString>
        <CharString name="Cacute">
          82 435 761 -107 callsubr
          379.009994507 -366.149993896 -79 callsubr
        </CharString>
        <CharString name="Ccaron">
          82 458.830001831 763.970001221 -91 callsubr
          188.880004883 -537.550003052 -79 callsubr
        </CharString>
        <CharString name="Ccedilla">
          82 807.009994507 401.850006104 rmoveto
          -239.100006104 8.78999328613 -133.520004272 -126.820007324 -184.149993896 hhcurveto
          -177.130004883 6.07000732422 -91 127 189 vvcurveto
          188 90 118 163 97 97 -42 -144.740005493 40.3800048828 vhcurveto
          8.32000732422 hlineto
          9.82000732422 191.240005493 rlineto
          23.5299987793 -55.5299987793 -89 22 -113 hhcurveto
          -288 -180 -143 -225 -199.820007324 141.699996948 -141.740005493 271.11000061 -16.4400024414 hvcurveto
          -45.8600006104 -59 -81 callgsubr
          37.7100067139 43 rcurveline
          215.61000061 2 154.839996338 147.949996948 -37.4199981689 265.940002441 rrcurveto
          endchar
        </CharString>
        <CharString name="Cdotaccent">
          82 452 -88 callgsubr
          355.009994507 -362.149993896 -79 callsubr
        </CharString>
        <CharString name="D">
          130 -90 479.929992676 -80 callsubr
        </CharString>
        <CharString name="Dcaron">
          130 464.059997559 763.970001221 -91 callsubr
          -713.369995117 -459.470001221 -80 callsubr
        </CharString>
        <CharString name="Dcroat">
          130 315.059997559 -29 callgsubr
          -405.059997559 -400.429992676 -80 callsubr
        </CharString>
        <CharString name="Delta">
          -96 321 714 rmoveto
          -316 -704.419998169 rlineto
          -9.58000183105 642 10 vlineto
          -316 704 rlineto
          166.789993286 -664.419998169 rmoveto
          -419.259994507 hlineto
          211.679992676 481.970001221 rlineto
          endchar
        </CharString>
        <CharString name="E">
          -36 702.839996338 231.539993286 rmoveto
          -106 callsubr
          644.559997559 -33 callsubr
        </CharString>
        <CharString name="Eacute">
          -36 262.039993286 761 -107 callsubr
          447.809997559 -536.460006714 rmoveto
          -106 callsubr
          644.559997559 -33 callsubr
        </CharString>
        <CharString name="Ecaron">
          -36 285.86000061 763.970001221 -91 callsubr
          257.679992676 -707.850006104 rmoveto
          -106 callsubr
          644.559997559 -33 callsubr
        </CharString>
        <CharString name="Ecircumflex">
          -36 271.789993286 931.759994507 -89 callgsubr
          599.919998169 -524.789993286 rmoveto
          -106 callsubr
          644.559997559 -33 callsubr
        </CharString>
        <CharString name="Edieresis">
          -36 144.199996948 755.490005493 -105 callsubr
          296.050003052 -523.940002441 rmoveto
          -106 callsubr
          644.559997559 -33 callsubr
        </CharString>
        <CharString name="Edotaccent">
          -36 279.039993286 -88 callgsubr
          423.809997559 -532.460006714 rmoveto
          -106 callsubr
          644.559997559 -33 callsubr
        </CharString>
        <CharString name="Egrave">
          -36 305.949996948 770.910003662 -98 callgsubr
          403.899993896 -532.36000061 rmoveto
          -106 callsubr
          644.559997559 -33 callsubr
        </CharString>
        <CharString name="Emacron">
          -36 136.86000061 -29 callgsubr
          565.990005493 -648.820007324 rmoveto
          -106 callsubr
          644.559997559 -33 callsubr
        </CharString>
        <CharString name="Eng">
          143 780.979995728 700.020004272 rmoveto
          -275.75 -60 callgsubr
          -346.270004272 vlineto
          -488.669998169 441.789993286 -87.7700042725 90.75 -165.130004883 114.440002441 -143 -100.910003662 rlinecurve
          5 -9.67999267578 145 56.4299926758 179.630004883 -196.059997559 66.6600036621 -71.3300018311 rlinecurve
          -543.339996338 vlineto
          -31.0500030518 -0.520004272461 -26.2200012207 -24.2100067139 -31.9299926758 -23 callgsubr
          357.380004883 vlineto
          290.009994507 -262.289993286 rlineto
          -123.679992676 -4 callsubr
          147.539993286 -36 134.13999939 83 148 vvcurveto
          639.350006104 vlineto
          30.7799987793 -0.149993896484 8 callsubr
          hhcurveto
          18.4600067139 -18 callsubr
          10 rlineto
          endchar
        </CharString>
        <CharString name="Eogonek">
          -36 721.039993286 -120 0 callsubr
          12.9700012207 31 54.4600067139 13 rrcurveto
          1.13000488281 -42 callsubr
          -10 hlineto
          -106 callsubr
          581.399993896 hlineto
          -41.8399963379 -9 -39.0399932861 -27 -7.5299987793 -53 -50 callsubr
          rrcurveto
          endchar
        </CharString>
        <CharString name="Eth">
          130 -90 479.929992676 rmoveto
          34 78.8500061035 54 70.2599945068 144.86000061 14.9700012207 rrcurveto
          -268.990005493 -76.8600006104 -50 76.8600006104 -252.289993286 vlineto
          -34.7700042725 -0.729995727539 -28.3699951172 -27.9799957275 -34.9600067139 hhcurveto
          -12.6499938965 -74 callgsubr
          -10 rlineto
          378.539993286 hlineto
          250.460006714 149 130 219.839996338 -0.320007324219 hvcurveto
          0.320007324219 220.160003662 -149 130 -250.460006714 -0.0299987792969 rrcurveto
          -231.130004883 hlineto
          -162.339996338 -0.389999389648 -123.070007324 -67.1499938965 -28 -148.5 rrcurveto
          447.979995728 -158.910003662 14 callgsubr
          273.289993286 hlineto
          76.5500030518 1.63999938965 124.460006714 0.0599975585938 75 -112 -0.320007324219 -188.089996338 rlinecurve
          0.320007324219 -188.910003662 -75 -111 -124.460006714 0.440002441406 rrcurveto
          -76.5500030518 hlineto
          endchar
        </CharString>
        <CharString name="Euro">
          -55 667.479995728 213.979995728 rmoveto
          -115.979995728 -32.4799957275 -54 -61 -100 hhcurveto
          -117.089996338 -58.8999938965 82.3099975586 144.300003052 -15.8500061035 hvcurveto
          254.410003662 hlineto
          16.5800018311 50 rlineto
          -274.679992676 70 297.88999939 hlineto
          17.5800018311 50 rlineto
          -312.199996948 hlineto
          145.800003052 15.1199951172 57.7200012207 84.5800018311 105.429992676 hhcurveto
          70 81 -37 -127 -4.52000427246 hvcurveto
          10 hlineto
          52.5800018311 154.699996948 rlineto
          42.3099975586 -33.0599975586 -117 17 -76 hhcurveto
          -197.960006714 -138.699996948 -115.570007324 -164.820007324 -35 hvcurveto
          -100.339996338 hlineto
          -18 -50 rlineto
          111.070007324 hlineto
          -0.899993896484 -11.0399932861 -0.460006713867 -11.2100067139 -0.0200042724609 -11.3600006104 -25 callsubr
          -12.3300018311 0.600006103516 -12.1399993896 1.10000610352 -11.9199981689 rrcurveto
          -92.4600067139 hlineto
          -19 -50 rlineto
          119.279998779 hlineto
          -164.279998779 36.7100067139 139.070007324 -112.339996338 191.940002441 hhcurveto
          77 110 18 44.0700073242 42.3099975586 hvcurveto
          164.919998169 vlineto
          endchar
        </CharString>
        <CharString name="F">
          -39 689.259994507 484.25 rmoveto
          -4.72999572754 vlineto
          0.220001220703 -62.8000030518 -45.0500030518 -45.2700042725 -63.5500030518 -1.19999694824 rrcurveto
          -269 -28 callgsubr
          144.979995728 -91 callgsubr
          -442.570007324 hlineto
          0.160003662109 -9.92999267578 -37 callgsubr
          34.9199981689 28.3500061035 -27.9299926758 -34.7299957275 0.770004272461 hvcurveto
          -554.570007324 -103 callgsubr
          358.800003052 -86 callgsubr
          247.350006104 270.259994507 vlineto
          -59 callgsubr
          44.4900054932 -45.0800018311 -0.210006713867 -62.3800048828 rrcurveto
          -4.72999572754 vlineto
          9.77000427246 -0.119995117188 rlineto
          278.259994507 vlineto
          endchar
        </CharString>
        <CharString name="G">
          124 1115.11999512 -163 -96 callsubr
          endchar
        </CharString>
        <CharString name="Gbreve">
          124 553.789993286 927.63999939 -44 callgsubr
          -12.7200012207 -58 callgsubr
          548.61000061 -1090.63999939 -96 callsubr
          endchar
        </CharString>
        <CharString name="Gcommaaccent">
          124 1115.11999512 -163 -96 callsubr
          -720.440002441 -100 -89 callsubr
        </CharString>
        <CharString name="Gdotaccent">
          124 427 -88 callgsubr
          688.119995117 -927 -96 callsubr
          endchar
        </CharString>
        <CharString name="H">
          -6 callgsubr
          -235 -268.440002441 253.570007324 -41 callsubr
          -558.029998779 -49 callsubr
          537.13999939 vlineto
          0.990005493164 8 callgsubr
          endchar
        </CharString>
        <CharString name="Hbar">
          -6 callgsubr
          -71.8899993896 -268.440002441 90.4600067139 -41 callsubr
          -89.9199981689 -64.5899963379 -50 64.5899963379 -418.11000061 -49 callsubr
          415.25 68.4100036621 50 -67.6900024414 71.8899993896 vlineto
          0.270004272461 8 callgsubr
          -333.789993286 -477 rmoveto
          -268.050003052 113.11000061 268.050003052 hlineto
          endchar
        </CharString>
        <CharString name="I">
          -250 392.009994507 613.63999939 -101 callgsubr
          endchar
        </CharString>
        <CharString name="IJ">
          174 392.009994507 613.63999939 -101 callgsubr
          141.080001831 627.199996948 -52 callgsubr
        </CharString>
        <CharString name="Iacute">
          -250 271.38999939 761 -107 callsubr
          127.619995117 -154.36000061 -101 callgsubr
          endchar
        </CharString>
        <CharString name="Icircumflex">
          -250 281.149993896 931.759994507 -89 callgsubr
          279.729995728 -142.699996948 -101 callgsubr
          endchar
        </CharString>
        <CharString name="Idieresis">
          -250 153.550003052 755.490005493 -105 callsubr
          -24.1399993896 -141.850006104 -101 callgsubr
          endchar
        </CharString>
        <CharString name="Idotaccent">
          -250 288.38999939 -88 callgsubr
          103.619995117 -150.36000061 -101 callgsubr
          endchar
        </CharString>
        <CharString name="Igrave">
          -250 315.300003052 770.910003662 -98 callgsubr
          83.7100067139 -150.270004272 -101 callgsubr
          endchar
        </CharString>
        <CharString name="Imacron">
          -250 146.210006714 -29 callgsubr
          245.800003052 -266.720001221 -101 callgsubr
          endchar
        </CharString>
        <CharString name="Iogonek">
          -250 468.710006714 -22 callsubr
          540.779998779 vlineto
          1.24000549316 57.4400024414 18.5899963379 29.6900024414 58.8000030518 9.30000305176 -1.83999633789 10 rcurveline
          -94.7200012207 -18.0599975586 -194.820007324 -2.80999755859 -70.1799926758 -3.19000244141 -110.089996338 -5 -37 -49.1300048828 -2 -50.8699951172 -3 -72.1900024414 75.0899963379 -39.8099975586 56.6399993896 32.3999938965 rrcurveto
          5.80999755859 vlineto
          -51.6399993896 -5.19999694824 -30 32 3 41 4 42 30 17.9199981689 55.9199981689 1.94000244141 86.9499969482 3.00999450684 rcurveline
          -577.009994507 -103 callgsubr
          172.070007324 hlineto
          -44.9400024414 -7 -43.9600067139 -27 -8.03999328613 -57 -50 callsubr
          -6 6 rcurveline
          1 callsubr
          13 32 54.5800018311 12 -5.35000610352 2 rcurveline
          138.429992676 hlineto
          endchar
        </CharString>
        <CharString name="J">
          -324 35.0800018311 700.059997559 -52 callgsubr
        </CharString>
        <CharString name="K">
          -74 callsubr
          endchar
        </CharString>
        <CharString name="Kcommaaccent">
          -74 callsubr
          -693.86000061 -32 -56 callgsubr
        </CharString>
        <CharString name="L">
          -303 1087.30999756 -90 -71 callgsubr
          endchar
        </CharString>
        <CharString name="Lacute">
          -303 193 761 -107 callsubr
          901.309997559 -858 -71 callgsubr
          endchar
        </CharString>
        <CharString name="Lcaron">
          -203 -38 callgsubr
          655.710006714 -599.270004272 -62 callgsubr
          endchar
        </CharString>
        <CharString name="Lcommaaccent">
          -303 1087.30999756 -90 -71 callgsubr
          -880.179992676 -226 -89 callsubr
        </CharString>
        <CharString name="Ldot">
          -153 1087.30999756 -90 -62 callgsubr
          -626.550003052 424.509994507 -104 callsubr
          endchar
        </CharString>
        <CharString name="Lslash">
          -271 1099.57000732 -90 rmoveto
          -215.589996338 -82 -67.2400054932 7 -454.479995728 151 rrcurveto
          -29.5800018311 10 -8.50999450684 16.9600067139 41.9600067139 vvcurveto
          327.970001221 vlineto
          103.529998779 59.8899993896 -26.0200042725 45.9700012207 -77.5099945068 -44.8399963379 rlineto
          183.279998779 vlineto
          1.10000610352 35.8000030518 28 27 34.9900054932 -25 callsubr
          rrcurveto
          -24 callgsubr
          34.1900024414 -0.0800018310547 29 -27 -28 callsubr
          -35.8000030518 rrcurveto
          -32 callgsubr
          124.190002441 87.5 -22 -38 82.6000061035 hvcurveto
          250.460006714 -113 347.100006104 -228 173.460006714 304 rrcurveto
          endchar
        </CharString>
        <CharString name="M">
          245 830.440002441 713.699996948 rmoveto
          -9.13999938965 hlineto
          -297.800003052 -443 -178.36000061 291.490005493 -102.809997559 168.009994507 -166.75 118.130004883 -190.570007324 -102.339996338 rlinecurve
          3 -10 105 7.60000610352 99.8699951172 -141.820007324 58.3500061035 -101.990005493 rlinecurve
          -69.3600006104 -428.86000061 rlineto
          -38.4700012207 -6.75999450684 -30.6199951172 -22.4499969482 -35.4900054932 hhcurveto
          -16 -10 219.089996338 9.44999694824 -15.5800018311 hlineto
          -21.5399932861 -17.4400024414 21.1000061035 21.5599975586 hvcurveto
          0.210006713867 3.91999816895 50.1100006104 336.160003662 242.960006714 -416.220001221 rlineto
          9.46000671387 hlineto
          -1.94000244141 53.3899993896 43.2599945068 62.7200012207 0 vvcurveto
          171.309997559 254.240005493 45.6900024414 -211.690002441 69.1100006104 -320.649993896 230.300003052 -74 175.529998779 74 rlinecurve
          10 vlineto
          -163.399993896 -10 -55.9799957275 151 -31.4199981689 164 rrcurveto
          endchar
        </CharString>
        <CharString name="N">
          133 1136.58999634 -125 -100 callsubr
          endchar
        </CharString>
        <CharString name="Nacute">
          133 384.800003052 761 -107 callsubr
          758.789993286 -893 -100 callsubr
          endchar
        </CharString>
        <CharString name="Ncaron">
          133 408.630004883 763.979995728 -91 callsubr
          568.660003662 -1064.3999939 -100 callsubr
          endchar
        </CharString>
        <CharString name="Ncommaaccent">
          133 1136.58999634 -125 -100 callsubr
          -685.160003662 -138 -89 callsubr
        </CharString>
        <CharString name="Ntilde">
          133 609.199996948 919.279998779 -96 callgsubr
          539.75 -1044.27999878 -100 callsubr
          endchar
        </CharString>
        <CharString name="O">
          183 378.929992676 433.460006714 -94 callgsubr
        </CharString>
        <CharString name="OE">
          339 1077.83999634 -75 callsubr
        </CharString>
        <CharString name="Oacute">
          183 448.429992676 775 -107 callsubr
          -62.5099945068 -348.539993286 -94 callgsubr
        </CharString>
        <CharString name="Ocircumflex">
          183 458.179992676 945.759994507 -89 callgsubr
          89.6100006104 -336.880004883 -94 callgsubr
        </CharString>
        <CharString name="Odieresis">
          183 330.589996338 769.490005493 -105 callsubr
          -214.259994507 -336.020004272 -94 callgsubr
        </CharString>
        <CharString name="Ograve">
          183 492.339996338 784.910003662 -98 callgsubr
          -106.410003662 -344.449996948 -94 callgsubr
        </CharString>
        <CharString name="Ohungarumlaut">
          183 340.949996948 778 -107 callsubr
          217 -7 -107 callsubr
          -165.020004272 -351.539993286 -94 callgsubr
        </CharString>
        <CharString name="Omacron">
          183 323.25 809.36000061 rmoveto
          290 85 -290 hlineto
          55.6699981689 -460.899993896 -94 callgsubr
        </CharString>
        <CharString name="Omega">
          131 849.559997559 259.800003052 rmoveto
          -63.3800048828 -35.1799926758 -22.5099945068 -21.3999938965 -59.4299926758 hhcurveto
          -189.949996948 hlineto
          169.179992676 141.449996948 93 160.600006104 163.080001831 -175.619995117 122.309997559 -236.830001831 -236.570007324 -178.429992676 -117.970001221 -167.429992676 -158.199996948 145 -95.3999938965 163.929992676 hvcurveto
          -187.490005493 hlineto
          -59.4299926758 0.0200042724609 -22.5099945068 21.3999938965 -35.1799926758 63.3800048828 rrcurveto
          -10 hlineto
          47.7200012207 -259.800003052 rlineto
          327.149993896 hlineto
          20 175 -108.190002441 33 -71 79 0.110000610352 137.850006104 rlinecurve
          136.660003662 0.110000610352 88.0200042725 102.490005493 117.759994507 hhcurveto
          115.259994507 85.7599945068 -100.869995117 -134.5 0.429992675781 hvcurveto
          -0.449996948242 -143.630004883 -73 -74 -107.589996338 -36 20 -175 rcurveline
          329.759994507 hlineto
          47.7200012207 259.800003052 rlineto
          endchar
        </CharString>
        <CharString name="Oslash">
          157 1 callgsubr
          -36.0399932861 -41.9100036621 -73.9600067139 32.4400024414 -79.6000061035 9.5299987793 -62.7799987793 -12.3999938965 rlinecurve
          -147 -29 -36 -143 64.9299926758 -108.539993286 rrcurveto
          12 hlineto
          -32.9299926758 108.539993286 36 109 106 13 57.6499938965 7.14999389648 48.4600067139 -24.1999969482 35.9700012207 -45.3800048828 -361.669998169 -420.490005493 rcurveline
          -24.2799987793 55.8800048828 -13.1300048828 69.8999938965 80.1399993896 vvcurveto
          131 35 121 55.4299926758 57.8399963379 vhcurveto
          -6 10 rlineto
          -180.429992676 -30.8399963379 -125 -140 -183 vvcurveto
          -123.899993896 58.0399932861 -100.75 99.6499938965 -64.3699951172 vhcurveto
          -43.8500061035 -50.9799957275 44.0099945068 -36 50.6100006104 59.0200042725 rlineto
          -32.3099975586 69.3200073242 84.1300048828 -17.6999969482 95.0800018311 hhcurveto
          272 182 144 225 144.61000061 -74.6799926758 100.190002441 -94.4299926758 58.1799926758 hvcurveto
          -91.1499938965 -106.279998779 rmoveto
          25.3300018311 -53.1199951172 13.9400024414 -68.1799926758 -75.3999938965 vvcurveto
          -195 -94 -124 -138 -71.3500061035 -58.2100067139 33.4299926758 58.8099975586 -40.8800048828 vhcurveto
          endchar
        </CharString>
        <CharString name="Otilde">
          183 672.820007324 933.279998779 -96 callgsubr
          -281.550003052 -499.820007324 -94 callgsubr
        </CharString>
        <CharString name="P">
          12 35.7700042725 656.63999939 rmoveto
          0.360000610352 3.5 6.72999572754 1 8 hhcurveto
          39.9700012207 17.3800048828 -24.0899963379 -34.0399932861 0.550003051758 hvcurveto
          -527.009994507 -37 callsubr
          581.800003052 vlineto
          48.9700012207 7.33000183105 86.1799926758 2 callgsubr
          59.8200073242 -52.8399963379 3 -105 rlinecurve
          3 -102 -51 -45 -33 -13 -29 -11 -32 6 -14.1000061035 19.3399963379 -9.83000183105 -5.82000732422 rcurveline
          10.9400024414 -36.5299987793 25 -27 40 -15 118 -44 193 75 -6 192 -6 181 -178 45 -180 -23 -82 -10 -108 -28 -141.61000061 -8.46000671387 rrcurveto
          endchar
        </CharString>
        <CharString name="Q">
          181 1572.92999268 -84 rmoveto
          -119.929992676 -102 -263 62 -255 48 -126.449996948 24 -131.940002441 21 -112.399993896 13 rrcurveto
          181.429992676 32.4499969482 166.36000061 138.399993896 204.149993896 vvcurveto
          213 -180 146 -267 3 vhcurveto
          -289 3 -171 -161 -195 vvcurveto
          -173 135 -113 163 -30 vhcurveto
          99 -18 143 6 -13.8300018311 178.929992676 -11.0099945068 -1 rcurveline
          -10.1499938965 -108.929992676 -79 -21 -57 5 rrcurveto
          -110 10 -44 112 138 vvcurveto
          222 113 105 134 -9 vhcurveto
          164 -11 76 -175 -10 -169 rrcurveto
          -225 -14 -157 -93 -136.979995728 hhcurveto
          -10 vlineto
          86.9799957275 -41 223.570007324 -108 126.429992676 -52 326 -134 358 5 69.75 257 rrcurveto
          endchar
        </CharString>
        <CharString name="R">
          35 35.9600067139 700 -83 callgsubr
        </CharString>
        <CharString name="Racute">
          35 374 761 -107 callsubr
          -331.039993286 -68 -83 callgsubr
        </CharString>
        <CharString name="Rcaron">
          35 397.820007324 763.970001221 -91 callsubr
          -521.169998169 -239.399993896 -83 callgsubr
        </CharString>
        <CharString name="Rcommaaccent">
          35 35.9600067139 700 -83 callsubr
          -4.38999938965 -973 -89 callsubr
        </CharString>
        <CharString name="S">
          -77 322.36000061 486.529998779 -87 callsubr
          rlineto
          -177.559997559 -126.229995728 105.61000061 -229 267 hhcurveto
          323 131 337 147.220001221 -259.36000061 hvcurveto
          endchar
        </CharString>
        <CharString name="Sacute">
          -77 322.649993896 761 -107 callsubr
          6.69999694824 -281.470001221 -87 callsubr
          rlineto
          -177.559997559 -126.229995728 105.61000061 -229 267 hhcurveto
          323 131 337 147.220001221 -259.36000061 hvcurveto
          endchar
        </CharString>
        <CharString name="Scaron">
          -77 346.479995728 763.970001221 -91 callsubr
          -183.429992676 -452.869995117 -87 callsubr
          rlineto
          -177.559997559 -126.229995728 105.61000061 -229 267 hhcurveto
          323 131 337 147.220001221 -259.36000061 hvcurveto
          endchar
        </CharString>
        <CharString name="Scedilla">
          -77 322.36000061 486.529998779 -87 callsubr
          -122.229995728 -172.029998779 95.2599945068 -220.529998779 -7 callgsubr
          -13 rlinecurve
          -47.1100006104 -61 -81 callgsubr
          41.3099975586 48 rcurveline
          295.36000061 24 111.009994507 316.820007324 -249.11000061 141.399993896 rrcurveto
          endchar
        </CharString>
        <CharString name="Scommaaccent">
          -77 322.36000061 486.529998779 -87 callsubr
          rlineto
          -177.559997559 -126.229995728 105.61000061 -229 267 hhcurveto
          323 131 337 147.220001221 -259.36000061 hvcurveto
          -255.919998169 -751.220001221 rmoveto
          85.1600036621 -17 72.1199951172 101 -36.9100036621 84 -17.0899963379 39 -50.9299926758 14 -32.3899993896 -24 -28.0700073242 -20 -5.16999816895 -49 25.1300048828 -29 36.9299926758 -42 -25.5200042725 -37 -25.8399963379 -11 rrcurveto
          endchar
        </CharString>
        <CharString name="T">
          2 740.690002441 719.169998169 -82 callsubr
          endchar
        </CharString>
        <CharString name="Tbar">
          2 112.080001831 701 rmoveto
          -164.080001831 -75 -149.229995728 -107.570007324 123 hvcurveto
          11.0800018311 5 rlineto
          115.910003662 -74.0800018311 69.0800018311 85.9100036621 110 hhcurveto
          186.729995728 7 callsubr
          -282 hlineto
          -1.53999328613 -34.1600036621 -27.6999969482 -27.1999969482 -34.7599945068 -0.0200042724609 rrcurveto
          -12.6499938965 -74 callgsubr
          -10 rlineto
          358.919998169 -74 callgsubr
          10 rlineto
          -12.6699981689 hlineto
          -34.7100067139 -0.0200042724609 -28.2299957275 27.6199951172 -1.07000732422 34.4600067139 rrcurveto
          -45 callgsubr
        </CharString>
        <CharString name="Tcaron">
          2 408.910003662 763.970001221 -91 callsubr
          172.479995728 -220.229995728 -82 callsubr
          endchar
        </CharString>
        <CharString name="Tcedilla">
          2 112.080001831 701 rmoveto
          -163.080001831 -76 -149.229995728 -107.570007324 123 hvcurveto
          10.7100067139 5 rlineto
          115.910003662 -73.7100067139 68.7299957275 85.9100036621 110.350006104 hhcurveto
          186.729995728 -579.660003662 hlineto
          -1.53999328613 -34.1600036621 -27.6999969482 -27.1999969482 -34.7599945068 -0.0200042724609 rrcurveto
          -12.6499938965 -74 callgsubr
          -10 rlineto
          137.86000061 hlineto
          -48.1499938965 -62 -81 callgsubr
          41.6999969482 48 rcurveline
          159.869995117 -74 callgsubr
          10 rlineto
          -12.6699981689 hlineto
          -34.7100067139 -0.0200042724609 -28.2299957275 27.6199951172 -1.07000732422 34.4600067139 rrcurveto
          -69 callsubr
          endchar
        </CharString>
        <CharString name="Thorn">
          -41 324.61000061 558.029998779 rmoveto
          69.7799987793 -100 callgsubr
          358.789993286 -86 callgsubr
          435.169998169 27.6900024414 -62 callsubr
        </CharString>
        <CharString name="U">
          -65 callsubr
          endchar
        </CharString>
        <CharString name="Uacute">
          104 482.990005493 761 -107 callsubr
          213.339996338 -520.600006104 -101 callsubr
          endchar
        </CharString>
        <CharString name="Ucircumflex">
          104 492.75 931.759994507 -89 callgsubr
          365.449996948 -508.940002441 -101 callsubr
          endchar
        </CharString>
        <CharString name="Udieresis">
          -65 callsubr
          -324.179992676 125.509994507 -105 callsubr
          endchar
        </CharString>
        <CharString name="Ugrave">
          104 526.899993896 770.910003662 -98 callgsubr
          169.429992676 -516.509994507 -101 callsubr
          endchar
        </CharString>
        <CharString name="Uhungarumlaut">
          104 295.339996338 764 -39 callsubr
          216.990005493 -7 -39 callsubr
          190.979995728 -523.600006104 -101 callsubr
          endchar
        </CharString>
        <CharString name="Umacron">
          -65 callsubr
          -331.520004272 165.380004883 rmoveto
          290 85 -290 hlineto
          endchar
        </CharString>
        <CharString name="Uogonek">
          104 689.330001831 247.399993896 rmoveto
          -0.330001831055 -137.399993896 -84 -73 -107.429992676 0.5 -115.570007324 -0.5 -78 83 0.0899963378906 140.289993286 rrcurveto
          382.259994507 vlineto
          1.05000305176 24.7200012207 20.7200012207 22.7299957275 30.9600067139 0.0200042724609 rrcurveto
          -43 callsubr
          -343.11000061 -10 16 hlineto
          29.1799926758 0.0200042724609 23.4400024414 -20.7599945068 0.539993286133 -28.7599945068 rrcurveto
          -384.899993896 vlineto
          -3.07000732422 -158.949996948 124.529998779 -104.63999939 211.619995117 -6 -40.0399932861 -10 -36.4499969482 -27 -7.25 -51 -50 callsubr
          -6 6 rcurveline
          1 callsubr
          13 32 54.5800018311 12 -1 1 rcurveline
          181.199996948 13.2299957275 93.9499969482 94.25 2.74000549316 161.86000061 rrcurveto
          372.63999939 vlineto
          0.0399932861328 160.020004272 59.8000030518 105.240005493 122.119995117 16.1600036621 rrcurveto
          10 vlineto
          -165.220001221 18.7299957275 -103.380004883 -150.130004883 -160.020004272 vvcurveto
          endchar
        </CharString>
        <CharString name="Uring">
          104 499.850006104 941.630004883 rmoveto
          -68.0399932861 -51.0299987793 -38.2700042725 -51.0299987793 -51.0299987793 50.5599975586 -38.2700042725 67.4199981689 67.3899993896 50.5599975586 39.2200012207 52.2799987793 49.7700042725 -50.0800018311 37.3300018311 -66.8000030518 hvcurveto
          189.490005493 -694.229995728 -101 callsubr
          -190.589996338 281.88999939 rmoveto
          29.6100006104 22.2100067139 -25.5099945068 -34.0299987793 -33.3800048828 -22.2100067139 -25.0399932861 -29.6000061035 -28.9900054932 -21.7299957275 25.0399932861 33.3999938965 34.0099945068 21.7400054932 25.5099945068 28.9799957275 hvcurveto
          endchar
        </CharString>
        <CharString name="V">
          -28 435.13999939 283.990005493 rmoveto
          -47 callsubr
          261.169998169 571.770004272 rcurveline
          29.4199981689 64.4100036621 76.5800018311 164.149993896 163.320007324 12.0299987793 rrcurveto
          10 vlineto
          -212.960006714 28 -104.419998169 -202.660003662 -32.9900054932 -75.9299926758 rrcurveto
          endchar
        </CharString>
        <CharString name="W">
          216 752.289993286 349.210006714 rmoveto
          -197.979995728 366.11000061 -9.30999755859 0.320007324219 -172.949996948 -359.779998779 -109.490005493 272.520004272 rlineto
          39.4700012207 -13.9100036621 26.0299987793 22.2299957275 25.6300048828 hhcurveto
          8.78999328613 9.91000366211 -359.11000061 -10 8 hlineto
          30 36.5500030518 -16.3800048828 -40.3300018311 19.1100006104 hvcurveto
          203.130004883 -538.770004272 -30.8699951172 -68.0800018311 -79.1199951172 -172.440002441 -135.919998169 -24 rlinecurve
          -10 vlineto
          153.36000061 -40 112.080001831 182 34.1799926758 70.4600067139 185.080001831 379.979995728 rcurveline
          230.529998779 -434.429992676 rlineto
          9.44000244141 hlineto
          62.3399963379 14.8600006104 48.8099975586 0 vhcurveto
          185.309997559 605.059997559 35 114.270004272 74.0099945068 114.289993286 163.320007324 12.0299987793 rlinecurve
          10 vlineto
          -212.960006714 28 -102.25 -151.419998169 -35.1600036621 -127.169998169 rrcurveto
          endchar
        </CharString>
        <CharString name="Wacute">
          -95 callgsubr
          -314.369995117 66.7799987793 -40 callgsubr
        </CharString>
        <CharString name="Wcircumflex">
          -95 callgsubr
          -304.619995117 237.539993286 -89 callgsubr
          endchar
        </CharString>
        <CharString name="Wdieresis">
          -95 callgsubr
          -432.210006714 61.2700042725 -105 callsubr
          endchar
        </CharString>
        <CharString name="Wgrave">
          -95 callgsubr
          -270.460006714 76.6900024414 -98 callgsubr
          endchar
        </CharString>
        <CharString name="X">
          25 701.470001221 699.979995728 rmoveto
          44.9100036621 67 59.7799987793 87.1000061035 82.3399963379 2.05000305176 rrcurveto
          10 vlineto
          -125.669998169 14.6199951172 -102.809997559 -96.9299926758 -55.5399932861 -83.8300018311 -162.529998779 -245.309997559 rcurveline
          -113.440002441 173.440002441 -39 callgsubr
          -248.080001831 -338.710006714 -57.6600036621 -79.0399932861 -40 -48 -107 -13 rlinecurve
          -10 vlineto
          101 -20 103.160003662 34 97.9900054932 136.039993286 194.660003662 271.029998779 rcurveline
          129.910003662 -199.490005493 -19 callsubr
          -0.169998168945 10 rlineto
          -9 callsubr
          rlineto
          endchar
        </CharString>
        <CharString name="Y">
          -49 -85 749 -94 callsubr
        </CharString>
        <CharString name="Yacute">
          -49 347.86000061 761 -107 callsubr
          -425.86000061 -19 -94 callsubr
        </CharString>
        <CharString name="Ycircumflex">
          -49 357.61000061 931.759994507 -89 callgsubr
          -273.740005493 -7.33999633789 -94 callsubr
        </CharString>
        <CharString name="Ydieresis">
          -49 230.020004272 755.490005493 -105 callsubr
          -577.61000061 -6.49000549316 -94 callsubr
        </CharString>
        <CharString name="Ygrave">
          -49 391.770004272 770.910003662 -98 callgsubr
          -469.770004272 -14.9100036621 -94 callsubr
        </CharString>
        <CharString name="Z">
          -89 1086.8500061 -120 rmoveto
          -180.470001221 -68 -302.270004272 121 -340.729995728 75.5399932861 357.199996948 696.789993286 rcurveline
          -92 callgsubr
          80.4100036621 -58 callsubr
          -9.24000549316 317.429992676 -0.0800018310547 458.949996948 -471 283.470001221 344 rlinecurve
          endchar
        </CharString>
        <CharString name="Zacute">
          -89 318 761 -107 callsubr
          775.850006104 -888 rmoveto
          -180.470001221 -68 -302.270004272 121 -340.729995728 75.5399932861 357.199996948 696.789993286 rcurveline
          -92 callgsubr
          80.4100036621 -58 callsubr
          -9.24000549316 317.429992676 -0.0800018310547 458.949996948 -471 283.470001221 344 rlinecurve
          endchar
        </CharString>
        <CharString name="Zcaron">
          -89 341.830001831 763.979995728 -91 callsubr
          585.720001221 -1059.3999939 rmoveto
          -180.470001221 -68 -302.270004272 121 -340.729995728 75.5399932861 357.199996948 696.789993286 rcurveline
          -92 callgsubr
          80.4100036621 -58 callsubr
          -9.24000549316 317.429992676 -0.0800018310547 458.949996948 -471 283.470001221 344 rlinecurve
          endchar
        </CharString>
        <CharString name="Zdotaccent">
          -89 335 -88 callgsubr
          751.850006104 -884 rmoveto
          -180.470001221 -68 -302.270004272 121 -340.729995728 75.5399932861 357.199996948 696.789993286 rcurveline
          -92 callgsubr
          80.4100036621 -58 callsubr
          -9.24000549316 317.429992676 -0.0800018310547 458.949996948 -471 283.470001221 344 rlinecurve
          endchar
        </CharString>
        <CharString name="a">
          -28 351.410003662 724 -103 callsubr
        </CharString>
        <CharString name="aacute">
          -28 333.279998779 761 -107 callsubr
          25.1300048828 -44 -103 callsubr
        </CharString>
        <CharString name="abreve">
          -28 477.070007324 927.649993896 -44 callgsubr
          -12.7200012207 -58 callgsubr
          -138.369995117 -203.649993896 -103 callsubr
        </CharString>
        <CharString name="acircumflex">
          -28 343.029998779 931.759994507 -89 callgsubr
          177.25 -32.3399963379 -103 callsubr
        </CharString>
        <CharString name="acute">
          210.669998169 742.970001221 -40 callgsubr
        </CharString>
        <CharString name="adieresis">
          -28 215.440002441 755.490005493 -105 callsubr
          -126.619995117 -31.4900054932 -103 callsubr
        </CharString>
        <CharString name="ae">
          266 991.419998169 -48 callgsubr
          -113.300003052 266.630004883 103.899993896 -42 callgsubr
          -102.350006104 282.190002441 134.86000061 -91 callgsubr
          -394.600006104 -10 5 hlineto
          25.2299957275 14.2899932861 -22.0899963379 -27.1199951172 -17.8399963379 hvcurveto
          -391.039993286 -569.800003052 rlineto
          -43.0899963379 -30.5899963379 -26.1300048828 -17.8999938965 -29.4600067139 hhcurveto
          -9 -10 237.970001221 9.91000366211 -8.78999328613 hlineto
          -36 callgsubr
          -37.1799926758 22.7599945068 40.0200042725 24.6000061035 hvcurveto
          151.470001221 244.539993286 rlineto
          156.300003052 -258.86000061 hlineto
          -26.8000030518 -0.509994506836 -5 callgsubr
          556.710006714 -42 callsubr
          -661.179992676 135.679992676 rmoveto
          125.320007324 202.259994507 rlineto
          -202.259994507 vlineto
          endchar
        </CharString>
        <CharString name="agrave">
          -28 377.190002441 770.910003662 -98 callgsubr
          -18.7700042725 -39.9100036621 -103 callsubr
        </CharString>
        <CharString name="amacron">
          -28 208.100006104 -29 callgsubr
          143.309997559 -156.36000061 -103 callsubr
        </CharString>
        <CharString name="ampersand">
          170 1218.22000122 -119 rmoveto
          -201.220001221 19 -121 117 -134 118 -7.47999572754 6.28999328613 rcurveline
          151.479995728 171.460006714 7.58999633789 280.63999939 -279.529998779 192.839996338 -7 -6 rcurveline
          265.729995728 -203.229995728 -45.9499969482 -249.190002441 -138.229995728 -148.460006714 -50.8300018311 42.1199951172 -76.3899993896 63.3699951172 -54.3899993896 46.1699981689 rrcurveto
          -110 94 -66 63 75 vvcurveto
          59 41 42 61 94 21 -98 -86.0500030518 1 vhcurveto
          9.13000488281 hlineto
          47.25 163.199996948 rlineto
          50.8500061035 -33.3800048828 -97 20 -85 hhcurveto
          -127 -142 -45 -137 -46.5800018311 16.4799957275 -45.4199981689 26.6600036621 -43.4199981689 hvcurveto
          -74.1000061035 -20.75 -85.0399932861 -55.4600067139 -105.369995117 vvcurveto
          -194 287 -31 101 65.1900024414 61.0500030518 13.0399932861 23.1199951172 54.75 vhcurveto
          98.0099945068 -77.1600036621 156 -123 203 -22 167.929992676 66 rlinecurve
          -677.550003052 197.589996338 rmoveto
          -11.4100036621 -32.6900024414 -33.2599945068 -6.17999267578 -32.4199981689 hhcurveto
          -95 -102 53 141 -8 hvcurveto
          -1.61999511719 30.3099975586 3.36000061035 23.7200012207 5.75999450684 18.6300048828 36.4900054932 -39.9400024414 42.5099945068 -37.4900054932 42.5099945068 -34.2299957275 rrcurveto
          endchar
        </CharString>
        <CharString name="aogonek">
          -28 351.410003662 714 rmoveto
          -9.00999450684 hlineto
          -4 -33.7200012207 -41.3000030518 -90.3600006104 -11.75 -25.0599975586 -228.830001831 -492.199996948 rcurveline
          -44.3000030518 -21.2400054932 -36.3000030518 -18.3699951172 -30 hhcurveto
          -9 -10 223.279998779 9.91000366211 -8.78999328613 hlineto
          -25.5 -29.7599945068 22.2100067139 39.1199951172 16.25 hvcurveto
          42.0599975586 94.7700042725 rlineto
          210.729995728 hlineto
          41.4400024414 -97.0099945068 14.1399993896 -37.2799987793 -2.55999755859 -18.1900024414 -20.2799987793 -13.5200042725 rlinecurve
          -33 -22 -29 -15 -8 -47 -23 -136 220 -37 7.39999389648 136 -6 6 rcurveline
          -48.3999938965 -40 -59 22 -5 60 -3 31 14 30 53 12 73 17 160 -16 26.2599945068 -1 rrcurveto
          10.3800048828 vlineto
          -8.36000061035 1.61999511719 -30.6499938965 6 -35.0099945068 10.4600067139 -22.2100067139 44.5500030518 rlinecurve
          -464.309997559 142.990005493 rmoveto
          85.1799926758 191.929992676 82 -191.929992676 rlineto
          endchar
        </CharString>
        <CharString name="approxequal">
          -266 67.8000030518 329.679992676 -45 callsubr
          47.8000030518 -213.36000061 -45 callsubr
          endchar
        </CharString>
        <CharString name="aring">
          -28 350.130004883 941.630004883 -82 callgsubr
          2.38000488281 -187.86000061 -103 callsubr
        </CharString>
        <CharString name="asciicircum">
          -176 253.339996338 380.63999939 rmoveto
          68.0500030518 hlineto
          216.300003052 -208.75 rlineto
          -88.75 hlineto
          -161.630004883 153.25 -163.440002441 -153.25 rlineto
          -88.8800048828 hlineto
          endchar
        </CharString>
        <CharString name="asciitilde">
          -254 393.38999939 362.649993896 rmoveto
          27.7700042725 -60.8800048828 -35.8300018311 -34.2899932861 -39.3399963379 1.2200012207 -47.3399963379 1.46000671387 -83.6100006104 98.8999938965 -74.9199981689 -1.41999816895 -67.3999938965 -1.2799987793 -64.0099945068 -53.2200012207 23.1199951172 -104.449996948 rrcurveto
          65.4100036621 hlineto
          -16.0399932861 69.9799957275 25.3300018311 25.5500030518 33.3099975586 -1.57000732422 rrcurveto
          -2.58000183105 54.8800048828 76.9299926758 -96.3800048828 74.0299987793 hhcurveto
          71.3000030518 73.9499969482 50.3800048828 108.570007324 -30.1300048828 hvcurveto
          endchar
        </CharString>
        <CharString name="asterisk">
          -358 202.270004272 605.220001221 rmoveto
          72.1799926758 -14.2100067139 81.2400054932 13.1499938965 -3.05999755859 54.7299957275 -29.6900024414 46.0800018311 -73.2100067139 -37.8699951172 -49.8500061035 -53.6300048828 35.6300048828 64.0399932861 12.6000061035 81.3300018311 -53 14 -53 -14 13.3999938965 -81.3300018311 35.5800018311 -63.9400024414 -49.8800048828 53.6399993896 -73.4499969482 37.1199951172 -29.6900024414 -46.0800018311 -3.05999755859 -54.7299957275 81.4900054932 -12.3899993896 71.8600006104 14.0899963379 -66.5 -30.8500061035 -58 -58.3899993896 7 callgsubr
          -42.4799957275 51.1100006104 -19.8300018311 36.9600067139 73.6699981689 rlineto
          8.83000183105 72.8800048828 8.82000732422 -72.9600067139 37.6100006104 -73.1999969482 51.1100006104 19.8300018311 7 callgsubr
          42.4799957275 -58.6399993896 57.9199981689 rlineto
          endchar
        </CharString>
        <CharString name="at">
          250 507.309997559 189.960006714 rmoveto
          8.10000610352 -53.0200042725 rlineto
          -29.8600006104 4.58999633789 -29.4400024414 -16.9700012207 -16.6000061035 hhcurveto
          -6.96000671387 hlineto
          -1.30000305176 -7.38999938965 rlineto
          238.669998169 hlineto
          1.32000732422 7.46000671387 rlineto
          -5.11000061035 hlineto
          -19.7100067139 -13.4499969482 13.7799987793 33.2400054932 -6.77000427246 hvcurveto
          -83.4100036621 403.699996948 rlineto
          -6.7200012207 hlineto
          -8.38000488281 -19.5200042725 -46.3500061035 -57.3399963379 0 vvcurveto
          -127.039993286 -173.050003052 -50.9400024414 -64 -60 -112 -73 3 rlinecurve
          -80 3 16 141 61 128 103 218 181 66 139 -32 135 -31 69 -118 -10 -172 -18 -310 -261 -201 -335.970001221 137 4 -10 rcurveline
          454.970001221 -184 303 254 8 307 5 189 -110 152 -238 33 -257 35 -243 -125 -84 -203 -75.8000030518 -183 95.8000030518 -146 138 7 61.5200042725 3.08000183105 42.0099945068 32.6499938965 62.9100036621 81.2400054932 rrcurveto
          112.229995728 155.990005493 rmoveto
          18.4799957275 -120.86000061 rlineto
          -104.330001831 hlineto
          endchar
        </CharString>
        <CharString name="atilde">
          -28 557.669998169 919.279998779 -96 callgsubr
          -193.910003662 -195.289993286 -103 callsubr
        </CharString>
        <CharString name="b">
          -18 30 700 rmoveto
          -19 callgsubr
          2 callgsubr
          hlineto
          34.5500030518 -25 callsubr
          28.2299957275 -27.6199951172 1.07000732422 -34.4600067139 rrcurveto
          -555.789993286 vlineto
          -34.5299987793 -1 -28.2599945068 -27.6999969482 -34.7799987793 hhcurveto
          -12.6499938965 -74 callgsubr
          -10 rlineto
          363.649993896 hlineto
          182.350006104 131 61 138.869995117 -0.440002441406 hvcurveto
          0.440002441406 111.130004883 -84 65 -97.8000030518 4.85000610352 66.8000030518 2.14999389648 64 47 0.0399932861328 96.1000061035 rrcurveto
          136.899993896 -129 37 -148.550003052 vhcurveto
          -66.4799957275 -648.529998779 rmoveto
          598.36000061 12.8600006104 vlineto
          65.1699981689 0.179992675781 51 -33 0.0399932861328 -106.929992676 -0.0399932861328 -83.0700073242 -31 -48 -64.3300018311 0.220001220703 12 callgsubr
          -9.41000366211 rcurveline
          84.1000061035 0.190002441406 42 -59 -0.440002441406 -95.6100006104 0.440002441406 -121.38999939 -67 -43 -80.1699981689 0.470001220703 rrcurveto
          endchar
        </CharString>
        <CharString name="backslash">
          -309 10 696.5 rmoveto
          360.940002441 -710.5 58.6600036621 28.0800018311 -360.509994507 708.919998169 rlineto
          endchar
        </CharString>
        <CharString name="bar">
          16 callsubr
          -180 rmoveto
          65 880 -65 hlineto
          endchar
        </CharString>
        <CharString name="braceleft">
          -303 7.89999389648 461.419998169 rmoveto
          13.1000061035 -79.4199981689 53 -25 42 22 56 29 -22 88 -1 68 -4 244 233 48 117.690002441 -87.8500061035 -4.9700012207 -7.46000671387 rcurveline
          -151.720001221 39.3099975586 24 -114 -9 -115 -13 -169 -73 -46 -107 -14 -54 -7 -90 -6 -16.8699951172 129.399993896 rrcurveto
          495.559997559 -596.399993896 rmoveto
          -117.690002441 -88 -233 48 4 243.660003662 1 68 22 88 -56 29 -42 22 -53 -25 -13.1000061035 -79.4199981689 -7.77000427246 3.00999450684 rcurveline
          16.8699951172 129.399993896 90 -6 54 -7 107 -14 73 -46 13 -169 9 -114.660003662 -24 -114 151.720001221 39 rrcurveto
          endchar
        </CharString>
        <CharString name="braceright">
          -303 -50 768.149993896 rmoveto
          117.690002441 87.8500061035 233 -48 -4 -244 -1 -68 -22 -88 56 -29 42 -22 53 25 13.1000061035 79.4199981689 7.77000427246 -3.00999450684 rcurveline
          -16.8699951172 -129.399993896 -90 6 -54 7 -107 14 -73 46 -13 169 -9 115 24 114 -151.690002441 -39.3099975586 rrcurveto
          482.789993286 -592.449996948 rmoveto
          -13.1000061035 79.4199981689 -53 25 -42 -22 -56 -29 22 -88 1 -68 4 -243.660003662 -233 -48 -117.690002441 88 5 7 rcurveline
          151.690002441 -39 -24 114 9 114.660003662 13 169 73 46 107 14 54 7 90 6 16.8699951172 -129.399993896 rrcurveto
          endchar
        </CharString>
        <CharString name="bracketleft">
          -276 120 -90 rmoveto
          312.490005493 10 hlineto
          -107.490005493 50 rlineto
          692 vlineto
          104.179992676 50 rlineto
          10 -309.179992676 vlineto
          endchar
        </CharString>
        <CharString name="bracketright">
          -386 43.3099975586 722 rmoveto
          -10 vlineto
          104.179992676 -50 rlineto
          -692 vlineto
          -107.490005493 -50 rlineto
          -10 312.490005493 812 vlineto
          endchar
        </CharString>
        <CharString name="breve">
          346.990005493 873.729995728 -44 callgsubr
          -12.7100067139 -58 callgsubr
          endchar
        </CharString>
        <CharString name="brokenbar">
          16 callsubr
          350 rmoveto
          65 350 -65 hlineto
          -880 vmoveto
          65 350 -65 hlineto
          endchar
        </CharString>
        <CharString name="bullet">
          -359 214.710006714 181.589996338 rmoveto
          84.2700042725 28.0500030518 8.39999389648 7.83000183105 27.6499938965 82.7400054932 5.41000366211 16.3200073242 0.220001220703 11.7299957275 -4.78999328613 14.5200042725 -28.3200073242 85.0700073242 -7.7200012207 7.71000671387 -85.1100006104 28.3300018311 -14.3500061035 4.80999755859 -11.2700042725 0 -14.3999938965 -4.83000183105 -85.0700073242 -28.3200073242 -7.71000671387 -7.7200012207 -28.3300018311 -85.1100006104 -4.7799987793 -14.4799957275 0.00999450683594 -11.0299987793 4.78999328613 -14.5200042725 28.3200073242 -85.0700073242 7.7200012207 -7.71000671387 85.1100006104 -28.3300018311 rrcurveto
          14.3500061035 -4.80999755859 11.25 0 14.3500061035 4.80999755859 rrcurveto
          -10.7100067139 75.3000030518 rmoveto
          -6.69999694824 -2.25 -5.25 0 -6.69999694824 2.24000549316 -39.7100067139 13.2100067139 -3.60000610352 15 callgsubr
          -13.2100067139 39.6900024414 -2.24000549316 6.7799987793 0 5.13999938965 2.22999572754 6.75 13.2200012207 39.7100067139 15 callgsubr
          15 callgsubr
          39.6900024414 13.2100067139 6.7200012207 2.25 5.25999450684 0 6.69999694824 -2.24000549316 39.7100067139 -13.2200012207 15 callgsubr
          -3.60000610352 13.2100067139 -39.6900024414 2.24000549316 -6.7799987793 -0.100006103516 -5.4700012207 -2.52000427246 -7.61000061035 rrcurveto
          -12.8999938965 -38.6000061035 -3.91999816895 -3.64999389648 -39.3099975586 -13.0899963379 rrcurveto
          endchar
        </CharString>
        <CharString name="c">
          45 721.009994507 291.850006104 -84 callgsubr
        </CharString>
        <CharString name="cacute">
          45 419 761 -107 callsubr
          309.009994507 -476.149993896 -84 callgsubr
        </CharString>
        <CharString name="caron">
          291.770004272 670.550003052 -91 callsubr
          endchar
        </CharString>
        <CharString name="ccaron">
          45 442.830001831 763.970001221 -91 callsubr
          118.880004883 -647.550003052 -84 callgsubr
        </CharString>
        <CharString name="ccedilla">
          45 729.330001831 291.88999939 rmoveto
          -8.32000732422 hlineto
          -191.339996338 -36.5700073242 -50.7599945068 -64.5800018311 -161.550003052 hhcurveto
          -136.479995728 3.94000244141 -80.6499938965 118.13999939 195.990005493 vvcurveto
          194.839996338 87.1600036621 115.169998169 147.5 vhcurveto
          103.330001831 -0.0700073242188 78 -46 40.3800048828 -140.740005493 rrcurveto
          8.32000732422 hlineto
          9.82000732422 191.240005493 rlineto
          23.5299987793 -55.5299987793 -89 22 -112 hhcurveto
          -276 -162 -135 -228 -212.089996338 139.190002441 -127.570007324 227.949996948 -22.3399963379 hvcurveto
          -47.1999969482 -60 -81 callgsubr
          37.8000030518 43 rcurveline
          11.7299957275 hlineto
          158.86000061 82.4499969482 57.8000030518 66.1399993896 39.6999969482 hvcurveto
          endchar
        </CharString>
        <CharString name="cdotaccent">
          45 436 -88 callgsubr
          285.009994507 -472.149993896 -84 callgsubr
        </CharString>
        <CharString name="cedilla">
          216.520004272 -62 rmoveto
          -81 callgsubr
          42.3800048828 48.7799987793 rcurveline
          -61.2700042725 hlineto
          endchar
        </CharString>
        <CharString name="cent">
          -170 534.169998169 304.229995728 rmoveto
          -6.11000061035 hlineto
          -27.9700012207 -134.449996948 -24.7700042725 -44.9400024414 -107.580001831 -3.52000427246 36.9700012207 449.580001831 rcurveline
          50.8600006104 -9.07000732422 43.3000030518 -33.1900024414 25.8000030518 -89.6499938965 rrcurveto
          6.11000061035 hlineto
          11.0899963379 147.100006104 -28.4700012207 11.5099945068 -47.0299987793 12.1600036621 -58.0700073242 4.91000366211 rlinecurve
          6.99000549316 85 -47.5200042725 1.05000305176 -6.72999572754 -83.8300018311 rlineto
          -217.990005493 0.100006103516 -128.039993286 -97.0500030518 -171.949996948 vvcurveto
          -160.059997559 115.25 -97.1199951172 187.589996338 -11.6799926758 vhcurveto
          -6.83999633789 -85.1399993896 46.0200042725 -3 7.16000366211 87.0700073242 111.929992676 2.46000671387 54.9799957275 41.5299987793 25.7299957275 44.1399993896 rlinecurve
          -235.259994507 -40.8800048828 rmoveto
          -80.2599945068 18.9100036621 -40.2299957275 79.7400054932 0.419998168945 127.509994507 -0.460006713867 135.910003662 45.8300018311 81.1699981689 110.699996948 4.92999267578 rrcurveto
          endchar
        </CharString>
        <CharString name="circumflex">
          270.179992676 844.070007324 -89 callgsubr
          endchar
        </CharString>
        <CharString name="colon">
          -498 125 368.509994507 -64 callsubr
          -382.509994507 vmoveto
          -36 callsubr
        </CharString>
        <CharString name="comma">
          -488 44.6900024414 -129 -17 callgsubr
          -36.0899963379 -16 rrcurveto
          endchar
        </CharString>
        <CharString name="commaaccentcomb">
          -748 36.8800048828 -209 -56 callgsubr
        </CharString>
        <CharString name="copyright">
          100 424 714 rmoveto
          -201.029998779 -162.970001221 -162.970001221 -201.029998779 -201.029998779 162.970001221 -162.970001221 201.029998779 201.029998779 162.970001221 162.970001221 201.029998779 201.029998779 -162.970001221 162.970001221 -201.029998779 hvcurveto
          -52.1699981689 vmoveto
          172 10 callgsubr
          140 -140 5 callgsubr
          -172 10 callgsubr
          -172 -140 -140 -172 10 callgsubr
          -172 5 callgsubr
          -140 140 10 callgsubr
          172 5 callgsubr
          172 140 140 172 5 callgsubr
          rrcurveto
          186.080001831 -336.050003052 rmoveto
          -101.779998779 -16.0800018311 -60 -55 -89 hhcurveto
          -78.0099945068 -45.9900054932 67.2200012207 113.75 0.179992675781 hvcurveto
          -0.179992675781 114.240005493 44.7799987793 67.5700073242 75.9600067139 0.110000610352 79.2599945068 0.110000610352 51 -45 33.4400024414 -77.2200012207 rrcurveto
          5.91000366211 hlineto
          5.66000366211 120.369995117 -49.0200042725 27.8600006104 -74 15 -57.9700012207 0.149993896484 rlinecurve
          -145.029998779 -0.149993896484 -106 -95 0.00999450683594 -127.570007324 -0.00999450683594 -126.429992676 105 -96 143.960006714 -1.14999389648 rrcurveto
          88.8999938965 68.0899963379 34.8200073242 56.8099975586 48.5099945068 hvcurveto
          -23.4700012207 107.330001831 rlineto
          endchar
        </CharString>
        <CharString name="currency">
          -207 491.699996948 153.649993896 rmoveto
          -60.2700042725 60.2700042725 68.1799926758 79.8500061035 -0.380004882812 118.320007324 -68.9400024414 79.4199981689 rlinecurve
          61.4100036621 61.4100036621 -21.2100067139 21.2100067139 -61.3899993896 -61.3899993896 -79.4299926758 69.2400054932 -118.539993286 0.479995727539 -79.9600067139 -68.2799987793 rlinecurve
          -59.9499969482 59.9499969482 -21.2100067139 -21.2100067139 59.7599945068 -59.7599945068 -70.8699951172 -79.9799957275 -0.380004882812 -120.509994507 70.1000061035 -80.4199981689 rlinecurve
          -58.6100006104 -58.6000061035 21.2100067139 -21.2100067139 58.6300048828 58.6300048828 80.4199981689 -69.8099975586 120.289993286 0.479995727539 79.8699951172 70.7700042725 rlinecurve
          60.0700073242 -60.0700073242 rlineto
          -330.580001831 90.2100067139 rmoveto
          -7 callsubr
          6 callsubr
          0 115.869995117 6 callsubr
          6 callsubr
          6 callsubr
          6 callsubr
          115.869995117 0 6 callsubr
          -7 callsubr
          6 callsubr
          -7 callsubr
          0 -115.869995117 -7 callsubr
          -7 callsubr
          -7 callsubr
          -7 callsubr
          -115.869995117 0 -7 callsubr
          6 callsubr
          rrcurveto
          endchar
        </CharString>
        <CharString name="d">
          94 30.3500061035 699.970001221 -76 callsubr
        </CharString>
        <CharString name="dagger">
          -271 458 438.410003662 rmoveto
          -47 callgsubr
          3 callsubr
          -42.6600036621 -216.130004883 82.4700012207 -335.080001831 rlineto
          10 hlineto
          82.5299987793 335.080001831 -42.3399963379 216.130004883 -6 callsubr
          rlineto
          endchar
        </CharString>
        <CharString name="daggerdbl">
          -270 434.63999939 182.320007324 rmoveto
          -124.630004883 -42.3800048828 -65.3699951172 -40.0800018311 40.1199951172 62.3200073242 42.0599975586 104.520004272 -42.9400024414 104.520004272 -6 callsubr
          24 87.3399963379 -47 callgsubr
          rlineto
          3 callsubr
          -42.0599975586 -104.520004272 42.9400024414 -104.520004272 40.4900054932 -62.4799957275 -64.8600006104 40.1799926758 -125.75 42.4400024414 -24 -87.3399963379 24 -87.6600036621 125.75 42.5599975586 64.5599975586 39.9900054932 -40.1900024414 -61.9199981689 -42.3099975586 -184.949996948 86.3600006104 -24 88.6399993896 24 -42.6900024414 184.949996948 -39.8099975586 61.8999938965 65.0599975586 -39.9199981689 124.630004883 -42.6199951172 24 87.6600036621 rlineto
          endchar
        </CharString>
        <CharString name="dcaron">
          94 428.059997559 763.979995728 -91 callsubr
          -557.020004272 -239.419998169 -76 callsubr
        </CharString>
        <CharString name="dcroat">
          94 279.059997559 -29 callgsubr
          -248.710006714 -180.38999939 -76 callsubr
        </CharString>
        <CharString name="degree">
          -511 118.539993286 664.350006104 rmoveto
          -54.4199981689 -44.1199951172 -44.1199951172 -54.4199981689 -54.4199981689 44.1199951172 -44.1199951172 54.4199981689 54.4199981689 44.1199951172 44.1199951172 54.4199981689 54.4199981689 -44.1199951172 44.1199951172 -54.4199981689 hvcurveto
          -58.4600067139 vmoveto
          22.4400024414 17.6300048828 2 callsubr
          2 callsubr
          17.6300048828 22.4400024414 22.4400024414 17.6300048828 17.6300048828 22.4400024414 hvcurveto
          endchar
        </CharString>
        <CharString name="dieresis">
          149.199996948 665.490005493 -105 callsubr
          endchar
        </CharString>
        <CharString name="divide">
          -267 240.5 416.070007324 -34 callsubr
          -200.5 -138.820007324 rmoveto
          -24 callsubr
          200.5 -242.229995728 -34 callsubr
          endchar
        </CharString>
        <CharString name="dollar">
          -133 357.020004272 456.850006104 rmoveto
          15.7799987793 205.190002441 79.3200073242 -9.91000366211 46.9600067139 -46.5599975586 0.360000610352 -64.5200042725 rlinecurve
          -30 callgsubr
          -77.8099975586 hlineto
          -23.8999938965 2.38000488281 -26.7400054932 2.16000366211 -25.6999969482 1.7200012207 5.91000366211 76.9400024414 rcurveline
          -48.5200042725 1.05000305176 -5.75 -75.2299957275 rlineto
          0.800003051758 -17.4100036621 -15.2799987793 0.449996948242 -11.3999938965 hhcurveto
          -134 -85 -63 -116 -14 hvcurveto
          -12 -95 43 -78 91.5700073242 -42.3899993896 120.240005493 -55.5399932861 rcurveline
          -17.3399963379 -226.929992676 -124.589996338 11.2400054932 -73.4499969482 93.1799926758 6.2799987793 98.4900054932 rlinecurve
          -8.78999328613 hlineto
          -33.2299957275 -42.8399963379 -20.7799987793 -97.6999969482 22.4499969482 -48.8699951172 33.8000030518 -34.7700042725 82.6799926758 -28.8699951172 111.720001221 -1 -6.5 -85 rcurveline
          47.9700012207 -3 6.86000061035 89 165.220001221 10 99.6199951172 76.3500061035 9.2799987793 132.649993896 rlinecurve
          -40 callsubr
          -186.899993896 86.3099975586 -1 callsubr
          22.4700012207 -43 23 4 48 3.74000549316 45.8000030518 43.9199981689 33.5700073242 72.6699981689 4.19000244141 -14.1499938965 -185.100006104 rcurveline
          30.3200073242 -235.990005493 rmoveto
          73.5099945068 -34.6100006104 28.9799957275 -32.5800018311 -0.100006103516 -40.8099975586 0.0899963378906 -47.2299957275 -37.8800048828 -43.4600067139 -80.4100036621 -6.85000610352 rrcurveto
          endchar
        </CharString>
        <CharString name="dotaccent">
          293.919998169 665.490005493 -104 callsubr
          endchar
        </CharString>
        <CharString name="dotlessi">
          -330 388.630004883 -22 callsubr
          554.949996948 -100 callgsubr
          358.789993286 hlineto
          endchar
        </CharString>
        <CharString name="e">
          -82 642.839996338 231.539993286 rmoveto
          -106 callgsubr
          584.559997559 -33 callsubr
        </CharString>
        <CharString name="eacute">
          -82 322.039993286 761 -107 callsubr
          327.809997559 -536.460006714 rmoveto
          -106 callgsubr
          584.559997559 -33 callsubr
        </CharString>
        <CharString name="ecaron">
          -82 345.86000061 763.970001221 -91 callsubr
          137.679992676 -707.850006104 rmoveto
          -106 callgsubr
          584.559997559 -33 callsubr
        </CharString>
        <CharString name="ecircumflex">
          -82 331.789993286 931.759994507 -89 callgsubr
          479.919998169 -524.789993286 rmoveto
          -106 callgsubr
          584.559997559 -33 callsubr
        </CharString>
        <CharString name="edieresis">
          -82 204.199996948 755.490005493 -105 callsubr
          176.050003052 -523.940002441 rmoveto
          -106 callgsubr
          584.559997559 -33 callsubr
        </CharString>
        <CharString name="edotaccent">
          -82 339.039993286 -88 callgsubr
          303.809997559 -532.460006714 rmoveto
          -106 callgsubr
          584.559997559 -33 callsubr
        </CharString>
        <CharString name="egrave">
          -82 365.949996948 770.910003662 -98 callgsubr
          283.899993896 -532.36000061 rmoveto
          -106 callgsubr
          584.559997559 -33 callsubr
        </CharString>
        <CharString name="eight">
          -112 429.850006104 410.419998169 rmoveto
          70.1499938965 16.5200042725 61.8300018311 44.4299926758 72.7400054932 vvcurveto
          101.490005493 -116.320007324 68.3899993896 -131.5 -139.240005493 -106.600006104 -76.3699951172 -132.86000061 -84.2299957275 42.5399932861 -55.4700012207 49.6499938965 -38.8099975586 vhcurveto
          -63.75 -22.2599945068 -71.4299926758 -47.5099945068 -97.1199951172 vvcurveto
          -141.160003662 147.61000061 -32.1999969482 125.520004272 188.070007324 124.449996948 73.4499969482 140.86000061 110.690002441 -76.6100006104 44.8300018311 -104.369995117 54.6000061035 vhcurveto
          -118.850006104 252.570007324 rmoveto
          55.0299987793 -3 27.4900054932 -44 2.47999572754 -55 1.50999450684 -33.4499969482 -6.52000427246 -51.5 -18.6799926758 -35.4199981689 rrcurveto
          -107.25 57.3899993896 -32.5399932861 26.6999969482 54.1399993896 vvcurveto
          49.5700073242 28.9100036621 37.2700042725 49.5700073242 -2.69999694824 vhcurveto
          -5 -627 rmoveto
          -69.7899932861 6.77000427246 -42.3000030518 53.0299987793 93.2799987793 vvcurveto
          41.1199951172 8.36000061035 33.1499938965 14.5599975586 25.9100036621 vhcurveto
          18.8899993896 -10.6000061035 18.0200042725 -8.86999511719 15.2599945068 -7.78999328613 rrcurveto
          122.13999939 -62.3899993896 35.3800048828 -35.8999938965 -43.2400054932 vvcurveto
          -53.6999969482 -55.7599945068 -37.0500030518 -64.75 6.2799987793 vhcurveto
          endchar
        </CharString>
        <CharString name="ellipsis">
          -8 125 -14 -64 callsubr
          245 hmoveto
          -84 callsubr
          245 hmoveto
          -36 callsubr
        </CharString>
        <CharString name="emacron">
          -82 196.86000061 -29 callgsubr
          445.990005493 -648.820007324 rmoveto
          -106 callgsubr
          584.559997559 -33 callsubr
        </CharString>
        <CharString name="emdash">
          52 261 60 hstem
          0 800 vstem
          261 vmoveto
          800 60 -800 hlineto
          endchar
        </CharString>
        <CharString name="endash">
          -248 261 60 hstem
          0 500 vstem
          261 vmoveto
          500 60 -500 hlineto
          endchar
        </CharString>
        <CharString name="eng">
          143 505.229995728 700.020004272 -60 callsubr
          -349.029998779 vlineto
          -487.919998169 433.880004883 -10.5200042725 0.710006713867 rlineto
          -43 callgsubr
          -0.649993896484 -27.3600006104 -27.0099945068 -33.7200012207 -23 callgsubr
          350.199996948 vlineto
          290.009994507 -257.830001831 rlineto
          -120.949996948 -4 callsubr
          144.240005493 -35 131.429992676 78 5.80000305176 142 rrcurveto
          1 vlineto
          648.350006104 vlineto
          30.7799987793 8 callsubr
          vhcurveto
          18.4600067139 -18 callsubr
          10 rlineto
          endchar
        </CharString>
        <CharString name="eogonek">
          -82 661.039993286 -120 0 callsubr
          12.9700012207 31 54.4600067139 13 rrcurveto
          1.13000488281 -42 callsubr
          -10 hlineto
          -106 callgsubr
          521.399993896 hlineto
          -41.8399963379 -9 -39.0399932861 -27 -7.5299987793 -53 -50 callsubr
          rrcurveto
          endchar
        </CharString>
        <CharString name="equal">
          -267 40 353.88999939 rmoveto
          -24 callsubr
          -240 vmoveto
          -24 callsubr
          endchar
        </CharString>
        <CharString name="eth">
          94 30.3500061035 699.970001221 9 callsubr
          -9.91000366211 -37 callgsubr
          33.0800018311 30.6199951172 -25.0599975586 -32.1600036621 hvcurveto
          -257.850006104 -76.8600006104 -50 76.8600006104 -252.289993286 vlineto
          -34.7700042725 -0.729995727539 -28.3699951172 -27.9799957275 -34.9600067139 hhcurveto
          -12.6499938965 -74 callgsubr
          -10 rlineto
          378.539993286 hlineto
          250.88999939 148.25 129.869995117 219.779998779 220.169998169 -148.25 130.100006104 -250.88999939 hvcurveto
          -96.5500030518 -374.960006714 14 callgsubr
          274.919998169 76.5500030518 hlineto
          125.75 78.3999938965 -111.520004272 -188.720001221 -188.11000061 -78.3999938965 -111.160003662 -125.75 hvcurveto
          -76.5500030518 hlineto
          endchar
        </CharString>
        <CharString name="exclam">
          -453 227.490005493 362.960006714 rmoveto
          22.5099945068 338.63999939 rlineto
          -205 hlineto
          22.4900054932 -338.63999939 44.6399993896 -132.960006714 rlineto
          70 hlineto
          -36.8999938965 -244 rmoveto
          -36 callsubr
        </CharString>
        <CharString name="exclamdown">
          -453 149.770004272 715.600006104 -1 callsubr
          -40.2899932861 -40.2899932861 -25 callgsubr
          40.2899932861 -40.2899932861 -26 callsubr
          40.2899932861 40.2899932861 -26 callsubr
          -40.2899932861 40.2899932861 -51 callgsubr
          hvcurveto
          -82.2599945068 -376.960006714 rmoveto
          -22.5099945068 -338.63999939 rlineto
          205 hlineto
          -22.4900054932 338.63999939 -44.6399993896 132.960006714 rlineto
          -70 hlineto
          endchar
        </CharString>
        <CharString name="f">
          -117 -90 callsubr
          endchar
        </CharString>
        <CharString name="fi">
          301 -90 callsubr
          427.779998779 -501.919998169 rmoveto
          -57 callsubr
          -35.0099945068 -28.3999938965 28.0500030518 34.8300018311 -0.649993896484 hvcurveto
          554.949996948 vlineto
          34.5399932861 0.979995727539 28.2700042725 27.7200012207 34.7899932861 -20 callsubr
          -358.75 -31 callsubr
          -10 -37 callgsubr
          -16 callgsubr
          -54 callsubr
          -20 callgsubr
          -28 callsubr
          hvcurveto
          -554.740005493 -103 callgsubr
          358.789993286 hlineto
          endchar
        </CharString>
        <CharString name="five">
          -156 520.320007324 639 rmoveto
          -10 hlineto
          -29.8999938965 -15.3399963379 -22.3600006104 -20.1000061035 -41.6999969482 hhcurveto
          -297.490005493 -25 -83.4499969482 -384.300003052 9 -6 150.740005493 62.3000030518 118.979995728 -46.4700012207 -6.71000671387 -113.529998779 rlinecurve
          -8.7799987793 -149 -216.220001221 -51 -85 3 -2 -10 rcurveline
          185 -98 334.699996948 75 11.3099975586 248 7.77000427246 170.320007324 -139.88999939 120.679992676 -256.789993286 -61.0700073242 19.0500030518 83.0700073242 rcurveline
          306.770004272 25 rlineto
          endchar
        </CharString>
        <CharString name="fl">
          535 -90 callsubr
          681.990005493 -280.369995117 -93 callsubr
          38.2799987793 -51 callsubr
          rlineto
          endchar
        </CharString>
        <CharString name="florin">
          -170 58.6399993896 599.940002441 rmoveto
          -7.92999267578 10.8399963379 vlineto
          27.4400024414 23.8300018311 -23.7400054932 -29.7799987793 0.5 hvcurveto
          -488.479995728 vlineto
          -0.210006713867 -102 -17.0399932861 -69 -83.7599945068 -47 rrcurveto
          -10 vlineto
          143.880004883 161.160003662 49 209 hvcurveto
          192.429992676 68.7899932861 vlineto
          59.4700012207 -1.05000305176 42.25 -42.9100036621 -58.7799987793 vvcurveto
          -2.35000610352 vlineto
          7.80999755859 -1.07000732422 rlineto
          258.770004272 vlineto
          -7.80999755859 -1.07000732422 rlineto
          -2.35000610352 vlineto
          -58.7799987793 -42.25 -42.9100036621 -59.4700012207 -1.05000305176 vhcurveto
          -68.7899932861 234.660003662 92.9900054932 hlineto
          77.6600036621 -1.03999328613 43.8899993896 -45.8699951172 -76.7799987793 vvcurveto
          -9 callgsubr
          7.80999755859 190.570007324 vlineto
          -5.99000549316 -14.8600006104 -48.6999969482 -9.08999633789 -35.8099975586 hhcurveto
          endchar
        </CharString>
        <CharString name="four">
          -105 597.800003052 88.7599945068 rmoveto
          31 145 rlineto
          -10 hlineto
          -25.2899932861 -12 -15.8099975586 -14.7100067139 -36.8399963379 hhcurveto
          -43.5099945068 420.240005493 -9.36000061035 hlineto
          -516.279998779 -515.240005493 rlineto
          -10 320.649993896 -126.759994507 vlineto
          -30 -1.11999511719 -24.6100006104 -22 -29.4499969482 hhcurveto
          -10.8999938965 hlineto
          -0.139999389648 -10 rlineto
          337.460006714 hlineto
          -0.139999389648 10 rlineto
          -10.8999938965 hlineto
          -29.7100067139 -25.1300048828 24 29 -0.360000610352 hvcurveto
          125.759994507 vlineto
          -356.699996948 105 rmoveto
          151.699996948 147.660003662 rlineto
          -147.660003662 vlineto
          endchar
        </CharString>
        <CharString name="fraction">
          498.350006104 -41 callgsubr
          endchar
        </CharString>
        <CharString name="g">
          113 848.740005493 325.38999939 -90 callgsubr
          endchar
        </CharString>
        <CharString name="gbreve">
          113 552.789993286 927.649993896 -44 callgsubr
          -12.7200012207 -58 callgsubr
          283.240005493 -602.259994507 -90 callgsubr
          endchar
        </CharString>
        <CharString name="gcommaaccent">
          113 848.740005493 325.38999939 -90 callgsubr
          -447.990005493 -598.410003662 -89 callsubr
        </CharString>
        <CharString name="gdotaccent">
          113 426 -88 callgsubr
          422.740005493 -438.61000061 -90 callgsubr
          endchar
        </CharString>
        <CharString name="germandbls">
          542 -67 callsubr
          458.100006104 86.3099975586 -1 callsubr
          22.4700012207 -43 23 4 48 rrcurveto
          49 4 50 35 82 hhcurveto
          99 60 -50 -72.9700012207 0.410003662109 hvcurveto
          9.61999511719 -48 callsubr
          -77.8099975586 hlineto
          5.78999328613 -58.0299987793 -74.7599945068 4.4700012207 -36.0099945068 hhcurveto
          -134 -85 -63 -116 -14 hvcurveto
          -12 -95 43 -78 91.5700073242 -42.3899993896 163.050003052 -75.3200073242 rcurveline
          76.3899993896 -35.2799987793 30 -33 -0.110000610352 -41.5200042725 rrcurveto
          -51.4799957275 0.110000610352 -45 -47 -96 hhcurveto
          -140 -84 99 105.050003052 6.69999694824 hvcurveto
          -8.78999328613 hlineto
          -33.2299957275 -42.8399963379 -20.7799987793 -97.6999969482 22.4499969482 -48.8699951172 rrcurveto
          -35.6399993896 7 callgsubr
          86 -29 116 hhcurveto
          189 115 77 143 10 hvcurveto
          5 callsubr
        </CharString>
        <CharString name="grave">
          293.669998169 749.970001221 -98 callgsubr
          endchar
        </CharString>
        <CharString name="greater">
          -267 40 526.25 -10 callgsubr
          endchar
        </CharString>
        <CharString name="greaterequal">
          40 586.25 -10 callgsubr
          -401.720001221 -366 rmoveto
          -24 callsubr
          endchar
        </CharString>
        <CharString name="guillemotleft">
          -197 282.800003052 484.710006714 -66 callgsubr
          216 -5 -66 callgsubr
          endchar
        </CharString>
        <CharString name="guillemotright">
          -197 268 94.7100067139 -66 callsubr
          -217 7 -66 callsubr
          endchar
        </CharString>
        <CharString name="guilsinglleft">
          -405 282.800003052 484.710006714 -66 callgsubr
          endchar
        </CharString>
        <CharString name="guilsinglright">
          -405 60 94.7100067139 -66 callsubr
          endchar
        </CharString>
        <CharString name="h">
          145 862.919998169 -22 callsubr
          554.330001831 vlineto
          34.8300018311 0.639999389648 -27 callgsubr
          -253.460006714 -269.220001221 252.820007324 -100 callgsubr
          358.789993286 -86 callgsubr
          252.13999939 269.220001221 -252.899993896 vlineto
          -34.4799957275 -1.05000305176 -28.2400054932 -27.6399993896 -34.7400054932 hhcurveto
          -12.6499938965 -74 callgsubr
          -10 rlineto
          358.789993286 hlineto
          endchar
        </CharString>
        <CharString name="hbar">
          145 862.919998169 -22 callsubr
          415.25 66.7899932861 50 -66.8200073242 89.0899963379 vlineto
          34.8300018311 0.669998168945 -27 callgsubr
          -90.3500061035 -269.220001221 89.7100067139 vlineto
          34.5399932861 0.979995727539 28.2700042725 27.7200012207 34.7899932861 hhcurveto
          -3 callgsubr
          12.6499938965 hlineto
          -16 callgsubr
          -54 callsubr
          -20 callgsubr
          -28 callsubr
          hvcurveto
          -89.5 -64.6100006104 -50 64.6100006104 -415.25 -103 callgsubr
          358.789993286 -86 callgsubr
          252.13999939 269.220001221 -252.899993896 vlineto
          -34.4799957275 -1.05000305176 -28.2400054932 -27.6399993896 -34.7400054932 hhcurveto
          -12.6499938965 -74 callgsubr
          -10 rlineto
          358.789993286 hlineto
          -551.160003662 375 rmoveto
          113.11000061 269.220001221 -113.11000061 vlineto
          endchar
        </CharString>
        <CharString name="hungarumlaut">
          140.669998169 742.970001221 -107 callsubr
          217 -7 -40 callgsubr
        </CharString>
        <CharString name="hyphen">
          -11 callsubr
        </CharString>
        <CharString name="i">
          -330 388.630004883 -22 callsubr
          554.949996948 -100 callgsubr
          358.789993286 hlineto
          endchar
        </CharString>
        <CharString name="iacute">
          -330 191.309997559 761 -107 callsubr
          204.320007324 -758 -21 callsubr
          554.949996948 -100 callgsubr
          358.789993286 hlineto
          endchar
        </CharString>
        <CharString name="icircumflex">
          -330 201.059997559 931.759994507 -89 callgsubr
          356.429992676 -746.339996338 -21 callsubr
          554.949996948 -100 callgsubr
          358.789993286 hlineto
          endchar
        </CharString>
        <CharString name="idieresis">
          -330 73.4600067139 755.490005493 rmoveto
          40.6999969482 32.9900054932 32.9900054932 40.6999969482 40.6999969482 -32.9900054932 32.9900054932 -40.6999969482 -40.6999969482 -32.7700042725 -32.9900054932 -40.6999969482 -40.6999969482 32.7700042725 -32.9900054932 40.6999969482 hvcurveto
          262.600006104 hmoveto
          -107 callgsubr
          52.5599975586 -745.490005493 -21 callsubr
          554.949996948 -100 callgsubr
          358.789993286 hlineto
          endchar
        </CharString>
        <CharString name="igrave">
          -330 235.210006714 770.910003662 rmoveto
          -28.25 65.8899993896 -82.25 81.8899993896 -44.25 37.8800048828 -48.3800048828 -20.2400054932 -23.3800048828 -33.2400054932 -13.6999969482 -46.2400054932 63.6100006104 -41.9799957275 96.3000030518 -41.9799957275 73.3000030518 -8.97999572754 rrcurveto
          160.410003662 -753.910003662 -21 callsubr
          554.949996948 -100 callgsubr
          358.789993286 hlineto
          endchar
        </CharString>
        <CharString name="ij">
          94 453.080001831 -53 callsubr
          -423.399993896 -690.059997559 -21 callsubr
          554.949996948 -100 callgsubr
          358.789993286 hlineto
          endchar
        </CharString>
        <CharString name="imacron">
          -330 66.1300048828 -29 callgsubr
          322.5 -870.36000061 -21 callsubr
          554.949996948 -100 callgsubr
          358.789993286 hlineto
          endchar
        </CharString>
        <CharString name="infinity">
          -115 316.300003052 244.630004883 rmoveto
          -46.7599945068 33.4299926758 57.3399963379 -43.3300018311 64.2400054932 hhcurveto
          74.6499938965 58.2200012207 62.5099945068 79.6999969482 -0.970001220703 hvcurveto
          80.0099945068 -0.979995727539 -58.1000061035 62.7100067139 -72.8099975586 hhcurveto
          -58.3600006104 -57.8600006104 -42.5700073242 -46.8000030518 -38.1499938965 hvcurveto
          47.6300048828 -39.2899932861 -57.5599975586 41.7299957275 -58.1699981689 hhcurveto
          -72.8099975586 -58.1100006104 -62.7100067139 -80.0099945068 -0.979995727539 hvcurveto
          -79.6999969482 -0.970001220703 58.2200012207 -62.5099945068 74.6499938965 hhcurveto
          62.5800018311 57.6499938965 41.4199981689 48.6799926758 34.1699981689 hvcurveto
          -154.399993896 -27.0899963379 rmoveto
          -34.8699951172 -32.0299987793 35.9199981689 43.1600036621 43.6499938965 32.0500030518 36.1900024414 34.8399963379 44.8600006104 39.7299957275 -39.3999938965 -39.8000030518 30.7100067139 hvcurveto
          -40.3099975586 -27.7899932861 -42.5 -39.4100036621 -45.0099945068 hhcurveto
          309.410003662 hmoveto
          -45.2400054932 -40.4600067139 36.4499969482 43.25 -29.6000061035 hvcurveto
          37.3000030518 28.8999938965 41.7299957275 41.9100036621 44.6799926758 hhcurveto
          34.8399963379 32.0500030518 -36.1900024414 -43.6499938965 -43.1600036621 -32.0299987793 -35.9199981689 -34.8699951172 hvcurveto
          endchar
        </CharString>
        <CharString name="integral">
          -107 436.5 792 rmoveto
          -87 -9 -111 -50 -9 -174 -4 -83 -13.8899993896 -230.949996948 -17.1100006104 -308.050003052 -3 -54 -8.05999755859 -15 -17.9299926758 -1 -31.0599975586 -2 4.05999755859 37 -20 28 -22 30 -46.0399932861 12 -32.9600067139 -34 -32.5 -34 18.5 -45 27 -21 46 -36 83 3 40 4 rrcurveto
          93 9 100 39 13 185 2 22 8 139 26 461 3 61 13.0299987793 7.94000244141 15.9700012207 1.05999755859 30 2 -5.80999755859 -35.9900054932 21.8099975586 -27 21 -26 45.9400024414 -17.0599975586 34.0599975586 31.0599975586 34 31 -10 47 -37 26 -54 37 -99 -8 -18 -2 rrcurveto
          endchar
        </CharString>
        <CharString name="iogonek">
          -330 388.789993286 hmoveto
          -0.160003662109 10 rlineto
          -95 callsubr
          554.949996948 -100 callgsubr
          171.979995728 hlineto
          -44.9100036621 -7 -43.9100036621 -27 -8.03999328613 -57 -50 callsubr
          -6 6 rcurveline
          -21 callgsubr
          -2.80999755859 32 14.8099975586 35 46.6999969482 13 rrcurveto
          endchar
        </CharString>
        <CharString name="j">
          -324 35.0800018311 -53 callsubr
          endchar
        </CharString>
        <CharString name="k">
          -76 callgsubr
          endchar
        </CharString>
        <CharString name="kcommaaccent">
          -76 callgsubr
          -329.61000061 -294.690002441 -56 callgsubr
        </CharString>
        <CharString name="l">
          -96 642.839996338 231.539993286 -57 callgsubr
        </CharString>
        <CharString name="lacute">
          -96 193 761 -107 callsubr
          456.850006104 -536.460006714 -57 callgsubr
        </CharString>
        <CharString name="lcaron">
          -96 -38 callgsubr
          211.240005493 -277.720001221 -57 callgsubr
        </CharString>
        <CharString name="lcommaaccent">
          -96 642.839996338 231.539993286 -93 callsubr
          -38 callsubr
          -51 callsubr
          rlineto
          -357.710006714 -504.539993286 -89 callsubr
        </CharString>
        <CharString name="ldot">
          -96 642.839996338 231.539993286 -93 callsubr
          -38 callsubr
          -51 callsubr
          rlineto
          -184.080001831 95.9700012207 -104 callsubr
          endchar
        </CharString>
        <CharString name="less">
          -247 441.720001221 526.25 -16 callsubr
          endchar
        </CharString>
        <CharString name="lessequal">
          -247 441.720001221 586.25 -16 callsubr
          -401.720001221 -482 rmoveto
          -24 callsubr
          endchar
        </CharString>
        <CharString name="logicalnot">
          40 407.229995728 rmoveto
          -65 456.720001221 -147.660003662 65 212.660003662 vlineto
          endchar
        </CharString>
        <CharString name="lozenge">
          -238 470.970001221 349.789993286 rmoveto
          -221.820007324 -363.789993286 -209.149993896 363.789993286 209.149993896 364.210006714 rlineto
          -142.669998169 -364.199996948 rmoveto
          143.529998779 -254.990005493 154.470001221 254.990005493 -154.470001221 255.009994507 rlineto
          endchar
        </CharString>
        <CharString name="lslash">
          -96 642.839996338 -30 callsubr
          332.300003052 hlineto
          103.529998779 59.8899993896 -26.0200042725 45.9700012207 -77.5099945068 -44.8399963379 rlineto
          183.279998779 vlineto
          34.8300018311 0.690002441406 28.3999938965 28.0500030518 35 hhcurveto
          -24 callgsubr
          35 -35 callsubr
          -28.0500030518 -34.8300018311 0.660003662109 hvcurveto
          -32 callgsubr
          584.559997559 -33 callsubr
        </CharString>
        <CharString name="m">
          -68 callsubr
        </CharString>
        <CharString name="macron">
          150.229995728 702.940002441 rmoveto
          290 85 -290 hlineto
          endchar
        </CharString>
        <CharString name="minus">
          -267 40 277.25 rmoveto
          -24 callsubr
          endchar
        </CharString>
        <CharString name="mu">
          -68 callsubr
        </CharString>
        <CharString name="multiply">
          -338 370.020004272 428.800003052 rmoveto
          -45.9600067139 45.9600067139 9 callgsubr
          13 callgsubr
          -45.9600067139 -45.9600067139 13 callgsubr
          9 callgsubr
          45.9600067139 -45.9600067139 13 callgsubr
          13 callgsubr
          13 callgsubr
          6 callgsubr
          45.9600067139 45.9600067139 6 callgsubr
          13 callgsubr
          rlineto
          endchar
        </CharString>
        <CharString name="n">
          133 495.229995728 700.020004272 -67 callgsubr
          -0.649993896484 -70 callsubr
          45.1699981689 82.4199981689 vvcurveto
          516.669998169 vlineto
          33.1900024414 1.05999755859 27.1900024414 26.5899963379 33.4600067139 hhcurveto
          18.4600067139 -18 callsubr
          10 rlineto
          endchar
        </CharString>
        <CharString name="nacute">
          133 394.800003052 761 -107 callsubr
          107.429992676 -67.9799957275 -92 callsubr
          endchar
        </CharString>
        <CharString name="ncaron">
          133 418.630004883 763.970001221 -91 callsubr
          -82.6999969482 -239.380004883 -92 callsubr
          endchar
        </CharString>
        <CharString name="ncommaaccent">
          133 495.229995728 700.020004272 -92 callsubr
          -412.190002441 -973.020004272 -89 callsubr
        </CharString>
        <CharString name="nine">
          -73 369.929992676 230.710006714 rmoveto
          -16.6600036621 -10.7100067139 -28.6799926758 -12.1799926758 -29.5899963379 12.1799926758 -28.7100067139 11.8200073242 -21.3899993896 32.1799926758 0.100006103516 114 rrcurveto
          91 14.5399932861 82 73.9799957275 73.6300048828 2.77000427246 -83 -166 -221 -12.8300018311 -124 -284.899993896 -88 vhcurveto
          15 callgsubr
          -7 rlineto
          348.320007324 -42 170.809997559 176 285 vvcurveto
          229 -108.020004272 103.979995728 -195.979995728 -2.97999572754 vhcurveto
          -198.669998169 -3.02000427246 -88.3999938965 -106.970001221 -3.92999267578 -134.009994507 -7.67999267578 -261.990005493 289.449996948 -8.00999450684 55.5200042725 125.710006714 rrcurveto
          endchar
        </CharString>
        <CharString name="notequal">
          -267 441.720001221 353.88999939 rmoveto
          65 -90.5 vlineto
          39.3200073242 82.1100006104 -59.9400024414 27.5599975586 -52.8300018311 -109.669998169 rlineto
          -237.770004272 -65 206.460006714 hlineto
          -52.9900054932 -110 rlineto
          -153.470001221 -65 122.160003662 hlineto
          -45.1100006104 -93.6499938965 61.2100067139 -27.5800018311 58.0500030518 121.229995728 rlineto
          205.419998169 65 -174.289993286 hlineto
          52.6699981689 110 rlineto
          endchar
        </CharString>
        <CharString name="ntilde">
          133 619.199996948 919.279998779 -96 callgsubr
          -111.61000061 -219.270004272 -92 callsubr
          endchar
        </CharString>
        <CharString name="numbersign">
          546 436.880004883 rmoveto
          60 -107.339996338 vlineto
          -2 callsubr
          -138 hlineto
          -2 callsubr
          -112.660003662 -60 102.080001831 hlineto
          -28.2100067139 -160 rlineto
          -117.869995117 -60 107.289993286 -3 callsubr
          138 -3 callsubr
          112.710006714 60 -102.130004883 hlineto
          28.2100067139 160 rlineto
          -90.2100067139 -160 rmoveto
          -138 hlineto
          28.2100067139 160 rlineto
          138 hlineto
          endchar
        </CharString>
        <CharString name="o">
          152 450.429992676 714 -99 callsubr
        </CharString>
        <CharString name="oacute">
          152 433.429992676 775 -107 callsubr
          24 -68 -99 callsubr
        </CharString>
        <CharString name="ocircumflex">
          152 443.179992676 945.759994507 -89 callgsubr
          176.119995117 -56.3399963379 -99 callsubr
        </CharString>
        <CharString name="odieresis">
          152 315.589996338 769.490005493 -105 callsubr
          -127.759994507 -55.4900054932 -99 callsubr
        </CharString>
        <CharString name="oe">
          393 1117.83999634 -75 callsubr
        </CharString>
        <CharString name="ogonek">
          425.050003052 -107 0 callsubr
          13 32 54.5800018311 12.4900054932 -10 3 rcurveline
          -55.5800018311 5.50999450684 -74.3000030518 -22 -10.6999969482 -76 -50 callsubr
          rrcurveto
          endchar
        </CharString>
        <CharString name="ograve">
          152 477.339996338 784.910003662 -98 callgsubr
          -19.9100036621 -63.9100036621 -99 callsubr
        </CharString>
        <CharString name="ohungarumlaut">
          152 325.949996948 778 -107 callsubr
          217 -7 -107 callsubr
          -78.5200042725 -71 -99 callsubr
        </CharString>
        <CharString name="omacron">
          152 308.25 809.36000061 rmoveto
          290 85 -290 hlineto
          142.179992676 -180.36000061 -99 callsubr
        </CharString>
        <CharString name="one">
          -342 360.509994507 9.97999572754 rmoveto
          -29.9199981689 -25.2700042725 23.8000030518 29.6999969482 hvcurveto
          473.800003052 vlineto
          0.740005493164 29.3699951172 24.7700042725 23.4400024414 29.6900024414 -0.0299987792969 rrcurveto
          20.9100036621 hlineto
          0.139999389648 9.97999572754 rlineto
          -356.550003052 hlineto
          0.139999389648 -10 rlineto
          20.9100036621 hlineto
          29.9199981689 25.2700042725 -23.8000030518 -29.6999969482 hvcurveto
          -472.460006714 vlineto
          -29.9900054932 -25.0700073242 -24.1600036621 -30.1399993896 vhcurveto
          -20.9100036621 hlineto
          -0.139999389648 -9.97999572754 rlineto
          356.550003052 hlineto
          -0.139999389648 9.97999572754 rlineto
          endchar
        </CharString>
        <CharString name="onehalf">
          102 575.350006104 -41 callgsubr
          -72.9600067139 297.169998169 -54 callgsubr
          253.020004272 -56.8699951172 -63 callgsubr
        </CharString>
        <CharString name="onequarter">
          21 597.350006104 -41 callgsubr
          122.25 302.559997559 rmoveto
          -16.1600036621 -13.6499938965 12.8500061035 16.0399932861 hvcurveto
          372.300003052 -9 callgsubr
          vlineto
          -46.5700073242 -21.8399963379 -109 -12.1199951172 -30.4799957275 -0.600006103516 rrcurveto
          -9 callgsubr
          4.42999267578 vlineto
          24.25 16.5500030518 -9.07000732422 -33.3300018311 hvcurveto
          -289.580001831 vlineto
          -16.1999969482 -13.5399932861 -13.0500030518 -16.2799987793 vhcurveto
          -11.2899932861 -9 callgsubr
          228.570007324 5.39999389648 hlineto
          466.630004883 -221.419998169 -59 callsubr
        </CharString>
        <CharString name="onesuperior">
          -456 34.0399932861 308.25 -54 callgsubr
          endchar
        </CharString>
        <CharString name="ordfeminine">
          -358 189.11000061 709.550003052 rmoveto
          -4.27000427246 hlineto
          -2.16000366211 -16.2700042725 -20.4100036621 -42.2599945068 -7.13999938965 -15.9600067139 -115.410003662 -230.699996948 rcurveline
          -16.1900024414 -10.5399932861 -15.8200073242 -6.80000305176 -14.3500061035 hhcurveto
          -4 -4.38000488281 112.520004272 4.33999633789 -4.33000183105 hlineto
          -12.7100067139 -15.0800018311 9.96000671387 17.5200042725 8.86999511719 hvcurveto
          14.3200073242 30.1000061035 rlineto
          99.9900054932 hlineto
          16.1199951172 -33.3899993896 rlineto
          -15.4700012207 5.03999328613 -13.2700042725 -8.7200012207 -11.8899993896 hhcurveto
          -4.33000183105 -4.33999633789 204.740005493 4.38000488281 -4.11999511719 hlineto
          -13.6600036621 -15.2799987793 6.63000488281 15.7400054932 -11.0099945068 hvcurveto
          -239.759994507 61.0399932861 rmoveto
          37.5800018311 77.3300018311 37.3399963379 -77.3300018311 rlineto
          endchar
        </CharString>
        <CharString name="ordmasculine">
          -348 199.649993896 709.789993286 rmoveto
          -117.020004272 -62.6199951172 -59.5700073242 -107.270004272 -106.589996338 62.6199951172 -59.3699951172 117.020004272 117.729995728 62.6199951172 59.3699951172 106.589996338 107.270004272 -62.6199951172 59.5700073242 -117.729995728 hvcurveto
          -307.25 vmoveto
          -42.9700012207 -16.3699951172 12 callsubr
          89.8899993896 90.5700073242 16.3699951172 12 callsubr
          42.9700012207 43.6699981689 15.6699981689 11 callsubr
          -90.5700073242 -89.8899993896 -15.6699981689 11 callsubr
          -43.6699981689 hvcurveto
          endchar
        </CharString>
        <CharString name="oslash">
          152 1 callgsubr
          -48.4900054932 -56.3800048828 rlineto
          28.8399963379 -61.75 -75.1999969482 15.1999969482 -86.5099945068 hhcurveto
          -257.990005493 -157.449996948 -135.199996948 -228.800003052 -121.190002441 44.1699981689 -94.9299926758 79.8899993896 -62.4900054932 hvcurveto
          -50.2200012207 -58.3899993896 44.0099945068 -36 54.1199951172 63.1000061035 rlineto
          -35.3500061035 65.25 82.1300048828 -18.75 96.0800018311 hhcurveto
          257.990005493 157.449996948 135.199996948 228.789993286 130.270004272 -51.0299987793 99.9299926758 -91.5700073242 61.9100036621 hvcurveto
          -450.86000061 -438.940002441 rmoveto
          -10.9900054932 42 -5.74000549316 49.2100067139 55.6300048828 vvcurveto
          197.419998169 72.3399963379 116.660003662 122.419998169 62.1600036621 49.25 -30.0800018311 -55.4600067139 33.4199981689 vhcurveto
          25.5 -55.9499969482 rmoveto
          15.9900054932 -47.1600036621 8.44000244141 -58.0099945068 -67.4299926758 vvcurveto
          -197.410003662 -72.3399963379 -116.649993896 -122.419998169 -69.4900054932 -53.3500061035 37.5800018311 68.6000061035 -33.1499938965 vhcurveto
          endchar
        </CharString>
        <CharString name="otilde">
          152 657.820007324 933.279998779 -96 callgsubr
          -195.039993286 -219.289993286 -99 callsubr
        </CharString>
        <CharString name="p">
          -41 35.3500061035 700 rmoveto
          -19 callgsubr
          12.4900054932 hlineto
          33.3800048828 30.5299987793 -25.2700042725 -32.3600006104 hvcurveto
          -559.589996338 -37 callsubr
          577.13999939 35.2799987793 -62 callsubr
        </CharString>
        <CharString name="paragraph">
          -208 523.369995117 742.619995117 rmoveto
          -47.1499938965 -40.9299926758 -32.9900054932 4.7200012207 -21.9499969482 hhcurveto
          -181.179992676 hlineto
          -108.080001831 -0.520004272461 -87 -69.5500030518 -1.22999572754 -112.960006714 rrcurveto
          -114.100006104 -1.24000549316 87 -69.9299926758 110.550003052 hhcurveto
          -333.13999939 vlineto
          2.91999816895 -97 -7.38999938965 -35 -56.2400054932 -58 7 -9 rcurveline
          82.4900054932 35 23.4900054932 87 77 vvcurveto
          650.190002441 83.4600067139 -505.559997559 vlineto
          -65.8699951172 1.75999450684 -34.3000030518 -28.7599945068 -49.4600067139 vhcurveto
          9 -8 rlineto
          39.1199951172 27.6100006104 28.8800048828 55.4499969482 77.0200042725 vvcurveto
          503.490005493 vlineto
          55.5 4.7799987793 36.5 46.3999938965 6.33000183105 -16 callgsubr
          rrcurveto
          endchar
        </CharString>
        <CharString name="parenleft">
          -270 442.509994507 732 rmoveto
          -247.009994507 -26.6999969482 -105.5 -162.419998169 -209.169998169 vvcurveto
          -193.199996948 105.039993286 -181.520004272 245.679992676 -59 vhcurveto
          6 9 -98.2100067139 69 -54.6699981689 129.399993896 -3.83000183105 228.11000061 rlinecurve
          -3.49000549316 207.940002441 55.8999938965 129.899993896 106.11000061 50.6499938965 rrcurveto
          endchar
        </CharString>
        <CharString name="parenright">
          -270 37.7899932861 -100 rmoveto
          245.679992676 59 105.039993286 181.520004272 193.199996948 vvcurveto
          209.169998169 -105.5 162.419998169 -247.009994507 26.6999969482 vhcurveto
          -6 -8 106.11000061 -50.6499938965 55.8999938965 -129.899993896 -3.49000549316 -207.940002441 rlinecurve
          -3.83000183105 -228.11000061 -54.6699981689 -129.399993896 -98.2100067139 -69 rrcurveto
          endchar
        </CharString>
        <CharString name="partialdiff">
          -101 74.6100006104 587.38999939 rmoveto
          70.3099975586 75.6100006104 117 -17 53 -37 48.8600006104 -33.6399993896 27.6900024414 -68.2799987793 7.0299987793 -96.7599945068 -169.850006104 80.4299926758 -137.729995728 -87.3399963379 -43.9900054932 -110.410003662 -52.9199981689 -133 67.8899993896 -189 237.029998779 15 196 12 108 127 9 208 9 206 -103 156 -189 20 -104 11 -110 -34 -49.3099975586 -97.6100006104 rrcurveto
          334.309997559 -261.38999939 rmoveto
          -5 -166 -38 -125 -58 -6 -45.3000030518 -4.69000244141 -27.6999969482 97.6900024414 20 102 17.6000061035 89.5899963379 42.5500030518 64.6300048828 93.8500061035 -22.4900054932 rrcurveto
          endchar
        </CharString>
        <CharString name="percent">
          29 -79 callgsubr
          13.4100036621 -178 rmoveto
          -63 callsubr
          -10.3699951172 hvcurveto
          endchar
        </CharString>
        <CharString name="period">
          -498 125 -14 rmoveto
          -36 callsubr
        </CharString>
        <CharString name="periodcentered">
          -498 125 411 rmoveto
          -47.8800048828 -51.4299926758 -38.5700073242 -51.4299926758 -20.6900024414 hvcurveto
          -51.4299926758 20.6900024414 51.4299926758 -38.5700073242 47.8800048828 hhcurveto
          47.8800048828 51.4299926758 38.5700073242 51.4299926758 20.6900024414 hvcurveto
          51.4299926758 -20.6900024414 -51.4299926758 38.5700073242 -47.8800048828 hhcurveto
          -39.1999969482 vmoveto
          27.0299987793 29.0299987793 -21.7700042725 -29.0299987793 11.6799926758 hvcurveto
          -29.0299987793 -11.6799926758 -29.0299987793 -21.7700042725 -27.0299987793 hhcurveto
          -27.0299987793 -29.0299987793 21.7700042725 29.0299987793 -11.6799926758 hvcurveto
          29.0299987793 11.6799926758 29.0299987793 21.7700042725 27.0299987793 hhcurveto
          endchar
        </CharString>
        <CharString name="perthousand">
          419 -79 callgsubr
          391 hmoveto
          -113.75 -76.4900054932 -62.0299987793 -104.970001221 -15.6999969482 hvcurveto
          -116.910003662 -17.4799957275 53.0899963379 -69.0899963379 107.330001831 hhcurveto
          123.009994507 78.3899993896 65.3699951172 110.630004883 9.66000366211 hvcurveto
          111.259994507 9.71000671387 -54.9900054932 65.7400054932 -102.779998779 hhcurveto
          -377.589996338 -178 rmoveto
          -63 callsubr
          -10.3699951172 hvcurveto
          391 hmoveto
          -63 callsubr
          -10.3600006104 hvcurveto
          endchar
        </CharString>
        <CharString name="pi">
          35 758.800003052 10 rmoveto
          -17 callsubr
          23.7899932861 29.6799926758 11 callgsubr
          hvcurveto
          473.979995728 -13 callgsubr
          -733.910003662 -13 callsubr
          -471.699996948 vlineto
          -29.9900054932 -1 callgsubr
          -24.1399993896 -29 callsubr
          -0.139999389648 10 rlineto
          -17 callsubr
          23.7899932861 29.6799926758 11 callgsubr
          hvcurveto
          433.979995728 -5 callsubr
          85.9499969482 -4 callgsubr
          -431.699996948 vlineto
          -29.9900054932 -1 callgsubr
          -24.1399993896 -29 callsubr
          endchar
        </CharString>
        <CharString name="plus">
          -267 441.720001221 342.25 rmoveto
          -168.36000061 -12 callgsubr
          hlineto
          endchar
        </CharString>
        <CharString name="plusminus">
          -267 273.36000061 412.25 rmoveto
          -12 callgsubr
          65 vlineto
          -401.720001221 -362.25 rmoveto
          -24 callsubr
          endchar
        </CharString>
        <CharString name="product">
          105 818.800003052 -190 rmoveto
          -17 callsubr
          24 29 11 callgsubr
          hvcurveto
          774.419998169 -13 callgsubr
          -783.910003662 -13 callsubr
          -771.809997559 vlineto
          -30 -1 callgsubr
          -24 -29 callsubr
          -0.139999389648 10 rlineto
          -17 callsubr
          24 29 11 callgsubr
          hvcurveto
          734.429992676 -5 callsubr
          135.949996948 -4 callgsubr
          -731.809997559 vlineto
          -30 -1 callgsubr
          -24 -29 callsubr
          endchar
        </CharString>
        <CharString name="q">
          164 1368.92999268 -64 rmoveto
          -102.929992676 -74 -145 -11 -200 73 -131.970001221 48 -62.4600067139 23 -97.2700042725 15.7400054932 rrcurveto
          153.050003052 48.7700042725 88.5200042725 118.929992676 171.550003052 vvcurveto
          228.800003052 -157.449996948 135.199996948 -257.990005493 -257.990005493 -157.449996948 -135.199996948 -228.800003052 -228.080001831 156.460006714 -134.910003662 256.550003052 -1 vhcurveto
          120.990005493 -4 86 -116 164 -90 306 -167 246 108 -0.25 216 rrcurveto
          -1115.08000183 416.990005493 rmoveto
          197.419998169 72.3399963379 116.660003662 122.419998169 122.419998169 72.3399963379 -116.660003662 -197.419998169 -197.410003662 -72.3399963379 -116.649993896 -122.419998169 -122.419998169 -72.3399963379 116.649993896 197.410003662 vhcurveto
          endchar
        </CharString>
        <CharString name="question">
          -255 50 510.229995728 rmoveto
          10 hlineto
          106.770004272 36 47 61 58 32 -42 -76 1 vhcurveto
          2 -126 -85 2 -9 -83 -7 -67 49 -42 58.2100067139 -15.0399932861 9 6 rcurveline
          -30.2100067139 58.0399932861 40 28 41 30 rrcurveto
          101 74 46 44 82 vvcurveto
          112 -85 65 -157 -110 -81 -37 -52.0500030518 -30 vhcurveto
          226 -638.949996948 rmoveto
          49 40 40 50 12 callgsubr
          hvcurveto
          50 -0.229995727539 -40 40 -49 hhcurveto
          -50 -41 -40 -50 12 callgsubr
          hvcurveto
          -50 -0.229995727539 41 -40 50 hhcurveto
          endchar
        </CharString>
        <CharString name="questiondown">
          -225 267 714 rmoveto
          -49 -40 -40 -50 -0.229995727539 hvcurveto
          -50 12 callgsubr
          40 -40 49 hhcurveto
          50 41 40 50 -0.229995727539 hvcurveto
          50 12 callgsubr
          -41 40 -50 hhcurveto
          176 -524.229995728 rmoveto
          -10 hlineto
          -106.770004272 -36 -47 -61 -58 -32 42 76 -1 vhcurveto
          -2 126 85 -2 9 83 7 67 -49 42 -58.2100067139 15.0399932861 -9 -6 rcurveline
          30.2100067139 -58.0399932861 -40 -28 -41 -30 rrcurveto
          -101 -74 -46 -44 -82 vvcurveto
          -112 85 -65 157 110 81 37 52.0500030518 30 vhcurveto
          endchar
        </CharString>
        <CharString name="quotedbl">
          -354 46.8999938965 500 -53 callgsubr
          190.550003052 -5.25 -53 callgsubr
          endchar
        </CharString>
        <CharString name="quotedblbase">
          -230 45.6100006104 -148 -10 callsubr
          129.369995117 -50 callgsubr
          -66.1300048828 -38.3300018311 -55 -39.5299987793 -18 rrcurveto
          244.309997559 -14 -10 callsubr
          129.369995117 -50 callgsubr
          -66.1300048828 -38.3300018311 -55 -39.5299987793 -18 rrcurveto
          endchar
        </CharString>
        <CharString name="quotedblleft">
          -229 232.850006104 842.710006714 4 callgsubr
          -109.149993896 -155.520004272 59.8699951172 -61 callgsubr
          236.789993286 14.2400054932 4 callgsubr
          -109 -155.520004272 59.7100067139 -61 callgsubr
          endchar
        </CharString>
        <CharString name="quotedblright">
          -250 45.1000061035 541.369995117 -64 callgsubr
          234.009994507 -13.5599975586 -64 callgsubr
          endchar
        </CharString>
        <CharString name="quoteleft">
          -470 232.699996948 842.710006714 4 callgsubr
          -109 -155.520004272 59.7100067139 -61 callgsubr
          endchar
        </CharString>
        <CharString name="quoteright">
          -480 45.1000061035 541.369995117 -64 callgsubr
          endchar
        </CharString>
        <CharString name="quotesinglbase">
          -470 45.6100006104 -141 -10 callsubr
          129.460006714 -50 callgsubr
          -65.2299957275 -38.3300018311 -56 -39.5299987793 -18 rrcurveto
          endchar
        </CharString>
        <CharString name="quotesingle">
          -528 46.8999938965 500 -53 callgsubr
          endchar
        </CharString>
        <CharString name="r">
          44 35 700 -86 callsubr
        </CharString>
        <CharString name="racute">
          44 374 761 -107 callsubr
          -332 -68 -86 callsubr
        </CharString>
        <CharString name="radical">
          -157 23 378.460006714 rmoveto
          61.3099975586 14.8899993896 173.309997559 -540.339996338 327.600006104 988.179992676 -55 2 -209.509994507 -611.130004883 -75.7700042725 257.199996948 -234.949996948 -58.8000030518 rlineto
          endchar
        </CharString>
        <CharString name="rcaron">
          44 397.830001831 763.970001221 -91 callsubr
          -522.130004883 -239.399993896 -86 callsubr
        </CharString>
        <CharString name="rcommaaccent">
          44 35 700 -85 callgsubr
          -4.38999938965 -973 -89 callsubr
        </CharString>
        <CharString name="registered">
          -503 122.86000061 700.86000061 rmoveto
          -62.3300018311 11 callsubr
          11 callsubr
          -62.3300018311 -62.3300018311 12 callsubr
          11 callsubr
          62.3300018311 62.3300018311 12 callsubr
          12 callsubr
          62.3300018311 62.3300018311 11 callsubr
          12 callsubr
          -62.3300018311 hvcurveto
          -202.11000061 vmoveto
          -51.2799987793 -37.9700012207 3 callgsubr
          3 callgsubr
          -37.9700012207 -51.2799987793 -51.2799987793 -37.9700012207 -37.9700012207 -51.2799987793 hvcurveto
          -60.3099975586 150.949996948 rmoveto
          -2 2.5299987793 vlineto
          5.99000549316 4.52000427246 -4.49000549316 -5.94000244141 0.179992675781 hvcurveto
          -94.9299926758 vlineto
          -5.88000488281 -0.240005493164 -4.49000549316 -4.69000244141 -5.94000244141 hhcurveto
          -2.5299987793 -2 57.2899932861 2 -2.5299987793 hlineto
          -6.0299987793 -4.53999328613 4.83000183105 6 -0.110000610352 hvcurveto
          97.8999938965 vlineto
          10.0200042725 -0.179992675781 14.9700012207 0.179992675781 5.30000305176 -8.88999938965 0.529998779297 -12.9700012207 rlinecurve
          0.139999389648 -3.38000488281 -0.800003051758 -6.2200012207 -0.550003051758 -2.88000488281 -2.16999816895 -11.4799957275 -6.38999938965 -4.2799987793 -5.63000488281 -0.279998779297 rrcurveto
          -10.5599975586 -1.85000610352 hlineto
          3.30000305176 2.89999389648 -6.7200012207 -6.75999450684 3.02000427246 hvcurveto
          -20.6799926758 9.25 6.80000305176 -24.2599945068 33.8399963379 hhcurveto
          19.6799926758 2 hlineto
          -11.5 3.92999267578 -6.53999328613 10.8300018311 -2.72999572754 4.33000183105 -7.74000549316 12.25 -13.5700073242 19.3200073242 -8.82000732422 1.97999572754 rrcurveto
          17.0200042725 1.80000305176 13.5099945068 9.16000366211 21.9499969482 vvcurveto
          20.1900024414 -19.8600006104 12.1799926758 -23.6000061035 vhcurveto
          endchar
        </CharString>
        <CharString name="ring">
          301.100006104 876.600006104 -82 callgsubr
          endchar
        </CharString>
        <CharString name="s">
          -103 -67 callsubr
          endchar
        </CharString>
        <CharString name="sacute">
          -103 303.039993286 761 -107 callsubr
          6.69999694824 -281.470001221 -97 callsubr
          rrcurveto
          -35.6399993896 7 callgsubr
          86 -29 116 hhcurveto
          189 115 77 143 10 hvcurveto
          5 callsubr
        </CharString>
        <CharString name="scaron">
          -103 326.86000061 763.970001221 -91 callsubr
          -183.429992676 -452.869995117 -97 callsubr
          rrcurveto
          -35.6399993896 7 callgsubr
          86 -29 116 hhcurveto
          189 115 77 143 10 hvcurveto
          5 callsubr
        </CharString>
        <CharString name="scedilla">
          -103 302.740005493 486.529998779 -97 callsubr
          32.6100006104 -33.5399932861 78.0899963379 -28.1000061035 105.779998779 -3 -47.4400024414 -61 rcurveline
          -81 callgsubr
          41.8000030518 48 rcurveline
          164.050003052 11 98.8699951172 75.8800048828 9.24000549316 132.119995117 5 callsubr
        </CharString>
        <CharString name="scommaaccent">
          -103 -67 callsubr
          -234.5 -682.220001221 -89 callsubr
        </CharString>
        <CharString name="section">
          -212 330.850006104 716 rmoveto
          -260.850006104 -173 -333.919998169 -246.080001831 247.979995728 hvcurveto
          112.720001221 -111.919998169 90.4499969482 -71.0800018311 -47.1699981689 -39 -70.3099975586 -57 -104.059997559 232.009994507 -73.6300048828 -121.009994507 rrcurveto
          -68 -41.1999969482 94.4799957275 -59 114.809997559 hhcurveto
          296.86000061 95.1499938965 324.910003662 261.089996338 -228.100006104 hvcurveto
          -51 callgsubr
          56.9100036621 -146.089996338 119.36000061 58.8099975586 43.7299957275 70.5899963379 52.4900054932 83.4600067139 -220.320007324 73.9600067139 113.830001831 rrcurveto
          61.5700073242 40.0099945068 -72.7799987793 61.4299926758 -112.350006104 hhcurveto
          -185.479995728 -133.080001831 rmoveto
          -0.789993286133 -127.919998169 35.0099945068 -37.6999969482 103.38999939 -111.300003052 90.75 -97.6999969482 86.3899993896 -96.3000030518 -65.6000061035 -133 17.0700073242 108 -85.3800048828 88.0399932861 -80.2299957275 81.9600067139 -86.1799926758 88.0399932861 -83.7700042725 85.9600067139 69.3399963379 151.919998169 rrcurveto
          endchar
        </CharString>
        <CharString name="semicolon">
          -488 125 397.229995728 -64 callsubr
          -80.3099975586 -526.229995728 -17 callgsubr
          -36.1000061035 -16 rrcurveto
          endchar
        </CharString>
        <CharString name="seven">
          -176 33.2200012207 598.130004883 rmoveto
          529.36000061 hlineto
          -127.61000061 -294.63999939 -41.9199981689 -97.3999938965 -70.0500030518 -217.080001831 -25.3099975586 -89 rlinecurve
          -170 hlineto
          61.7599945068 100 126.419998169 223.720001221 42.3500061035 90.3300018311 52.0200042725 110.949996948 rcurveline
          -320.279998779 hlineto
          -39.9799957275 -20.2200012207 -20.3399963379 -39.6600036621 -14.7599945068 hvcurveto
          -10 hlineto
          endchar
        </CharString>
        <CharString name="six">
          -73 304.830001831 365.289993286 rmoveto
          16.6999969482 10.7100067139 28.8600006104 12.1600036621 29.6000061035 -12.1600036621 28.8300018311 -11.8399963379 21.25 -32.1600036621 -0.0800018310547 -114 rrcurveto
          -91 -14.6100006104 -82 -74.0500030518 -73.7100067139 -2.86000061035 83 166 221 13.0299987793 124 284.929992676 88.0200042725 vhcurveto
          -3.61000061035 7.41000366211 -348.520004272 41.5700073242 -170.660003662 -176 0.130004882812 -285 rlinecurve
          0.100006103516 -229 107.679992676 -104 196.220001221 3 198.149993896 3 88.75 106.990005493 4.10000610352 134.009994507 8.02000427246 261.990005493 -290.050003052 8.00999450684 -55.4799957275 -125.710006714 rrcurveto
          endchar
        </CharString>
        <CharString name="slash">
          -309 10 14.0800018311 rmoveto
          58.6600036621 -28.0800018311 360.940002441 710.5 -59.0800018311 26.5 rlineto
          endchar
        </CharString>
        <CharString name="softhyphen">
          -11 callsubr
        </CharString>
        <CharString name="space">
          -498 endchar
        </CharString>
        <CharString name="sterling">
          -128 605.990005493 219.399993896 rmoveto
          -60 -120.399993896 -103 -40 -103 9 -62.1799926758 5.42999267578 -46.9499969482 14.3600006104 -47.4600067139 -8.89999389648 77.6600036621 22.7400054932 56.1300048828 50.3899993896 1.33000183105 166.729995728 rrcurveto
          157.979995728 hlineto
          21.2599945068 55.8600006104 rlineto
          -180.63999939 hlineto
          -9.86999511719 174.600006104 9.72999572754 111.779998779 107.789993286 3 75.5 2.10000610352 28.2100067139 -48.7700042725 4.67999267578 -101.830001831 rrcurveto
          10 hlineto
          47.3500061035 141.199996948 -28.5200042725 36.3000030518 -71 27 -103 -6 rlinecurve
          -219.070007324 -12.8899993896 -60.1600036621 -152.289993286 3.13000488281 -174.210006714 rrcurveto
          -64.3200073242 hlineto
          -17.2599945068 -55.8600006104 rlineto
          81.5899963379 hlineto
          -5.02000427246 -173.479995728 -52.2200012207 -96.8399963379 -24.6600036621 -48.4199981689 rrcurveto
          -10 10 vlineto
          8.97999572754 10 64 23 24 1 63 2 49 -22 89 -12 53 -7 114 9 65.5700073242 30 45.4299926758 195.399993896 rcurveline
          endchar
        </CharString>
        <CharString name="summation">
          -111 607.839996338 175.289993286 rmoveto
          -29.6600036621 -108.910003662 -74.5800018311 -66.0800018311 -90.0899963379 -6.30000305176 rrcurveto
          -202.410003662 hlineto
          244.589996338 350.25 -177.350006104 305.75 rlineto
          158.220001221 hlineto
          80.8099975586 -1.63000488281 47.6300048828 -48.1999969482 -0.190002441406 -79.7799987793 rrcurveto
          -61 callsubr
          vlineto
          10.1000061035 -0.149993896484 rlineto
          205.770004272 vlineto
          -18.5599975586 -61 callsubr
          -57.5700073242 -9.96000671387 -43.1000061035 -0.410003662109 rrcurveto
          -425.119995117 -10 hlineto
          271.759994507 -457.61000061 -277.300003052 -402.38999939 rlineto
          -11 554.559997559 vlineto
          -38 callsubr
          356.289993286 rlineto
          endchar
        </CharString>
        <CharString name="t">
          -50 127.649993896 701 -73 callsubr
          -579.779998779 -11 callgsubr
          -28.0599975586 15 callsubr
          -34.4499969482 hhcurveto
          -12.6499938965 -74 callgsubr
          -10 rlineto
          358.919998169 -77 callsubr
          endchar
        </CharString>
        <CharString name="tbar">
          -50 127.649993896 701 -73 callsubr
          7 callsubr
          -282.119995117 -11 callgsubr
          -28.0599975586 15 callsubr
          -34.4499969482 hhcurveto
          -12.6499938965 -74 callgsubr
          -10 rlineto
          358.919998169 -12 callsubr
          -34.7299957275 -28.2299957275 27.6199951172 34.4600067139 -1.07000732422 hvcurveto
          -45 callgsubr
        </CharString>
        <CharString name="tcaron">
          -50 356.830001831 763.970001221 rmoveto
          159.300003052 175.419998169 -7.21000671387 8 -157.539993286 -64.3300018311 -168.339996338 64.4299926758 -7.21000671387 -8 168.979995728 -175.520004272 rlineto
          -217.149993896 -62.9700012207 -73 callsubr
          -579.789993286 -11 callgsubr
          -28.0500030518 15 callsubr
          -34.4600067139 hhcurveto
          -12.6499938965 -74 callgsubr
          -10 rlineto
          358.919998169 -77 callsubr
          endchar
        </CharString>
        <CharString name="tcedilla">
          -50 127.649993896 701 -73 callsubr
          -579.779998779 -11 callgsubr
          -28.0599975586 15 callsubr
          -34.4499969482 hhcurveto
          -12.6499938965 -74 callgsubr
          -10 rlineto
          97.5200042725 hlineto
          -47.3699951172 -61 -81 callgsubr
          40.8300018311 47 rcurveline
          200.300003052 -77 callsubr
          endchar
        </CharString>
        <CharString name="thorn">
          -41 324.61000061 558.029998779 rmoveto
          69.7799987793 -100 callgsubr
          358.789993286 -86 callgsubr
          435.169998169 27.6900024414 -62 callsubr
        </CharString>
        <CharString name="three">
          -146 87.3500061035 367.770004272 rmoveto
          10 hlineto
          -3.44000244141 125.229995728 31 62 80 7 60 6 55 -29 7 -74 9 -97 -80 -77 -92.2200012207 3.36999511719 -1.82000732422 -10 rcurveline
          86.0399932861 -1.36999511719 99 -45 -122 vvcurveto
          -146 -142 -96 -164 4 vhcurveto
          -2 -10 221 -99 302 96 0.360000610352 235.210006714 rlinecurve
          -0.300003051758 128.479995728 -88.9299926758 51.4600067139 -75.4100036621 14.4900054932 rrcurveto
          67.4299926758 3.41000366211 67.8500061035 50.1499938965 91.8000030518 vvcurveto
          109 -95 63 -159 -108 -90 -29 -42.0299987793 -50.9100036621 vhcurveto
          endchar
        </CharString>
        <CharString name="threequarters">
          91 666.350006104 -41 callgsubr
          -123.529998779 553.869995117 -69 callgsubr
          774.539993286 -584.009994507 -59 callsubr
        </CharString>
        <CharString name="threesuperior">
          -375 59.8500061035 564.949996948 -69 callgsubr
          endchar
        </CharString>
        <CharString name="tilde">
          478.009994507 798.520004272 -96 callgsubr
          endchar
        </CharString>
        <CharString name="trademark">
          -236 207.190002441 642.979995728 rmoveto
          2.99000549316 62.9799957275 hlineto
          -2 -5.35000610352 -16.3399963379 -3.03999328613 -12.0200042725 hhcurveto
          -132.759994507 hlineto
          -12.0200042725 -16.3399963379 3.03999328613 2 -5.35000610352 hvcurveto
          -8.41999816895 vlineto
          -11.1100006104 vlineto
          -43.4400024414 2.61999511719 1.80000305176 vlineto
          25.3000030518 14.6799926758 14.9700012207 25.6000061035 0.350006103516 vhcurveto
          24.4299926758 -164.460006714 hlineto
          -10.1100006104 -0.350006103516 -7.66000366211 -8.08999633789 -9.67999267578 hhcurveto
          -3.32000732422 0.360000610352 rlineto
          -3.00999450684 107.539993286 3.00999450684 vlineto
          -3.33000183105 -0.360000610352 rlineto
          -9.67999267578 -8.02000427246 8.08999633789 10.1100006104 hvcurveto
          164.449996948 24.4700012207 vlineto
          25.5599975586 -0.350006103516 14.6799926758 -14.9700012207 -0.360000610352 -25.3000030518 rrcurveto
          243.850006104 59.8200073242 rmoveto
          -2.7799987793 hlineto
          -89.2299957275 -125.350006104 -99.8999938965 125.339996338 rlineto
          -2.41999816895 hlineto
          -26.3699951172 -186.460006714 rlineto
          -9.74000549316 -2.67999267578 -8.41000366211 -5.64999389648 -9.74000549316 hhcurveto
          -4.33999633789 0.360000610352 rlineto
          -3.00999450684 64.1600036621 2.66000366211 -4.52000427246 vlineto
          -5.60000610352 -6.24000549316 5.32000732422 5.80000305176 0.75 hvcurveto
          9.36999511719 72.4799957275 75.0899963379 -93.6199951172 rlineto
          2.7799987793 hlineto
          -1.10000610352 15.7299957275 13.3000030518 18.0500030518 0 vvcurveto
          46.2599945068 64.3200073242 11.2100067139 -76.4299926758 rlineto
          -5.9700012207 0.880004882812 -6.22999572754 -5.66999816895 -5.77000427246 hhcurveto
          -4.52000427246 -2.66000366211 107.949996948 3.00999450684 hlineto
          -4.52000427246 -0.360000610352 rlineto
          -9.58000183105 -8.32000732422 6.05999755859 10.3899993896 -2.61000061035 hvcurveto
          endchar
        </CharString>
        <CharString name="two">
          -90 107.350006104 391.75 rmoveto
          -0.580001831055 121.61000061 44.1999969482 66.8899993896 84.0299987793 6.75999450684 rrcurveto
          78.9700012207 6.35000610352 48.8000030518 -46.6499938965 -72.7700042725 vvcurveto
          -147.429992676 -185 -149.029998779 -142 -168.589996338 vhcurveto
          -8.88999938965 520.5 vlineto
          67.7100067139 272.660003662 rlineto
          -10 hlineto
          -66.0099945068 -35.1799926758 -42.5099945068 -30.3600006104 -59.4299926758 hhcurveto
          -190.13999939 hlineto
          99.0399932861 51.8300018311 192 83.6900024414 139.38999939 vvcurveto
          115.649993896 -124 67.6600036621 -162 -97 -106 -23.9499969482 -47.75 -58.7700042725 vhcurveto
          67.3500061035 -171.059997559 rlineto
          endchar
        </CharString>
        <CharString name="twosuperior">
          -329 84.6399993896 559.259994507 -63 callgsubr
        </CharString>
        <CharString name="u">
          97 600.179992676 700 -102 callsubr
        </CharString>
        <CharString name="uacute">
          97 465.990005493 761 -107 callsubr
          141.190002441 -68 -102 callsubr
        </CharString>
        <CharString name="ucircumflex">
          97 475.75 931.759994507 -89 callgsubr
          293.300003052 -56.3399963379 -102 callsubr
        </CharString>
        <CharString name="udieresis">
          97 348.149993896 755.490005493 -105 callsubr
          -10.5700073242 -55.4900054932 -102 callsubr
        </CharString>
        <CharString name="ugrave">
          97 509.899993896 770.910003662 -98 callgsubr
          97.2799987793 -63.9100036621 -102 callsubr
        </CharString>
        <CharString name="uhungarumlaut">
          97 358.509994507 764 -107 callsubr
          217 -7 -107 callsubr
          38.6699981689 -71 -102 callsubr
        </CharString>
        <CharString name="umacron">
          97 340.809997559 -29 callgsubr
          259.369995117 -180.36000061 -102 callsubr
        </CharString>
        <CharString name="underscore">
          -248 -110 50 hstem
          0 500 vstem
          -110 vmoveto
          500 50 -500 hlineto
          endchar
        </CharString>
        <CharString name="uni021A">
          2 740.690002441 719.169998169 -82 callsubr
          -397.449996948 -786.429992676 rmoveto
          85.4299926758 -17 70.5399932861 101 -38.2299957275 84 -17.6999969482 39 -51.1499938965 14 -32.0200042725 -24 -27.75 -20 -4.39999389648 -49 25.5899963379 -29 37.5899963379 -42 -24.9400024414 -37 -25.6699981689 -11 rrcurveto
          endchar
        </CharString>
        <CharString name="uni021B">
          -50 127.649993896 701 -73 callsubr
          -579.779998779 -11 callgsubr
          -28.0599975586 15 callsubr
          -34.4499969482 hhcurveto
          -12.6499938965 -74 callgsubr
          -10 rlineto
          358.919998169 -77 callsubr
          -279.619995117 -974 -89 callsubr
        </CharString>
        <CharString name="uogonek">
          97 600.179992676 700 rmoveto
          -8 callgsubr
          vlineto
          28.4199981689 23.1499938965 -20.1000061035 -28.0399932861 1.25 hvcurveto
          -394.479995728 vlineto
          -131.940002441 -0.309997558594 -67.8399963379 -77.9600067139 -114.729995728 hhcurveto
          -114.61000061 -67.7200012207 82.75 140.039993286 hvcurveto
          381.710006714 vlineto
          27.9799957275 1.2200012207 23.1199951172 20.0399932861 28.3800048828 -15 callsubr
          -343.11000061 -8 callgsubr
          hlineto
          28.8899993896 23.4400024414 -20.7599945068 -28.7599945068 0.539993286133 hvcurveto
          -384.899993896 vlineto
          -0.0899963378906 -160.350006104 102.289993286 -100.240005493 222.380004883 -8 -40.6300048828 -10 -37.2799987793 -27 -7.33999633789 -52 -50 callsubr
          -6 6 rcurveline
          -21 callgsubr
          -2.96000671387 33 12.6300048828 32 52.8200073242 13 172.550003052 10 96.4199981689 100.350006104 0.00999450683594 159.990005493 rrcurveto
          385.449996948 vlineto
          27.5599975586 1.74000549316 22.9499969482 19.6699981689 28.1100006104 -15 callsubr
          hlineto
          endchar
        </CharString>
        <CharString name="uring">
          97 482.850006104 941.630004883 -82 callgsubr
          118.440002441 -211.86000061 -102 callsubr
        </CharString>
        <CharString name="v">
          -28 537.100006104 700 rmoveto
          -9.91000366211 8.78999328613 vlineto
          25.8200073242 30.1799926758 -22.7599945068 -40.0200042725 -17.6000061035 hvcurveto
          -149.149993896 -343.330001831 -47 callsubr
          233.339996338 510.839996338 rcurveline
          38.0599975586 21.6199951172 33.5099945068 15.9700012207 27.8999938965 hhcurveto
          9 10 hlineto
          endchar
        </CharString>
        <CharString name="w">
          216 785.800003052 700 -99 callgsubr
        </CharString>
        <CharString name="wacute">
          216 526.309997559 761 -107 callsubr
          266.490005493 -68 -99 callgsubr
        </CharString>
        <CharString name="wcircumflex">
          216 536.059997559 931.759994507 -89 callgsubr
          418.61000061 -56.3399963379 -99 callgsubr
        </CharString>
        <CharString name="wdieresis">
          216 408.470001221 755.490005493 -105 callsubr
          114.740005493 -55.4900054932 -99 callgsubr
        </CharString>
        <CharString name="wgrave">
          216 570.220001221 770.910003662 -98 callgsubr
          222.589996338 -63.9100036621 -99 callgsubr
        </CharString>
        <CharString name="x">
          25 810.089996338 10 rmoveto
          -9 callsubr
          166.729995728 248.759994507 rlineto
          30.7200012207 21.7700042725 35.9100036621 27.6699981689 41.8200073242 hhcurveto
          14 14 callsubr
          10.0200042725 rlineto
          -258.550003052 hlineto
          10 callgsubr
          -10.0200042725 rlineto
          12.6000061035 hlineto
          27.2100067139 25.0599975586 -33.5099945068 -28.3500061035 -17.0099945068 hvcurveto
          -113.789993286 -177.619995117 -116.160003662 177.600006104 -39 callgsubr
          -199.080001831 -271.820007324 rlineto
          -30.1199951172 -23.6799926758 -33.8800048828 -26.7799987793 -41.0899963379 hhcurveto
          -14 -10.0200042725 260.039993286 14 callsubr
          10.0200042725 rlineto
          -12.6000061035 hlineto
          -27.2700042725 -27.1100006104 33.6699981689 28.3899993896 19.2400054932 hvcurveto
          142.289993286 201.119995117 131.300003052 -201.619995117 -19 callsubr
          endchar
        </CharString>
        <CharString name="y">
          -19 525.509994507 700.020004272 -97 callgsubr
        </CharString>
        <CharString name="yacute">
          -19 418.009994507 761 -107 callsubr
          114.509994507 -67.9799957275 -97 callgsubr
        </CharString>
        <CharString name="ycircumflex">
          -19 427.759994507 931.759994507 -89 callgsubr
          266.619995117 -56.3200073242 -97 callgsubr
        </CharString>
        <CharString name="ydieresis">
          -19 300.169998169 755.490005493 -105 callsubr
          -37.25 -55.4700012207 -97 callgsubr
        </CharString>
        <CharString name="yen">
          -19 525.509994507 700.020004272 rmoveto
          -10.0200042725 12.6000061035 vlineto
          27.2299957275 23.4199981689 -33.5599975586 -28.3600006104 -15.5899963379 hvcurveto
          -142.080001831 -247.320007324 -137.460006714 247.380004883 rlineto
          28.3500061035 -14.5399932861 20.4299926758 33.5500030518 29.2100067139 hhcurveto
          12.6000061035 9.9700012207 -386.339996338 -9.9700012207 14 hlineto
          40.9199981689 38.8800048828 -27.0099945068 -30.2400054932 19.6199951172 hvcurveto
          127.309997559 -207.869995117 rlineto
          -98.2400054932 -50 128.86000061 hlineto
          32.2299957275 -52.6300048828 rlineto
          -7.36999511719 -161.089996338 -50 161.089996338 -192.630004883 vlineto
          -34.5599975586 -0.960006713867 -28.2700042725 -27.7400054932 -34.8099975586 hhcurveto
          -12.6499938965 hlineto
          -0.160003662109 -10 rlineto
          358.75 -86 callgsubr
          192.039993286 159.13999939 50 -159.149993896 6.83999633789 vlineto
          33.7100067139 53.1499938965 rlineto
          125.440002441 50 -93.7299957275 hlineto
          130.839996338 206.309997559 rlineto
          30.8699951172 20.2899932861 38.5200042725 27.8999938965 42 hhcurveto
          14 10.0200042725 hlineto
          endchar
        </CharString>
        <CharString name="ygrave">
          -19 461.910003662 770.910003662 -98 callgsubr
          70.6000061035 -63.8899993896 -97 callgsubr
        </CharString>
        <CharString name="z">
          -81 633.839996338 -31 callgsubr
          -67.5500030518 -95.9600067139 hhcurveto
          -141.279998779 hlineto
          335.550003052 655.520004272 rlineto
          -92 callgsubr
          80.3999938965 -58 callsubr
          -9.32000732422 rlineto
          570.559997559 -33 callsubr
        </CharString>
        <CharString name="zacute">
          -81 318 761 -107 callsubr
          322.850006104 -536.460006714 rmoveto
          -78 callgsubr
          -67.5500030518 -95.9600067139 hhcurveto
          -141.279998779 hlineto
          335.550003052 655.520004272 rlineto
          -92 callgsubr
          80.3999938965 -58 callsubr
          -9.32000732422 rlineto
          570.559997559 -33 callsubr
        </CharString>
        <CharString name="zcaron">
          -81 341.830001831 763.970001221 -91 callsubr
          132.710006714 -707.850006104 rmoveto
          -78 callgsubr
          -67.5500030518 -95.9600067139 hhcurveto
          -141.279998779 hlineto
          335.550003052 655.520004272 rlineto
          -92 callgsubr
          80.3999938965 -58 callsubr
          -9.32000732422 rlineto
          570.559997559 -33 callsubr
        </CharString>
        <CharString name="zdotaccent">
          -81 335 -88 callgsubr
          298.850006104 -532.460006714 rmoveto
          -78 callgsubr
          -67.5500030518 -95.9600067139 hhcurveto
          -141.279998779 hlineto
          335.550003052 655.520004272 rlineto
          -92 callgsubr
          80.3999938965 -58 callsubr
          -9.32000732422 rlineto
          570.559997559 -33 callsubr
        </CharString>
        <CharString name="zero">
          -48 350.089996338 614 rmoveto
          -194.910003662 -115.179992676 -116.630004883 -197.369995117 -197.369995117 115.179992676 -116.630004883 194.910003662 194.910003662 115.179992676 116.630004883 197.369995117 197.369995117 -115.179992676 116.630004883 -194.910003662 hvcurveto
          -50 vmoveto
          62.9100036621 37.1799926758 -98.0599975586 -165.940002441 -165.940002441 -37.1799926758 -98.0599975586 -62.9100036621 -62.9100036621 -37.1799926758 98.0599975586 165.940002441 165.940002441 37.1799926758 98.0599975586 62.9100036621 hvcurveto
          endchar
        </CharString>
      <CharString index="0">
        40.6999969482 32.9900054932 32.9900054932 40.6999969482 40.6999969482 -32.9900054932 32.9900054932 -40.6999969482 -40.6999969482 -32.9900054932 -32.9900054932 -40.6999969482 -40.6999969482 32.9900054932 -32.9900054932 40.6999969482 hvcurveto
        return
      </CharString>
      <CharString index="1">
        -70 callgsubr
        -23 callsubr
        110.300003052 hlineto
        -102 callgsubr
        206.270004272 vlineto
        -33 callgsubr
        -35 callgsubr
        -37 callgsubr
        34.9400024414 28.3600006104 -27.9499969482 -34.75 0.75 hvcurveto
        -554.509994507 -103 callgsubr
        return
      </CharString>
      <CharString index="2">
        rmoveto
        -181.86000061 -49 -100.559997559 204 -70.5399932861 161.210006714 -160.380004883 366.320007324 rcurveline
        -90.5800018311 206.899993896 -147.720001221 97.9900054932 -188.11000061 -112.580001831 1.88000488281 -10.1000061035 rcurveline
        114 41.7799987793 60.5299987793 -116.619995117 43.6600036621 -117.38999939 -204.38999939 -447.460006714 rcurveline
        -38.0700073242 -21.6199951172 -33.4100036621 -15.9700012207 -28 hhcurveto
        -9 -10 223.279998779 9.91000366211 -8.78999328613 hlineto
        -36 callgsubr
        -30.1799926758 22.7599945068 40.0200042725 17.6000061035 hvcurveto
        40.1600036621 93.3200073242 rlineto
        214.070007324 hlineto
        27.0800018311 -66.4400024414 120.210006714 -294.559997559 254.679992676 -84 185.690002441 108 rlinecurve
        -779.929992676 387 rmoveto
        89.8200073242 206.029998779 6.52000427246 -18.6900024414 6.30000305176 -17.4600067139 6.27000427246 -15.3800048828 rlinecurve
        62.9799957275 -154.5 rlineto
        endchar
      </CharString>
      <CharString index="3">
        -59 callgsubr
        44.4900054932 -45.0800018311 -0.210006713867 -62.3800048828 rrcurveto
        -4.72999572754 vlineto
        9.77000427246 -0.119995117188 rlineto
        278.259994507 0 callgsubr
        -62.8000030518 -45.0500030518 -45.2700042725 -63.5500030518 -1.19999694824 rrcurveto
        return
      </CharString>
      <CharString index="4">
        vlineto
        -34.8300018311 -0.660003662109 -28.3999938965 -28.0500030518 -35 hhcurveto
        -12.6499938965 -74 callgsubr
        -10 rlineto
        return
      </CharString>
      <CharString index="5">
        62.7899932861 -1.7799987793 44.4900054932 -55 callsubr
        return
      </CharString>
      <CharString index="6">
        rmoveto
        1.24000549316 57.4400024414 18.5899963379 29.6900024414 58.8000030518 9.30000305176 -1.83999633789 10 rcurveline
        -94.7200012207 -18.0599975586 -194.820007324 -2.80999755859 -70.1799926758 -3.19000244141 -110.089996338 -5 -37 -49.1300048828 -2 -50.8699951172 -3 -72.1900024414 75.0899963379 -39.8099975586 56.6399993896 32.3999938965 rrcurveto
        5.80999755859 vlineto
        -51.6399993896 -5.19999694824 -30 32 3 41 4 42 30 17.9199981689 55.9199981689 1.94000244141 86.9499969482 3.00999450684 rcurveline
        -577.009994507 -103 callgsubr
        358.789993286 -86 callgsubr
        return
      </CharString>
      <CharString index="7">
        vlineto
        34.5399932861 0.979995727539 28.2700042725 27.7200012207 34.7899932861 hhcurveto
        -3 callgsubr
        12.6499938965 hlineto
        -16 callgsubr
        -54 callsubr
        -20 callgsubr
        -28 callsubr
        hvcurveto
        -554.740005493 -103 callgsubr
        return
      </CharString>
      <CharString index="8">
        rmoveto
        -9.91000366211 8.78999328613 vlineto
        27.8200073242 20.7799987793 -22.2400054932 -40.0200042725 -10.6000061035 hvcurveto
        -79.1399993896 -280.759994507 -199.13999939 368.25 -9.30999755859 0.320007324219 -172.949996948 -359.779998779 -109.490005493 272.520004272 rlineto
        39.4700012207 -13.9100036621 26.0299987793 22.2299957275 25.6300048828 hhcurveto
        8.78999328613 9.91000366211 -359.11000061 -10 8 hlineto
        30 36.5500030518 -16.3800048828 -40.3300018311 19.1100006104 hvcurveto
        247.059997559 -655.289993286 rlineto
        9.44000244141 hlineto
        0.649993896484 55.1499938965 26.3200073242 56.0099945068 0 vvcurveto
        158.270004272 323.649993896 230.729995728 -434.800003052 rlineto
        9.44000244141 hlineto
        -2.11999511719 19 1.75 21.2200012207 2.94000244141 18.5200042725 6.47999572754 31.7100067139 rcurveline
        3.13999938965 12.6399993896 2.66000366211 8.05999755859 0 vvcurveto
        169.380004883 544.240005493 rlineto
        40.2400054932 15.9799957275 40.5899963379 16.3600006104 29.2599945068 hhcurveto
        8.78999328613 10 hlineto
        endchar
      </CharString>
      <CharString index="9">
        rmoveto
        -28.25 65.8899993896 -82.25 81.8899993896 -44.25 37.8800048828 -48.3800048828 -20.2400054932 -23.3800048828 -33.2400054932 -13.3800048828 -46.2400054932 63.3000030518 -41.9799957275 96.3000030518 -41.9799957275 73.3000030518 -8.97999572754 rrcurveto
        return
      </CharString>
      <CharString index="10">
        rmoveto
        -10.0200042725 12.6000061035 vlineto
        27.2299957275 23.4199981689 -33.5599975586 -28.3600006104 -15.5899963379 hvcurveto
        -142.080001831 -247.320007324 -137.460006714 247.380004883 rlineto
        28.3500061035 -14.5399932861 20.4299926758 33.5500030518 29.2100067139 hhcurveto
        12.6000061035 9.9700012207 -386.339996338 -9.9700012207 14 hlineto
        40.9199981689 38.8800048828 -27.0099945068 -30.2400054932 19.6199951172 hvcurveto
        190.160003662 -310.5 rlineto
        -250.009994507 vlineto
        -34.5599975586 -0.960006713867 -28.2700042725 -27.7400054932 -34.8099975586 hhcurveto
        -12.6499938965 hlineto
        -0.160003662109 -10 rlineto
        358.75 -86 callgsubr
        -7 callgsubr
        vlineto
        196.240005493 309.470001221 rlineto
        30.8699951172 20.2899932861 38.5200042725 27.8999938965 42 hhcurveto
        14 10.0200042725 hlineto
        endchar
      </CharString>
      <CharString index="11">
        rmoveto
        21.9900054932 -48.5200042725 -38 -107 -100.679992676 0.360000610352 -62.3300018311 0.220001220703 -34 43.4100036621 -64.9799957275 10.4499969482 -44.4499969482 7.13999938965 -38.5700073242 -36.5899963379 -8.9700012207 -21.6699981689 rrcurveto
        -12.3500061035 hlineto
        -14.6799926758 53.6699981689 34 108 97.8500061035 0.110000610352 58.1499938965 0.0700073242188 31 -43.1799926758 72.8899993896 -9.9700012207 44.6900024414 -6.11000061035 39.4199981689 33.0800018311 6.66000366211 16.5200042725 rrcurveto
        return
      </CharString>
      <CharString index="12">
        216 752.289993286 349.210006714 rmoveto
        -197.979995728 366.11000061 -9.30999755859 0.320007324219 -172.949996948 -359.779998779 -109.490005493 272.520004272 rlineto
        39.4700012207 -13.9100036621 26.0299987793 22.2299957275 25.6300048828 hhcurveto
        8.78999328613 9.91000366211 -359.11000061 -10 8 hlineto
        30 36.5500030518 -16.3800048828 -40.3300018311 19.1100006104 hvcurveto
        203.130004883 -538.770004272 -30.8699951172 -68.0800018311 -79.1199951172 -172.440002441 -135.919998169 -24 rlinecurve
        -10 vlineto
        153.36000061 -40 112.080001831 182 34.1799926758 70.4600067139 185.080001831 379.979995728 rcurveline
        230.529998779 -434.440002441 rlineto
        9.44000244141 hlineto
        62.3399963379 14.8600006104 48.8099975586 0 vhcurveto
        185.309997559 605.059997559 35 114.270004272 74.0099945068 114.289993286 163.320007324 12.0299987793 rlinecurve
        10 vlineto
        -212.960006714 28 -102.25 -151.419998169 -35.1600036621 -127.169998169 rrcurveto
        return
      </CharString>
      <CharString index="13">
        rmoveto
        -32.9299926758 108.539993286 36 109 106 13 rrcurveto
        129 16 83 -141 -184 vvcurveto
        -195 -94 -124 -138 -146 -91 140 211 131 35 121 55.4299926758 57.8399963379 vhcurveto
        -6 10 rlineto
        -180.429992676 -30.8399963379 -125 -140 -183 vvcurveto
        -220 183 -147 274 272 182 144 225 277 -274 114 -162 -32 vhcurveto
        -147 -29 -36 -143 64.9299926758 -108.539993286 rrcurveto
        endchar
      </CharString>
      <CharString index="14">
        hlineto
        -104 callgsubr
        return
      </CharString>
      <CharString index="15">
        8.66999816895 vlineto
        -6.17999267578 -11.8000030518 -53.9499969482 -6.7200012207 -40.2200012207 hhcurveto
        -344.36000061 hlineto
        -43.2700042725 -0.110000610352 -58.8500061035 10.1199951172 -18.8000030518 7.92999267578 rrcurveto
        -205.759994507 vlineto
        10.1000061035 0.149993896484 rlineto
        7.82000732422 vlineto
        -0.190002441406 79.5599975586 47.3600006104 49.1499938965 return
      </CharString>
      <CharString index="16">
        -98 callsubr
        206.270004272 vlineto
        -87 callgsubr
        return
      </CharString>
      <CharString index="17">
        rmoveto
        10 -335.869995117 -10 15.7700042725 vlineto
        32.2799987793 0.0500030517578 19.4799957275 -16.4100036621 -0.320007324219 -29.1999969482 -1.50999450684 -137.190002441 rcurveline
        -69.6600036621 -66.5700073242 -37 -65.1199951172 vhcurveto
        -132.880004883 -0.149993896484 -59 117.220001221 189 vvcurveto
        205 70 117 159.710006714 vhcurveto
        90.2899932861 -0.0700073242188 97 -37 42.3800048828 -149.740005493 rrcurveto
        8.32000732422 hlineto
        9.82000732422 191.240005493 rlineto
        24.8200073242 -58.75 -128.660003662 20.7100067139 -109.990005493 hhcurveto
        -251.130004883 -149 -136 -226 -230 154 -136 236.350006104 166.649993896 144 68 60.8099975586 48 hvcurveto
        165.190002441 vlineto
        29.1000061035 -0.850006103516 18.1900024414 16.3099975586 32.3300018311 hhcurveto
        return
      </CharString>
      <CharString index="18">
        rmoveto
        11.8999938965 hlineto
        178.440002441 -175.520004272 -7.13999938965 -8 -177.809997559 64.4299926758 -167.119995117 -64.3300018311 -7.13999938965 8 rlineto
        return
      </CharString>
      <CharString index="19">
        764 -104 callsubr
        return
      </CharString>
      <CharString index="20">
        -18.5899963379 -61 callsubr
        -57.5700073242 -9.96000671387 -43.1000061035 -0.410003662109 rrcurveto
        return
      </CharString>
      <CharString index="21">
        hlineto
        -0.160003662109 10 rlineto
        -95 callsubr
        return
      </CharString>
      <CharString index="22">
        rmoveto
        -19 callgsubr
        2 callgsubr
        hlineto
        34.8099975586 -25 callsubr
        -35 callsubr
        -28.0500030518 -49 callgsubr
        -12.6499938965 -74 callgsubr
        -10 rlineto
        359.460006714 -74 callgsubr
        10 rlineto
        -12.3399963379 hlineto
        -35.3099975586 -0.0200042724609 -28.3999938965 28.0500030518 -0.649993896484 34.8300018311 rrcurveto
        575.13999939 44.3699951172 vlineto
        60 49 -33 -99 5 hvcurveto
        1 -19 -2 -11 -1 -11 rrcurveto
        -86 -11 -41 -37.1999969482 -55 hhcurveto
        -16.1000061035 -9.46000671387 hlineto
        19.1000061035 -7.33999633789 19 -12 14 -48 13 -43 3 -57 36 -61 rrcurveto
        -104 61 93 -10 119.960006714 hhcurveto
        124.86000061 10.0299987793 hlineto
        -47.8200073242 0.970001220703 -23 13 -45 62 -37 50 -43 77 -5 8 -24 40 -42 44 -55.6900024414 16.3899993896 rrcurveto
        124.690002441 18.6100006104 35 95 76 vvcurveto
        154 -144 35 -121.279998779 vhcurveto
        return
      </CharString>
      <CharString index="23">
        rmoveto
        -191.339996338 -36.5700073242 -50.7599945068 -64.5800018311 -161.550003052 hhcurveto
        -136.479995728 3.94000244141 -80.6499938965 118.13999939 195.990005493 vvcurveto
        194.839996338 87.1600036621 115.169998169 147.5 vhcurveto
        103.330001831 -0.0700073242188 78 -46 40.3800048828 -140.740005493 rrcurveto
        8.32000732422 hlineto
        9.82000732422 191.240005493 rlineto
        23.5299987793 -55.5299987793 -89 22 -112 hhcurveto
        -276 -162 -135 -228 -233 168 -131 269.130004883 -1 hvcurveto
        158.86000061 82.4499969482 57.8000030518 66.1399993896 39.6999969482 hvcurveto
        -23.8099975586 181.949996948 rlineto
        endchar
      </CharString>
      <CharString index="24">
        -83 callsubr
        endchar
      </CharString>
      <CharString index="25">
        rmoveto
        -68.0399932861 -51.0299987793 -38.2700042725 -51.0299987793 -51.0299987793 50.5599975586 -38.2700042725 67.4199981689 67.3899993896 50.5599975586 39.2200012207 52.2799987793 49.7700042725 -50.0800018311 37.3300018311 -66.8000030518 hvcurveto
        -1.10000610352 -29.7700042725 rmoveto
        29.6100006104 22.2100067139 -25.5099945068 -34.0299987793 -33.3800048828 -22.2100067139 -25.0399932861 -29.6000061035 -28.9900054932 -21.7299957275 25.0399932861 33.3999938965 34.0099945068 21.7400054932 25.5099945068 28.9799957275 hvcurveto
        return
      </CharString>
      <CharString index="26">
        5.08999633789 -10 36.2400054932 15 66.3000030518 -11 -5.14999389648 -42 rlinecurve
        -55 -6.69999694824 -55.3600006104 -21 -41.7299957275 hhcurveto
        -0.740005493164 -10 83.0899963379 -29 99.0200042725 44 6.41000366211 70 rlinecurve
        6.35000610352 69 -89.6000061035 6 -35.5899963379 -12 return
      </CharString>
      <CharString index="27">
        98.2400054932 vlineto
        80.8399963379 -1.61000061035 47.6499938965 -48.1999969482 -0.190002441406 -79.8000030518 rrcurveto
        -61 callsubr
        vlineto
        10.1000061035 -0.149993896484 rlineto
        return
      </CharString>
      <CharString index="28">
        544.059997559 709 rmoveto
        -32.8899993896 -16 -47 -32 -55 4 -60 4 -15 46 -103.690002441 -1 rrcurveto
        -1 hlineto
        -114.270004272 -76.6300048828 -62.0299987793 -104.970001221 -15.4100036621 hvcurveto
        -116.910003662 -17.1600036621 53.2299957275 -69.0899963379 107.240005493 hhcurveto
        120.339996338 78.2599945068 65.3699951172 110.630004883 12.1000061035 hvcurveto
        4.58000183105 41.8399963379 -4.89999389648 35.3999938965 -13.4799957275 27.8899993896 13.4400024414 -4.7799987793 14.6900024414 -4.0299987793 16.6699981689 -2.32000732422 31 -4 36.7700042725 2.80000305176 35.9700012207 23.6600036621 -345.660003662 -653.449996948 rcurveline
        44.6999969482 -19 372.350006104 711 rlineto
        -334.220001221 -156 rmoveto
        -9.9700012207 -84.1100006104 -24.6000061035 -50.1699981689 -31.6499938965 -0.800003051758 -25.7400054932 -25 callsubr
        -8.08000183105 50.5399932861 12.0599975586 85.4600067139 rrcurveto
        86.1100006104 12.2700042725 23.6600036621 50.8899993896 27.7700042725 hhcurveto
        25.3699951172 9.02000427246 -51.2599945068 -86.7400054932 -10.1000061035 hvcurveto
        341.039993286 -197 rmoveto
        -113.75 -76.4900054932 -62.0299987793 -104.970001221 -15.6999969482 hvcurveto
        -116.910003662 -17.4799957275 53.0899963379 -69.0899963379 107.330001831 hhcurveto
        123.009994507 78.3899993896 65.3699951172 110.630004883 9.66000366211 hvcurveto
        111.259994507 9.71000671387 -54.9900054932 65.7400054932 -102.779998779 hhcurveto
        return
      </CharString>
      <CharString index="29">
        -114.179992676 -31.0899963379 -80.4700012207 return
      </CharString>
      <CharString index="30">
        0.149993896484 -10 rlineto
        18.4499969482 hlineto
        33.7400054932 27.3600006104 -27.0399932861 -33.5700073242 0.630004882812 hvcurveto
        return
      </CharString>
      <CharString index="31">
        73 -85 callsubr
        195.529998779 364.88999939 rmoveto
        168.710006714 203.940002441 25.7700042725 29.3999938965 40 19.7899932861 44.1199951172 0.100006103516 rlinecurve
        4.38000488281 9.02000427246 -241.100006104 -8.83999633789 9.66000366211 hlineto
        27.4100036621 12.6300048828 -24.8200073242 -22.2700042725 -15.8500061035 hvcurveto
        -239.100006104 -325.899993896 -0.0800018310547 -2.17999267578 107.770004272 -173.559997559 31.2299957275 -42.4400024414 rlinecurve
        78 -106 150 6.16999816895 28.5299987793 -0.0399932861328 rrcurveto
        108.190002441 9.94000244141 hlineto
        -40.6499938965 1.0299987793 -33.7599945068 25.7599945068 -32.3800048828 48.8200073242 rrcurveto
        return
      </CharString>
      <CharString index="32">
        12.6499938965 10 callsubr
        return
      </CharString>
      <CharString index="33">
        hlineto
        -81 callsubr
        return
      </CharString>
      <CharString index="34">
        12.6499938965 hlineto
        return
      </CharString>
      <CharString index="35">
        -80 callgsubr
        205.740005493 vlineto
        -18.3300018311 -7.72999572754 -56.4100036621 -9.80999755859 -42.9199981689 -0.630004882812 rrcurveto
        return
      </CharString>
      <CharString index="36">
        rmoveto
        -113.830001831 -101 -363.479995728 97 -260 80 -22.3699951172 7 -15.6300048828 16 -0.100006103516 35.9199981689 rrcurveto
        582.270004272 vlineto
        35.8000030518 1.10000610352 28 27 39 hhcurveto
        8.63999938965 10 callsubr
        -358.800003052 -31 callsubr
        -10 rlineto
        2 callgsubr
        hlineto
        34 29 -27 -35.8000030518 -28 callsubr
        hvcurveto
        -554.330001831 vlineto
        -35.8600006104 -0.869995117188 -29 -27 -34 hhcurveto
        -12.8399963379 -74 callgsubr
        -10 rlineto
        125 84.9900054932 -40 -34 67.0099945068 hvcurveto
        197 -100 432 -265 159.309997559 342 rrcurveto
        return
      </CharString>
      <CharString index="37">
        -72 callsubr
        -123.419998169 return
      </CharString>
      <CharString index="38">
        rmoveto
        5.39999389648 hlineto
        -1.63000488281 77.8399963379 12.9100036621 34.2799987793 42.4799957275 6.05000305176 27.1300048828 3.86000061035 34.1300048828 -8.58000183105 4.74000549316 -43.2799987793 5.44999694824 -49.7200012207 -38.9199981689 -44.8000030518 -50.4600067139 2.47999572754 -0.990005493164 -9 callgsubr
        rcurveline
        39.1399993896 -0.960006713867 56.7799987793 -22.8099975586 -67.7899932861 vvcurveto
        -79.3699951172 -78.2200012207 -40.6300048828 -89.6699981689 2 vhcurveto
        -1.08000183105 -5 rlineto
        123.779998779 -68 192.190002441 35 145 vvcurveto
        72.9299926758 -48.6799926758 26.2599945068 -40.3300018311 8.19000244141 vhcurveto
        35.9900054932 1.30000305176 34.8800048828 22.3000030518 50.5200042725 vvcurveto
        63.7400054932 -55.5700073242 32.4499969482 -94.2899932861 1.32000732422 vhcurveto
        -64.7599945068 0.899993896484 -58.5299987793 -14.75 -31.7100067139 -24.0299987793 rrcurveto
        return
      </CharString>
      <CharString index="39">
        -554.330001831 -103 callgsubr
        return
      </CharString>
      <CharString index="40">
        -60 callsubr
        -340.13999939 vlineto
        -478.580001831 425.710006714 rlineto
        -9.86000061035 hlineto
        -43 callgsubr
        return
      </CharString>
      <CharString index="41">
        rmoveto
        -35.9299926758 -64.3200073242 -25.9299926758 -44.3200073242 -25.9299926758 -84.3200073242 26.2700042725 -85.6799926758 26.2700042725 -45.6799926758 36.2700042725 -65.6799926758 -9 -7 rcurveline
        -74.9299926758 88.0099945068 -84.9299926758 68.0099945068 -74.9299926758 48.0099945068 74.9299926758 45.9900054932 84.9299926758 55.9900054932 74.9299926758 95.9900054932 rrcurveto
        return
      </CharString>
      <CharString index="42">
        -27.3600006104 -27.0099945068 -33.7200012207 hhcurveto
        -18.4600067139 -74 callgsubr
        -10 rlineto
        return
      </CharString>
      <CharString index="43">
        rmoveto
        125.429992676 -23.9900054932 103.809997559 148.119995117 -56.8699951172 123.080001831 -26.0800018311 57.3699951172 -75.1000061035 19.8200073242 -46.9400024414 -34.4199981689 -40.6799926758 -29.1999969482 -6.33999633789 -72.1399993896 37.6300048828 -42.6000061035 55.2799987793 -62.5800018311 -36.5099945068 -53.1999969482 -37.6499938965 -16.6900024414 rrcurveto
        return
      </CharString>
      <CharString index="44">
        rmoveto
        0.0500030517578 79.3699951172 19.2299957275 43.3300018311 43.0800018311 4.91000366211 rrcurveto
        40 4.55999755859 25.3600006104 -26.0500030518 -40.6600036621 vvcurveto
        -92.7299957275 -90.8999938965 -105.300003052 -83.1900024414 -113.419998169 vhcurveto
        -9 callgsubr
        309.380004883 vlineto
        41.7100067139 187.839996338 rlineto
        -9 callgsubr
        hlineto
        -41.5700073242 -19 -28.1000061035 -20.1600036621 -32.0899963379 hhcurveto
        -92.3800048828 hlineto
        53.5500030518 24.6399993896 98.5599975586 63.9600067139 84.3600006104 vvcurveto
        71.2599945068 -76.6600036621 41.2299957275 -95.0399932861 -60.9199981689 -64.8099975586 -14.5099945068 -31.1199951172 -37.0599975586 vhcurveto
        49.2400054932 -114.550003052 rlineto
        endchar
      </CharString>
      <CharString index="45">
        rmoveto
        -215.589996338 -82 -67.2400054932 7 -454.479995728 151 rrcurveto
        -29.5800018311 10 -8.50999450684 16.9600067139 41.9600067139 vvcurveto
        572.270004272 vlineto
        1.10000610352 35.8000030518 28 27 34.9900054932 -25 callsubr
        rrcurveto
        -24 callgsubr
        34.1900024414 -0.0800018310547 29 -27 -28 callsubr
        -35.8000030518 rrcurveto
        -68 callgsubr
        124.190002441 87.5 -22 -38 82.6000061035 hvcurveto
        250.460006714 -113 347.100006104 -228 173.460006714 304 rrcurveto
        return
      </CharString>
      <CharString index="46">
        -129.240005493 27.3800048828 -60.2400054932 78.8600006104 -20.8099975586 49.2899932861 36.1399993896 42.7100067139 30.6699981689 6.64999389648 75.75 -39.5099945068 44.7299957275 -58.0500030518 65.7100067139 38.3300018311 55.8600006104 39.5299987793 17.5200042725 rrcurveto
        return
      </CharString>
      <CharString index="47">
        hlineto
        -77 callgsubr
        return
      </CharString>
      <CharString index="48">
        62.7899932861 -1.7799987793 return
      </CharString>
      <CharString index="49">
        hlineto
        -18.6900024414 -84.7299957275 68 -79 90.1999969482 0.0899963378906 87.8000030518 -0.0899963378906 71 77 -19.3000030518 86.7299957275 rrcurveto
        return
      </CharString>
      <CharString index="50">
        -93 callsubr
        -38 callsubr
        -51 callsubr
        rlineto
        endchar
      </CharString>
      <CharString index="51">
        -34 callgsubr
        endchar
      </CharString>
      <CharString index="52">
        -55 callsubr
        206.270004272 vlineto
        return
      </CharString>
      <CharString index="53">
        rmoveto
        5.39999389648 11.2899932861 vlineto
        16.2799987793 13.5399932861 13.0500030518 16.1999969482 hvcurveto
        289.580001831 vlineto
        33.3300018311 -16.5500030518 9.07000732422 -24.25 vhcurveto
        -4.42999267578 5.39999389648 hlineto
        30.4799957275 0.600006103516 109 12.1199951172 46.5700073242 21.8399963379 rrcurveto
        5.39999389648 -372.300003052 hlineto
        -16.0399932861 13.6499938965 -12.8500061035 16.1600036621 vhcurveto
        11.2899932861 -9 callgsubr
        hlineto
        return
      </CharString>
      <CharString index="54">
        rmoveto
        117.410003662 35.3399963379 29.3699951172 127.119995117 -3.14999389648 51.5399932861 -131.199996948 -14 rcurveline
        10.1399993896 -72.6699981689 -4.63000488281 -34.4199981689 -34.8399963379 -87.6699981689 rrcurveto
        return
      </CharString>
      <CharString index="55">
        9 callsubr
        -10 -37 callgsubr
        35 -35 callsubr
        -28.0500030518 -34.8300018311 0.660003662109 hvcurveto
        -544.270004272 vlineto
        0.00999450683594 -95.9199981689 -17.5 -174 -167.460006714 26 -2 -9 rcurveline
        252.740005493 -141 139.419998169 181 210.100006104 vvcurveto
        547.330001831 -15 callgsubr
      </CharString>
      <CharString index="56">
        -49.7100067139 return
      </CharString>
      <CharString index="57">
        -27.3800048828 60.2400054932 -78.8600006104 20.8099975586 -49.2899932861 -36.1399993896 -42.7100067139 -30.6699981689 -6.64999389648 -75.75 39.5099945068 -44.7299957275 58.0500030518 return
      </CharString>
      <CharString index="58">
        0.660003662109 -34.8300018311 rrcurveto
        -554.809997559 vlineto
        -34.6100006104 -0.880004882812 -28.3000030518 -27.7899932861 -34.8399963379 hhcurveto
        return
      </CharString>
      <CharString index="59">
        231.539993286 rmoveto
        -72 callsubr
        return
      </CharString>
      <CharString index="60">
        -24 87.6600036621 -125.75 -42.5599975586 -64.5599975586 -39.9900054932 40.1900024414 61.9199981689 42.3099975586 184.559997559 -86.3600006104 24 -88.6399993896 -24 42.6900024414 -184.559997559 39.8099975586 -61.8999938965 -65.0599975586 39.9199981689 -124.630004883 42.6199951172 -24 -87.6600036621 24 -87.3399963379 124.630004883 42.3800048828 return
      </CharString>
      <CharString index="61">
        578.960006714 -80 callgsubr
        return
      </CharString>
      <CharString index="62">
        281.289993286 150.020004272 50 -150.020004272 247.660003662 -72 callgsubr
        endchar
      </CharString>
      <CharString index="63">
        rmoveto
        -36.7299957275 -15.9900054932 -53 -27 -58 hhcurveto
        -59 -52 28 35.7299957275 -15.5899963379 hvcurveto
        return
      </CharString>
      <CharString index="64">
        0 13.2100067139 -46.6600036621 -78.2700042725 vvcurveto
        -519.529998779 -14 callgsubr
        return
      </CharString>
      <CharString index="65">
        hlineto
        60.8200073242 -3.41999816895 42.7400054932 -44.5200042725 -0.210006713867 -61.1399993896 rrcurveto
        -4.72999572754 vlineto
        9.77000427246 -0.119995117188 rlineto
        277.960006714 0 callgsubr
        -61.6499938965 -43.4199981689 -44.7599945068 -61.7200012207 -2.75 rrcurveto
        return
      </CharString>
      <CharString index="66">
        723 rmoveto
        47.1399993896 -31.8500061035 -477.979995728 -711.149993896 -47.5099945068 31.0800018311 rlineto
        return
      </CharString>
      <CharString index="67">
        -107 callsubr
        endchar
      </CharString>
</ttFont>
